
<svg xmlns="http://www.w3.org/2000/svg" version="1.1" xmlns:xlink="http://www.w3.org/1999/xlink" preserveAspectRatio="none" x="0px" y="0px" width="1500px" height="1500px" viewBox="0 0 1500 1500">
<defs>
<g id="spaceforce_0_Layer1_0_FILL">
<path fill="#FFFFFF" stroke="none" d="
M -136.65 -71.75
Q -136.9 -71.8 -136.95 -71.55
L -136.45 -2.95 -148.2 -3.1
Q -148.45 -3.05 -148.5 -2.8
L -148 62.2
Q -148.05 62.45 -147.75 62.45
L -110.9 62.7 -111 39.8 -110.9 62.7 -110.8 78.3
Q -110.8 78.6 -110.5 78.6
L -35.1 79.1
Q -34.8 79.1 -34.8 78.8
L -35.05 46.35 -2.55 46.55
Q -2.25 46.55 -2.3 46.3
L -2.85 -38.95
Q -2.9 -39.2 -3.15 -39.25
L -44.95 -39.55 -45.15 -70.95
Q -45.2 -71.2 -45.4 -71.2
L -136.65 -71.75
M -116.7 -46.45
L -65.55 -46.45 -116.7 -46.45
M 110.15 161.2
L 110.15 -71.75 -2.3 285.65 110.15 161.2
M 110.15 161.2
L 222.6 269.55 110.15 -71.75 110.15 161.2
M 110.15 209.35
L 110.15 161.2 -2.3 285.65 110.15 209.35
M 110.15 161.2
L 110.15 209.35 222.6 269.55 110.15 161.2
M 145.05 -162.8
Q 145.05 -170.3 139.75 -175.6 134.45 -180.9 126.95 -180.9 119.45 -180.9 114.15 -175.6 108.85 -170.3 108.85 -162.8 108.85 -155.3 114.15 -150 119.45 -144.7 126.95 -144.7 134.45 -144.7 139.75 -150 145.05 -155.3 145.05 -162.8
M 757.65 -201.4
L 757.65 -202.25 612.25 -347.6 611.4 -347.65 502.15 -238.35 483.45 -257.05 482.55 -257.05 378.95 -153.5 379 -152.6 437.75 -93.85 474.3 -130.4 437.75 -93.85 412.9 -69.05 412.9 -68.15 533.05 52 533.95 52 585.75 0.25 637.5 52 638.4 52 774.2 -83.85 774.2 -84.7 707.6 -151.3 757.65 -201.4
M 731.2 -97.2
L 653.5 -172.2 731.2 -97.2
M 527.6 -230.2
L 604.45 -302.5 527.6 -230.2 Z"/>
</g>

<g id="spaceforce_0_Layer1_0_STROKES_1_FILL">
<path fill="#000000" stroke="none" d="
M 600.95 -301.4
L 596.7 -299.6 596.55 -299.55 588 -295.2 587.8 -295.05 581.45 -291.2
Q 577 -288.25 574.05 -286.05
L 566.5 -280.15
Q 563 -277.2 559.15 -273.6 555.75 -270.45 552.15 -266.65
L 545.8 -259.5
Q 543.2 -256.45 540.25 -252.45
L 539 -250.7
Q 537.95 -249.25 537.8 -249
L 536.1 -246.5 536 -246.3 530.9 -237.7 527.5 -230.25 527.55 -230.1 527.65 -230.1 530.8 -231.2 531.05 -231.25 535.3 -233.05 535.45 -233.1 544 -237.45 544.2 -237.6 544.4 -237.7 550.55 -241.45
Q 555 -244.4 557.95 -246.6
L 565.5 -252.5
Q 569 -255.45 572.85 -259.05 576.25 -262.2 579.85 -266
L 586.2 -273.15
Q 588.8 -276.2 591.75 -280.2
L 593 -281.95
Q 594.05 -283.4 594.2 -283.65
L 595.9 -286.15 596 -286.35 596.15 -286.55 601.1 -294.95 604.5 -302.4 604.45 -302.55 604.35 -302.55 601.2 -301.45 600.95 -301.4
M 661.6 -168.95
L 661.45 -169 661.3 -169.1 657 -171 656.75 -171.05 653.55 -172.25
Q 653.4 -172.25 653.4 -172.2
L 653.4 -172.1 656.5 -165.1 656.85 -164.45 656.9 -164.3 657.95 -162.45
Q 659.05 -160.55 659.6 -159.45
L 661.55 -156.25 661.85 -155.85 661.95 -155.65 666.25 -149.35
Q 669.95 -144.35 671.9 -142.05
L 678.35 -134.7
Q 681.75 -131 685.4 -127.5 689.05 -123.9 692.8 -120.7
L 700.45 -114.55
Q 703.45 -112.2 707.9 -109.15
L 709.75 -107.95
Q 711.15 -107 711.55 -106.8
L 714.15 -105.2 714.35 -105.05 723.05 -100.4 723.2 -100.35 723.35 -100.25 727.65 -98.35 727.9 -98.3 731.1 -97.1
Q 731.25 -97.1 731.25 -97.15
L 731.25 -97.25 728.15 -104.25 727.8 -104.9 727.75 -105.05 723.1 -113.1 722.8 -113.5 722.7 -113.7 720.85 -116.45
Q 720.55 -116.95 719.65 -118.2
L 718.4 -120
Q 714.7 -125 712.75 -127.3
L 706.3 -134.65
Q 702.95 -138.3 699.25 -141.85 695.6 -145.45 691.85 -148.65
L 684.2 -154.8
Q 681.2 -157.15 676.75 -160.2
L 674.9 -161.4
Q 673.5 -162.35 673.1 -162.55
L 661.6 -168.95
M -112.85 -49.75
L -112.9 -49.7 -113 -49.65 -114.95 -48.1 -115.1 -48 -116.7 -46.55
Q -116.75 -46.4 -116.7 -46.35
L -115.1 -44.85 -114.95 -44.75 -113 -43.2 -112.9 -43.15 -112.85 -43.1 -112.65 -43 -110.4 -41.55
Q -110.3 -41.5 -109.55 -41.1
L -104.8 -38.9
Q -102.25 -37.95 -100.5 -37.55
L -99.95 -37.4 -97.05 -36.85 -96.75 -36.85 -96.45 -36.8 -88.7 -36.5 -85.45 -36.85 -85.15 -36.85 -82.25 -37.4 -81.7 -37.55
Q -79.95 -37.95 -77.4 -38.9
L -72.65 -41.1
Q -71.9 -41.5 -71.8 -41.55
L -69.55 -43 -69.35 -43.1 -69.3 -43.15 -69.2 -43.2 -67.25 -44.75 -67.1 -44.85 -65.55 -46.35
Q -65.4 -46.4 -65.5 -46.5
L -67.1 -48 -67.25 -48.1 -69.2 -49.65 -69.3 -49.7 -69.35 -49.75 -69.55 -49.85 -71.8 -51.3
Q -71.9 -51.35 -72.65 -51.75
L -77.4 -53.95
Q -79.95 -54.9 -81.7 -55.3
L -82.25 -55.45 -85.15 -56 -85.45 -56 -91.1 -56.45 -96.45 -56.05 -96.75 -56 -97.05 -56 -99.95 -55.45 -100.5 -55.3
Q -102.25 -54.9 -104.8 -53.95
L -109.55 -51.75
Q -110.3 -51.35 -110.4 -51.3
L -112.65 -49.85 -112.85 -49.75 Z"/>
</g>

<g id="spaceforce_0_Layer0_0_FILL">
<path fill="#FFFFFF" stroke="none" d="
M -136.65 -71.75
Q -136.9 -71.8 -136.95 -71.55
L -136.45 -2.95 -148.2 -3.1
Q -148.45 -3.05 -148.5 -2.8
L -148 62.2
Q -148.05 62.45 -147.75 62.45
L -110.9 62.7 -111 39.8 -110.9 62.7 -110.8 78.3
Q -110.8 78.6 -110.5 78.6
L -35.1 79.1
Q -34.8 79.1 -34.8 78.8
L -35.05 46.35 -2.55 46.55
Q -2.25 46.55 -2.3 46.3
L -2.85 -38.95
Q -2.9 -39.2 -3.15 -39.25
L -44.95 -39.55 -45.15 -70.95
Q -45.2 -71.2 -45.4 -71.2
L -136.65 -71.75
M -116.7 -46.45
L -65.55 -46.45 -116.7 -46.45
M 110.15 161.2
L 110.15 -71.75 -2.3 285.65 110.15 161.2
M 110.15 161.2
L 222.6 269.55 110.15 -71.75 110.15 161.2
M 110.15 209.35
L 110.15 161.2 -2.3 285.65 110.15 209.35
M 110.15 209.35
L 222.6 269.55 110.15 161.2 110.15 209.35
M 145.05 -162.8
Q 145.05 -170.3 139.75 -175.6 134.45 -180.9 126.95 -180.9 119.45 -180.9 114.15 -175.6 108.85 -170.3 108.85 -162.8 108.85 -155.3 114.15 -150 119.45 -144.7 126.95 -144.7 134.45 -144.7 139.75 -150 145.05 -155.3 145.05 -162.8
M 757.65 -201.4
L 757.65 -202.25 612.25 -347.6 611.4 -347.65 502.15 -238.35 483.45 -257.05 482.55 -257.05 378.95 -153.5 379 -152.6 437.75 -93.85 474.3 -130.4 437.75 -93.85 412.9 -69.05 412.9 -68.15 533.05 52 533.95 52 585.75 0.25 637.5 52 638.4 52 774.2 -83.85 774.2 -84.7 707.6 -151.3 757.65 -201.4
M 731.2 -97.2
L 653.5 -172.2 731.2 -97.2
M 527.6 -230.2
L 604.45 -302.5 527.6 -230.2 Z"/>
</g>

<g id="spaceforce_0_Layer0_0_STROKES_1_FILL">
<path fill="#000000" stroke="none" d="
M -82.85 -49.65
L -99.35 -49.65 -109.55 -48.3
Q -110.35 -48.15 -110.4 -48.15
L -112.65 -47.65 -113 -47.6 -116.7 -46.55 -116.7 -46.35 -113 -45.25 -112.65 -45.2 -110.4 -44.7
Q -110.35 -44.7 -109.55 -44.55
L -99.35 -43.2 -88.1 -42.95 -82.85 -43.2 -72.65 -44.55
Q -71.85 -44.7 -71.8 -44.7
L -69.55 -45.2 -69.2 -45.25 -65.55 -46.35 -65.55 -46.55 -69.2 -47.6 -69.55 -47.65 -71.8 -48.15
Q -71.85 -48.15 -72.65 -48.3
L -82.25 -49.6 -82.55 -49.6 -82.85 -49.65
M 604.35 -302.55
L 598.1 -298.15 584.8 -287.65
Q 579.65 -283.3 578 -281.85
L 570.85 -275.55
Q 564.9 -270.1 563.6 -268.85 558.8 -264.35 556.5 -262.05
L 549.75 -255.3
Q 545.5 -250.95 543.6 -248.9
L 527.5 -230.25 527.65 -230.1 547.2 -245
Q 552.4 -249.35 554 -250.8
L 561.15 -257.1
Q 567.1 -262.55 568.4 -263.8 573.2 -268.3 575.5 -270.6
L 582.25 -277.35
Q 586.5 -281.7 588.4 -283.75
L 593.85 -289.65 604.5 -302.4 604.35 -302.55
M 653.4 -172.1
L 669.65 -152.85 689.9 -132.15
Q 693.1 -129 697.2 -125.25
L 724.2 -102.15 731.1 -97.1 731.25 -97.25 725 -105.1 694.75 -137.2
Q 691.55 -140.35 687.45 -144.1
L 673.35 -156.7 653.55 -172.25 653.4 -172.1 Z"/>
</g>

<path id="spaceforce_0_Layer1_0_1_STROKES" stroke="#000000" stroke-width="20" stroke-linejoin="round" stroke-linecap="round" fill="none" d="
M 757.65 -202.25
Q 758.1 -201.8 757.65 -201.4
L 707.6 -151.3 774.2 -84.7
Q 774.65 -84.25 774.2 -83.85
L 638.4 52
Q 637.95 52.45 637.5 52
L 585.75 0.25 533.95 52
Q 533.5 52.45 533.05 52
L 412.9 -68.15
M 412.9 -69.05
L 437.75 -93.85 379 -152.6
M 378.95 -153.5
L 482.55 -257.05
Q 483 -257.5 483.45 -257.05
L 502.15 -238.35 611.4 -347.65
Q 611.85 -348.05 612.25 -347.6
L 757.65 -202.25
M 267.7 -550.5
L 267.7 -413.95
M 145.05 -162.8
Q 145.05 -155.3 139.75 -150 134.45 -144.7 126.95 -144.7 119.45 -144.7 114.15 -150 108.85 -155.3 108.85 -162.8 108.85 -170.3 114.15 -175.6 119.45 -180.9 126.95 -180.9 134.45 -180.9 139.75 -175.6 145.05 -170.3 145.05 -162.8 Z
M 262.5 -241.3
L 262.5 -140.9
M 180.65 -290.8
L 84.3 -242.6
M 437.75 -93.85
L 474.3 -130.4
M 324.55 -370.1
L 483.5 -467.25
M 322.5 -300.75
L 410.8 -252.55
M 63.15 -443.9
L 201.2 -368.7
M 230.9 326.4
L 230.95 386.15
M 222.6 269.55
L 110.15 161.2 110.15 209.35 222.6 269.55 110.15 -71.75 110.15 161.2 -2.3 285.65 110.15 209.35
M 111.45 298
L 111.4 499.9
M -136.65 -71.75
L -45.4 -71.2
M -45.15 -70.95
L -44.95 -39.55 -3.15 -39.25
M -2.85 -38.95
L -2.3 46.3
M -2.55 46.55
L -35.05 46.35 -34.8 78.8
M -35.1 79.1
L -110.5 78.6
M -110.8 78.3
L -110.9 62.7 -147.75 62.45
M -148 62.2
L -148.5 -2.8
Q -148.45 -3.05 -148.2 -3.1
L -136.45 -2.95 -136.95 -71.55
M -110.9 62.7
L -111 39.8
M -2.35 349.2
L -2.35 659.2
M -2.3 285.65
L 110.15 -71.75"/>

<path id="spaceforce_0_Layer0_0_1_STROKES" stroke="#000000" stroke-width="7" stroke-linejoin="round" stroke-linecap="round" fill="none" d="
M 110.15 209.35
L 222.6 269.55 110.15 161.2 110.15 209.35 -2.3 285.65 110.15 -71.75 222.6 269.55
M 110.15 -71.75
L 110.15 161.2 -2.3 285.65"/>

<path id="spaceforce_0_Layer0_0_2_STROKES" stroke="#000000" stroke-width="7" stroke-linejoin="round" stroke-linecap="butt" fill="none" d="
M 757.65 -202.25
Q 758.1 -201.8 757.65 -201.4
L 707.6 -151.3 774.2 -84.7
Q 774.65 -84.25 774.2 -83.85
L 638.4 52
Q 637.95 52.45 637.5 52
L 585.75 0.25 533.95 52
Q 533.5 52.45 533.05 52
L 412.9 -68.15
Q 412.45 -68.6 412.9 -69.05
L 437.75 -93.85 379 -152.6
Q 378.55 -153.05 378.95 -153.5
L 482.55 -257.05
Q 483 -257.5 483.45 -257.05
L 502.15 -238.35 611.4 -347.65
Q 611.85 -348.05 612.25 -347.6
L 757.65 -202.25 Z
M 145.05 -162.8
Q 145.05 -155.3 139.75 -150 134.45 -144.7 126.95 -144.7 119.45 -144.7 114.15 -150 108.85 -155.3 108.85 -162.8 108.85 -170.3 114.15 -175.6 119.45 -180.9 126.95 -180.9 134.45 -180.9 139.75 -175.6 145.05 -170.3 145.05 -162.8 Z
M 437.75 -93.85
L 474.3 -130.4
M 230.9 326.4
L 230.95 386.15
M 111.45 298
L 111.4 499.9
M -110.9 62.7
L -147.75 62.45
Q -148.05 62.45 -148 62.2
L -148.5 -2.8
Q -148.45 -3.05 -148.2 -3.1
L -136.45 -2.95 -136.95 -71.55
Q -136.9 -71.8 -136.65 -71.75
L -45.4 -71.2
Q -45.2 -71.2 -45.15 -70.95
L -44.95 -39.55 -3.15 -39.25
Q -2.9 -39.2 -2.85 -38.95
L -2.3 46.3
Q -2.25 46.55 -2.55 46.55
L -35.05 46.35 -34.8 78.8
Q -34.8 79.1 -35.1 79.1
L -110.5 78.6
Q -110.8 78.6 -110.8 78.3
L -110.9 62.7 -111 39.8
M -2.35 349.2
L -2.35 659.2"/>
</defs>

<g transform="matrix( 0.395538330078125, 0.8271942138671875, -0.8271942138671875, 0.395538330078125, 688.65,542.65) ">
<g transform="matrix( 1, 0, 0, 1, 0,0) ">
<use xlink:href="#spaceforce_0_Layer1_0_FILL"/>

<use xlink:href="#spaceforce_0_Layer1_0_1_STROKES"/>

<use xlink:href="#spaceforce_0_Layer1_0_STROKES_1_FILL"/>
</g>

<g transform="matrix( 1, 0, 0, 1, 0,0) ">
<use xlink:href="#spaceforce_0_Layer0_0_FILL"/>

<use xlink:href="#spaceforce_0_Layer0_0_1_STROKES"/>

<use xlink:href="#spaceforce_0_Layer0_0_2_STROKES"/>

<use xlink:href="#spaceforce_0_Layer0_0_STROKES_1_FILL"/>
</g>
</g>
</svg>
