
<svg xmlns="http://www.w3.org/2000/svg" version="1.1" xmlns:xlink="http://www.w3.org/1999/xlink" preserveAspectRatio="none" x="0px" y="0px" width="1500px" height="1500px" viewBox="0 0 1500 1500">
<defs>
<g id="boomer_0_Layer8_0_FILL">
<path fill="#FFFFFF" stroke="none" d="
M 1386.9 1022.4
Q 1386.6865234375 1022.2384765625 1386.45 1022.05 1381.9048828125 1018.7044921875 1376.6 1016.5 1363.328515625 1011.0234375 1345.4 1012.9 1316.5291015625 1015.954296875 1275.55 1038.2 1316.5291015625 1015.954296875 1345.4 1012.9 1325.376953125 1009.3904296875 1307.8 1008.25 1283.4625 1006.711328125 1263.7 1009.8 1266.0556640625 1022.849609375 1267.5 1036.25 1266.0556640625 1022.849609375 1263.7 1009.8 1260.7708984375 993.280078125 1256.4 977.35 1240.5146484375 918.926171875 1205.8 868.25 1184.9537109375 837.8037109375 1157.3 810.15 1128.3 781.15 1096.2 759.6 1004.3576171875 697.9748046875 887.15 697.5 886.61640625 697.50078125 886.05 697.5 885.712890625 697.5 885.35 697.5 880.8478515625 697.5 876.35 697.6 854.1703125 698.035546875 832.85 700.7 758.6060546875 710.0419921875 695.55 746.45 679.2513671875 755.89453125 663.7 767.1 637.4869140625 786.0630859375 613.4 810.15 576.6533203125 846.8966796875 551.9 888.6 524.1857421875 935.2857421875 511.5 988.2 505.9998046875 1011.0814453125 503.3 1035.1 631.9365234375 994.0654296875 840.85 1069.2 867.6 1078.75 944.55 1104.75 945.15 1104.9 945.75 1105.15 1040.1 1136.9 1117.55 1142.2 1203.241015625 1148.0845703125 1268.15 1121.5 1268.3009765625 1120.0740234375 1268.4 1118.6 1268.3009765625 1120.0740234375 1268.15 1121.5 1269.9912109375 1120.7724609375 1271.8 1120 1269.9912109375 1120.7724609375 1268.15 1121.5 1203.241015625 1148.0845703125 1117.55 1142.2 1040.1 1136.9 945.75 1105.15 945.15 1104.9 944.55 1104.75 867.6 1078.75 840.85 1069.2 631.9365234375 994.0654296875 503.3 1035.1 490.903125 1039.092578125 479.2 1044.15 439.2556640625 1061.441796875 408.05 1091.45 388.6431640625 1110.1181640625 372.6 1133.7 372.0603515625 1134.56171875 371.5 1135.4 349.908984375 1168.4611328125 339.4 1198.85 335.1625 1211.11328125 332.7 1222.9 318.7537109375 1290.52890625 363.5 1344.1 422.95 1255.15 524.3 1231.7 422.95 1255.15 363.5 1344.1 412 1380.85 545.6 1282.45 546.6 1282.55 547.6 1282.3 549.15 1281.95 550.25 1280.9 551.05 1280.1 551.4 1279.05 551.6 1278.45 551.7 1277.9 551.8 1276.95 551.55 1276 551.35 1275.6 551.2 1275.2 551 1274.8 550.85 1274.4 550.65 1274.05 550.45 1273.65 550.25 1273.25 550.1 1272.85 549.9 1272.45 549.7 1272.05 549.6634765625 1271.8765625 549.6 1271.7 551.177734375 1274.39296875 552.75 1277.05 561.7828125 1292.0822265625 572.35 1306.45 590.55 1331.2 613.4 1354.05 691.0890625 1431.7390625 790.95 1455.85 817.3404296875 1462.219921875 845.25 1464.85 853.9943359375 1465.66875 862.85 1466.1 866.6060546875 1466.3189453125 870.4 1466.45 877.818359375 1466.7 885.35 1466.7 965.712109375 1466.7 1034.2 1438 1042.6078125 1434.506640625 1050.8 1430.55 1108.4546875 1402.8953125 1157.3 1354.05 1160.696484375 1350.653515625 1164 1347.2 1127.9888671875 1347.563671875 1089.5 1337.95 920.95 1295.8 872.9 1280.5 824.8 1265.15 767.55 1247.4 710.3 1229.6 632.85 1224.3 576.6 1220.45 529.3 1230.6 576.6 1220.45 632.85 1224.3 710.3 1229.6 767.55 1247.4 824.8 1265.15 872.9 1280.5 920.95 1295.8 1089.5 1337.95 1127.9888671875 1347.563671875 1164 1347.2 1171.3640625 1347.152734375 1178.6 1346.65 1259.490234375 1341.2158203125 1327.45 1284.05 1354.1734375 1261.5759765625 1378.9 1231.1 1388.44453125 1216.48515625 1395.8 1202.35 1401.3486328125 1191.826953125 1405.65 1181.55 1410.5080078125 1170.0388671875 1413.8 1158.85 1424.76875 1122.0248046875 1419.05 1089.15 1416.398046875 1073.95234375 1410.15 1059.6 1401.790625 1040.22734375 1386.9 1022.4 1373.185546875 1042.9171875 1357.25 1059.95 1326.135546875 1093.1982421875 1286.55 1113.15 1286.224609375 1113.3375 1285.9 1113.5 1280.798046875 1116.0611328125 1275.55 1118.4 1280.798046875 1116.0611328125 1285.9 1113.5 1286.224609375 1113.3375 1286.55 1113.15 1326.135546875 1093.1982421875 1357.25 1059.95 1373.185546875 1042.9171875 1386.9 1022.4
M 1373.25 1102.8
Q 1369.6384765625 1106.32578125 1366 1109.7 1348.50078125 1125.89765625 1330.55 1138.85 1305.102734375 1157.2958984375 1278.75 1169.25 1268.8896484375 1173.7294921875 1258.9 1177.3 1187.4966796875 1202.84921875 1109.65 1182.15 1187.4966796875 1202.84921875 1258.9 1177.3 1268.8896484375 1173.7294921875 1278.75 1169.25 1305.102734375 1157.2958984375 1330.55 1138.85 1348.50078125 1125.89765625 1366 1109.7 1369.6384765625 1106.32578125 1373.25 1102.8 1373.6794921875 1102.4095703125 1374.1 1102 1373.6794921875 1102.4095703125 1373.25 1102.8
M 404.65 1238.2
Q 455.41171875 1202.1822265625 514.5 1187.8 597.55 1167.633203125 697.05 1190.15 597.55 1167.633203125 514.5 1187.8 455.41171875 1202.1822265625 404.65 1238.2
M 532.7 1241.55
Q 532.7234375 1240.0685546875 532.7 1238.55 534.689453125 1242.975390625 536.75 1247.3 536.5580078125 1247.3302734375 536.35 1247.35 534.9 1247.5 533.75 1248.35 533.75 1248.2 533.75 1248 533.75 1247.4 533.75 1246.85 533.7 1246.15 533.65 1245.55 533.55 1244.85 533.45 1244.2 533.35 1243.55 533.2 1242.95 533.05 1242.35 532.8 1241.8 532.8 1241.75 532.8 1241.7
L 532.75 1241.65
Q 532.7 1241.6 532.7 1241.55
M 1269.4 1060.5
L 1270.4 1060.5 1269.4 1060.5
Q 1269.95 1071.205859375 1269.95 1082.1 1269.95 1093.4119140625 1269.35 1104.45 1269.95 1093.4119140625 1269.95 1082.1 1269.95 1071.205859375 1269.4 1060.5 1269.26015625 1057.191015625 1269.05 1053.85 1269.26015625 1057.191015625 1269.4 1060.5
M 987.2 1569.55
Q 961.3859375 1568.275 942.65 1559.2 950.02421875 1571.7703125 958.7 1584.95 980.6 1618.35 1010.85 1655.5
L 987.2 1569.55
M 1256.85 1529.75
Q 1268.9 1514.8 1274.75 1492.7 1232.65 1434.2 1168.7 1400.15 1156.15 1423.05 1132.5 1434.5
L 1178.8 1560.95
Q 1231.45 1561.15 1256.85 1529.75
M 1172.5 1392.25
Q 1170.75 1396.35 1168.7 1400.15 1232.65 1434.2 1274.75 1492.7 1268.9 1514.8 1256.85 1529.75 1268.75 1524.25 1277.8 1516.15 1305.25 1491.6 1306.5 1443
L 1175 1385.85
Q 1173.9 1389.05 1172.5 1392.25
M 991.65 1569.75
Q 989.4005859375 1569.694921875 987.2 1569.55
L 1010.85 1655.5
Q 1015.1162109375 1620.7955078125 1017 1590.15 1004.161328125 1582.334375 991.65 1569.75
M 1126.3 1437.2
Q 1100.3 1447.55 1074.5 1440.65 1052.85 1507.65 1062.15 1577.25 1082.6 1589.85 1102.55 1592.1 1141.55 1596.35 1178.8 1560.95
L 1132.5 1434.5
Q 1129.45 1435.95 1126.3 1437.2
M 1074.5 1440.65
Q 1068.2 1438.95 1061.95 1436.25 1058.65 1434.85 1055.55 1433.2
L 991.65 1569.75
Q 1004.161328125 1582.334375 1017 1590.15 1039.3611328125 1603.81640625 1062.75 1603.15 1082.3 1602.6 1102.55 1592.1 1082.6 1589.85 1062.15 1577.25 1052.85 1507.65 1074.5 1440.65
M 1164 1347.2
Q 1160.696484375 1350.653515625 1157.3 1354.05 1108.4546875 1402.8953125 1050.8 1430.55 1053.128515625 1431.9359375 1055.55 1433.2 1058.65 1434.85 1061.95 1436.25 1068.2 1438.95 1074.5 1440.65 1100.3 1447.55 1126.3 1437.2 1129.45 1435.95 1132.5 1434.5 1156.15 1423.05 1168.7 1400.15 1170.75 1396.35 1172.5 1392.25 1173.9 1389.05 1175 1385.85 1177.35 1379.05 1178.5 1372.25 1180.6666015625 1359.4822265625 1178.6 1346.65 1171.3640625 1347.152734375 1164 1347.2
M 935.05 1555
Q 928.094921875 1550.681640625 922.3 1545.1 909.7380859375 1539.7283203125 900.2 1531.75
L 867.65 1656.5
Q 909.38359375 1601.108984375 935.05 1555
M 935.05 1555
Q 938.6951171875 1557.26953125 942.65 1559.2 961.3859375 1568.275 987.2 1569.55 989.4005859375 1569.694921875 991.65 1569.75
L 1055.55 1433.2
Q 1053.128515625 1431.9359375 1050.8 1430.55 1042.6078125 1434.506640625 1034.2 1438 1024.8732421875 1456.4935546875 1013.55 1473.2 996.0482421875 1499.1283203125 973.75 1520.8 957.333203125 1536.8404296875 938.3 1550.55 937.945703125 1550.4568359375 937.6 1550.35 929.44140625 1548.1673828125 922.3 1545.1 928.094921875 1550.681640625 935.05 1555
M 862.85 1466.1
Q 853.9943359375 1465.66875 845.25 1464.85
L 731.15 1580.5
Q 807.45 1548.15 857.15 1515.75 858.35703125 1488.63828125 862.85 1466.1
M 885.35 1466.7
Q 877.818359375 1466.7 870.4 1466.45 873.42890625 1509.362109375 900.2 1531.75 909.7380859375 1539.7283203125 922.3 1545.1 929.44140625 1548.1673828125 937.6 1550.35 937.945703125 1550.4568359375 938.3 1550.55 957.333203125 1536.8404296875 973.75 1520.8 996.0482421875 1499.1283203125 1013.55 1473.2 1024.8732421875 1456.4935546875 1034.2 1438 965.712109375 1466.7 885.35 1466.7
M 870.4 1466.45
Q 866.6060546875 1466.3189453125 862.85 1466.1 858.35703125 1488.63828125 857.15 1515.75 856.1 1540.65 857.75 1569.35 860.05 1609.2 867.65 1656.5
L 900.2 1531.75
Q 873.42890625 1509.362109375 870.4 1466.45
M 766.2 1500.1
Q 748.25 1535.75 731.15 1580.5
L 845.25 1464.85
Q 817.3404296875 1462.219921875 790.95 1455.85 778.37265625 1475.8697265625 766.2 1500.1
M 332.7 1222.9
Q 335.1625 1211.11328125 339.4 1198.85
L 285.35 1230.55
Q 310.2046875 1227.058203125 332.7 1222.9
M 380.5 1045.95
Q 423.3 1036.5 456.8 1038.45
L 285.35 941
Q 336.35 1006.3 380.5 1045.95
M 367.9 1132.6
Q 370.2763671875 1133.180859375 372.6 1133.7 388.6431640625 1110.1181640625 408.05 1091.45
L 247.25 1092.5
Q 314.85 1119.8 367.9 1132.6
M 371.5 1135.4
Q 372.0603515625 1134.56171875 372.6 1133.7 370.2763671875 1133.180859375 367.9 1132.6 354.15 1145.95 339.95 1161.95 313.35 1191.75 285.35 1230.55
L 339.4 1198.85
Q 349.908984375 1168.4611328125 371.5 1135.4
M 467.5 1039.4
Q 462.2853515625 1038.77265625 456.8 1038.45 423.3 1036.5 380.5 1045.95 356.2 1051.35 328.9 1060.4 291 1072.9 247.25 1092.5
L 408.05 1091.45
Q 439.2556640625 1061.441796875 479.2 1044.15 473.0650390625 1042.112890625 467.5 1039.4
M 447.45 1025.45
Q 456.1796875 1033.8583984375 467.5 1039.4 473.0650390625 1042.112890625 479.2 1044.15 490.903125 1039.092578125 503.3 1035.1 505.9998046875 1011.0814453125 511.5 988.2 505.0326171875 995.2712890625 498.1 1001.95 482.016796875 1017.5265625 463.45 1030.9 454.9 1028.65 447.45 1025.45
M 397.05 959.75
Q 385.0609375 956.7291015625 372.1 954.05 333 945.9 285.35 941
L 456.8 1038.45
Q 462.2853515625 1038.77265625 467.5 1039.4 456.1796875 1033.8583984375 447.45 1025.45 405.190234375 1007.37890625 397.05 959.75
M 551.9 888.6
Q 549.108984375 884.6587890625 546.75 880.3
L 395.15 934.95
Q 395.1109375 948.2234375 397.05 959.75 405.190234375 1007.37890625 447.45 1025.45 454.9 1028.65 463.45 1030.9 482.016796875 1017.5265625 498.1 1001.95 505.0326171875 995.2712890625 511.5 988.2 524.1857421875 935.2857421875 551.9 888.6
M 546.75 880.3
Q 544.25 875.65 542.2 870.5 535.7 854.2 536 838.05 459.1 807.6 378.8 818.35 373.35 827.15 369.85 835.9 349.3 886.9 395.15 934.95
L 546.75 880.3
M 536 838.05
Q 536.15 826.35 539.9 814.7
L 402.85 757.55
Q 364.95 795.15 369.85 835.9 373.35 827.15 378.8 818.35 459.1 807.6 536 838.05
M 590.5 760.65
Q 615.75 751 640.8 757.6 668.6 683.5 658.25 606.25 651.55 602.1 644.9 599.1 591.6 574.95 541.6 622.6
L 590.5 760.65
M 445.7 690.95
Q 448.65 679.8 453.25 670.45 404.45 692.5 402.85 757.55
L 539.9 814.7
Q 541.25 810.35 543.1 806.05 548.05 794.5 555.5 785.4 489.05 751.1 445.7 690.95
M 453.25 670.45
Q 448.65 679.8 445.7 690.95 489.05 751.1 555.5 785.4 568.55 769.4 589.2 761.15 589.85 760.9 590.5 760.65
L 541.6 622.6
Q 476.6 622.45 453.25 670.45
M 981.05 640.75
Q 996.2625 609.225 1010.85 571.05
L 941.6 641.2
Q 958.18359375 637.5001953125 981.05 640.75
M 887.15 697.5
Q 887.566015625 696.51171875 888 695.55
L 886.05 697.5
Q 886.61640625 697.50078125 887.15 697.5
M 902.5 676.5
Q 912.171484375 647.844140625 941.6 641.2
L 1010.85 571.05
Q 934.55 603.4 884.85 635.8 883.307421875 670.4498046875 876.35 697.6 880.8478515625 697.5 885.35 697.5 885.712890625 697.5 886.05 697.5
L 888 695.55
Q 893.2859375 683.8212890625 902.5 676.5
M 966.95 666.3
Q 924.0298828125 659.4705078125 902.5 676.5 893.2859375 683.8212890625 888 695.55 887.566015625 696.51171875 887.15 697.5 1004.3576171875 697.9748046875 1096.2 759.6 1128.3 781.15 1157.3 810.15 1184.9537109375 837.8037109375 1205.8 868.25 1209.136328125 862.99921875 1211.3 857.65 1227.045703125 818.908203125 1181.65 777.2 1080.7 684.45 966.95 666.3
M 902.5 676.5
Q 924.0298828125 659.4705078125 966.95 666.3 1080.7 684.45 1181.65 777.2 1227.045703125 818.908203125 1211.3 857.65 1258.8326171875 807.4859375 1198.55 752.1 1097.6 659.35 983.85 641.2 982.4423828125 640.9759765625 981.05 640.75 958.18359375 637.5001953125 941.6 641.2 912.171484375 647.844140625 902.5 676.5
M 724 633.1
Q 753.7111328125 635.7873046875 773.35 649.45
L 731.15 496.05
Q 721.415234375 575.238671875 724 633.1
M 653.65 762.05
Q 656.5 763.3 659.25 764.7
L 713.4 632.55
Q 680.4 599.3 644.9 599.1 651.55 602.1 658.25 606.25 668.6 683.5 640.8 757.6 647.2 759.3 653.65 762.05
M 663.7 767.1
Q 661.5328125 765.8576171875 659.25 764.7 656.5 763.3 653.65 762.05 647.2 759.3 640.8 757.6 615.75 751 590.5 760.65 589.85 760.9 589.2 761.15 568.55 769.4 555.5 785.4 548.05 794.5 543.1 806.05 541.25 810.35 539.9 814.7 536.15 826.35 536 838.05 535.7 854.2 542.2 870.5 544.25 875.65 546.75 880.3 549.108984375 884.6587890625 551.9 888.6 576.6533203125 846.8966796875 613.4 810.15 637.4869140625 786.0630859375 663.7 767.1
M 788.95 663.9
Q 783.588671875 661.8201171875 777.7 660.2 777.233984375 660.078515625 776.75 659.95 776.545703125 660.0974609375 776.35 660.25 752.3283203125 677.6357421875 732.4 698.7 711.7673828125 720.60703125 695.55 746.45 758.6060546875 710.0419921875 832.85 700.7 829.064453125 693.7876953125 824.05 687.9 810.72734375 672.2357421875 788.95 663.9
M 777.7 660.2
Q 783.588671875 661.8201171875 788.95 663.9 784.749609375 658.751953125 779.75 654.45 776.72265625 651.8048828125 773.35 649.45 753.7111328125 635.7873046875 724 633.1 718.845703125 632.6783203125 713.4 632.55
L 659.25 764.7
Q 661.5328125 765.8576171875 663.7 767.1 679.2513671875 755.89453125 695.55 746.45 711.7673828125 720.60703125 732.4 698.7 752.3283203125 677.6357421875 776.35 660.25 776.545703125 660.0974609375 776.75 659.95 777.233984375 660.078515625 777.7 660.2
M 804.4 601.2
Q 799.95 609.3 796.05 617.15 786.3205078125 636.7310546875 779.75 654.45 784.749609375 658.751953125 788.95 663.9 810.72734375 672.2357421875 824.05 687.9
L 874.35 495.05
Q 830.5 553.25 804.4 601.2
M 783.3 566.6
Q 761.4 533.2 731.15 496.05
L 773.35 649.45
Q 776.72265625 651.8048828125 779.75 654.45 786.3205078125 636.7310546875 796.05 617.15 799.95 609.3 804.4 601.2 795.05 584.45 783.3 566.6
M 884.25 582.2
Q 881.95 542.35 874.35 495.05
L 824.05 687.9
Q 829.064453125 693.7876953125 832.85 700.7 854.1703125 698.035546875 876.35 697.6 883.307421875 670.4498046875 884.85 635.8 885.9 610.9 884.25 582.2
M 1336.15 1392.2
Q 1337.5 1390 1338.75 1387.8 1368.9404296875 1334.3330078125 1327.45 1284.05 1259.490234375 1341.2158203125 1178.6 1346.65 1180.6666015625 1359.4822265625 1178.5 1372.25 1255.6 1402.95 1336.15 1392.2
M 1338.75 1387.8
Q 1337.5 1390 1336.15 1392.2 1255.6 1402.95 1178.5 1372.25 1177.35 1379.05 1175 1385.85
L 1306.5 1443
Q 1333.5 1416.2 1338.75 1387.8
M 1395.8 1202.35
Q 1424.262109375 1207.21953125 1456.65 1210.55
L 1405.65 1181.55
Q 1401.3486328125 1191.826953125 1395.8 1202.35
M 1410.15 1059.6
Q 1416.398046875 1073.95234375 1419.05 1089.15 1454.4072265625 1077.1236328125 1494.75 1059.05
L 1410.15 1059.6
M 1413.8 1158.85
Q 1410.5080078125 1170.0388671875 1405.65 1181.55
L 1456.65 1210.55
Q 1434.5966796875 1182.3130859375 1413.8 1158.85
M 1386.45 1022.05
Q 1386.6865234375 1022.2384765625 1386.9 1022.4 1401.790625 1040.22734375 1410.15 1059.6
L 1494.75 1059.05
Q 1434.9099609375 1034.8837890625 1386.45 1022.05
M 1456.65 921
Q 1372.3 932.85 1314.95 951.95 1280.922265625 963.366015625 1256.4 977.35 1260.7708984375 993.280078125 1263.7 1009.8 1283.4625 1006.711328125 1307.8 1008.25
L 1456.65 921
M 1402.05 989.6
Q 1428.65 959.8 1456.65 921
L 1307.8 1008.25
Q 1325.376953125 1009.3904296875 1345.4 1012.9 1363.328515625 1011.0234375 1376.6 1016.5 1389.136328125 1004.1505859375 1402.05 989.6 Z"/>
</g>

<g id="boomer_0_Layer8_0_STROKES_1_FILL">
<path fill="#000000" stroke="none" d="
M 549.9 1176.35
L 529.2 1178.95 501.95 1184.5
Q 495.05 1186.15 488.45 1188.1 481.7 1190.1 475.6 1192.15 468.65 1194.55 463.45 1196.55
L 444.1 1204.7 423.7 1215
Q 417.85 1218.25 410.25 1222.75
L 398.9 1230
Q 395.4 1232.25 394.55 1236.3 393.7 1240.35 396 1243.85 398.25 1247.3 402.3 1248.15 406.35 1249 409.85 1246.75
L 420.7 1238.8
Q 426.05 1235.05 432.9 1230.65
L 441.1 1225.6 454.3 1218.25 469.4 1210.75
Q 475.25 1208.1 480.7 1205.8 486.15 1203.55 492.75 1201.15 499.1 1198.85 505.4 1196.85
L 511.9 1194.85 537.3 1188.55 552.45 1185.8 573.85 1183.1
Q 587.35 1181.85 601.15 1181.55
L 601.55 1181.5 617.45 1181.5
Q 617.7 1181.55 618.25 1181.55
L 626.8 1181.8
Q 637.2 1182.25 649.8 1183.4
L 653.75 1183.8 654.05 1183.8 685.55 1188.15 697 1190.2
Q 697.1 1190.3 697.1 1190.15 697.2 1190.05 697.05 1190.05
L 679.3 1185.75 654.45 1180.85 654.15 1180.75 650.2 1180.15
Q 637.9 1178.15 627.15 1177.05
L 618.5 1176.2
Q 618.25 1176.15 617.7 1176.15
L 612.85 1175.75
Q 611.75 1175.65 611.25 1175.65
L 607.95 1175.4 607.5 1175.4 607.1 1175.35
Q 606.55 1175.35 606.25 1175.3
L 601.2 1175.05
Q 586.9 1174.5 573.3 1174.85
L 561.65 1175.4
Q 561.35 1175.45 560.75 1175.45
L 549.9 1176.35
M 1366.2 1095.75
L 1341.15 1119.7 1334.75 1125.15
Q 1330.1 1128.95 1326.7 1131.65
L 1322.85 1134.6 1322.75 1134.7 1317.85 1138.35
Q 1308.5 1145.2 1297.95 1151.7
L 1276.25 1163.75 1270.3 1166.65 1269.55 1166.95
Q 1266.4 1168.45 1263.5 1169.65 1260.65 1170.95 1257.4 1172.2
L 1257.2 1172.25 1257.15 1172.3 1257.05 1172.35 1248.4 1175.6 1248 1175.7 1235.3 1179.8 1209 1185.8 1186.55 1188.5
Q 1186 1188.5 1185.75 1188.55
L 1176.9 1188.95 1176.55 1189 1176.2 1189
Q 1165.75 1189.25 1154.35 1188.6 1145.15 1188.05 1135.95 1186.8
L 1129.2 1185.85 1109.65 1182.05
Q 1109.55 1181.95 1109.55 1182.1 1109.45 1182.2 1109.6 1182.2
L 1135.65 1188.8
Q 1145.4 1190.75 1154.05 1191.85 1165.1 1193.3 1176.15 1193.8
L 1199.35 1193.65
Q 1199.6 1193.6 1200.15 1193.6 1200.4 1193.55 1200.95 1193.55
L 1204.2 1193.3
Q 1204.75 1193.3 1205.85 1193.2
L 1218.65 1191.8 1218.85 1191.75 1219.05 1191.75 1233.3 1189.35 1250.95 1185.15 1260.5 1182.3 1260.7 1182.2 1260.95 1182.15 1267.5 1179.95
Q 1270.6 1178.9 1274 1177.55
L 1304.7 1163.65
Q 1315.4 1158.05 1326.45 1151.1
L 1336.2 1144.75
Q 1341.05 1141.45 1345.1 1138.5
L 1356.8 1129.7 1380.1 1110.05 1380.15 1110
Q 1380.2 1109.95 1380.25 1109.85
L 1380.3 1109.85 1381.15 1109.05
Q 1384.2 1106.2 1384.35 1102.05 1384.45 1097.95 1381.65 1094.9 1378.8 1091.85 1374.65 1091.75 1370.5 1091.6 1367.5 1094.4
L 1366.25 1095.7 1366.3 1095.7 1366.2 1095.8 1366.2 1095.75
M 1055.55 1433.1
Q 1055.45 1433 1055.45 1433.15
L 986.45 1558.4
Q 985.8794921875 1558.458203125 985.3 1558.55 981.15 1559.25 978.75 1562.6 976.3 1566 976.95 1570.1 977.1 1571.25 977.55 1572.25
L 1010.75 1655.5
Q 1010.75 1655.65 1010.85 1655.55 1011 1655.55 1010.9 1655.45
L 998.45 1577.4
Q 999.439453125 1576.446875 1000.15 1575.15
L 1055.6 1433.2
Q 1055.7 1433.1 1055.55 1433.1
M 1132.45 1434.4
Q 1132.3 1434.4 1132.4 1434.5
L 1169.4 1564.35
Q 1170.55 1568.35 1174.15 1570.4 1177.8 1572.4 1181.8 1571.25 1185.8 1570.1 1187.8 1566.5 1189.8 1562.85 1188.65 1558.85 1188.5 1558.2 1188.15 1557.5
L 1132.55 1434.45
Q 1132.55 1434.3 1132.45 1434.4
M 890.9 1527.7
Q 890.7 1528.2 890.5 1529.2
L 867.55 1656.45
Q 867.45 1656.55 867.6 1656.55 867.7 1656.65 867.7 1656.5
L 909.85 1534.25
Q 911.2 1530.3 909.4 1526.6 907.55 1522.85 903.65 1521.5 899.7 1520.15 896 1522 892.25 1523.8 890.9 1527.7
M 731.05 1580.55
Q 731.15 1580.65 731.2 1580.55
L 852.4 1471.85
Q 855.5 1469.05 855.7 1464.95 855.9 1460.75 853.15 1457.7 850.35 1454.6 846.25 1454.4 842.1 1454.2 839 1456.95
L 838.15 1457.8 731.05 1580.4
Q 731 1580.5 731.05 1580.55
M 1262.35 1067.6
Q 1265.3 1070.55 1269.45 1070.55
L 1270.4 1060.65 1270.4 1060.45 1269.45 1050.55
Q 1265.3 1050.55 1262.35 1053.45 1259.45 1056.4 1259.45 1060.55 1259.45 1064.7 1262.35 1067.6
M 285.25 1230.6
L 285.4 1230.6 344.45 1207.5
Q 348.35 1205.95 350 1202.15 351.7 1198.3 350.15 1194.4 348.65 1190.5 344.8 1188.8 340.95 1187.1 337.05 1188.65 335.5 1189.25 334.3 1190.25
L 285.25 1230.45 285.25 1230.6
M 416.15 1084.75
Q 413.4 1081.65 409.25 1081.4
L 247.2 1092.4 247.15 1092.5 247.25 1092.55 408.15 1101.4
Q 412.3 1101.65 415.4 1098.9 418.5 1096.1 418.7 1091.95 418.95 1087.85 416.15 1084.75
M 467 1036.5
Q 466.1 1032.45 462.6 1030.25
L 285.35 940.9
Q 285.25 940.9 285.25 940.95 285.15 941.05 285.3 941.05
L 451.85 1047.1
Q 455.35 1049.35 459.4 1048.45 463.45 1047.55 465.65 1044.05 467.9 1040.55 467 1036.5
M 546.8 880.25
Q 546.8 880.1 546.7 880.2
L 391.75 925.5
Q 387.75 926.65 385.75 930.3 383.8 933.95 384.95 937.95 386.1 941.95 389.75 943.9 393.4 945.9 397.35 944.75
L 398.5 944.35 546.75 880.35
Q 546.9 880.35 546.8 880.25
M 532.6 617.05
Q 530.6 620.65 531.7 624.65
L 590.4 760.65
Q 590.4 760.8 590.5 760.7 590.65 760.7 590.55 760.6
L 551 619.25
Q 549.9 615.25 546.25 613.2 542.65 611.2 538.65 612.3 534.65 613.45 532.6 617.05
M 392.7 760.45
Q 394.05 764.4 397.75 766.25
L 539.85 814.75
Q 539.95 814.85 539.95 814.7 540.05 814.6 539.9 814.6
L 406.65 748.3
Q 402.95 746.45 399 747.8 395.1 749.1 393.25 752.8 391.4 756.5 392.7 760.45
M 879.1 704.65
Q 882.05 707.55 886.2 707.5 890.35 707.4 893.25 704.45
L 888.05 695.6 887.9 695.45 878.9 690.5
Q 876 693.45 876.1 697.6 876.15 701.75 879.1 704.65
M 947.3 649.7
Q 948.15 648.95 948.7 648.25
L 1010.9 571.1 1010.9 570.95
Q 1010.85 570.9 1010.75 570.95
L 934.45 634.2
Q 931.25 636.85 930.9 641 930.5 645.15 933.15 648.35 935.75 651.55 939.95 651.95 944.05 652.35 947.3 649.7
M 704.65 627.45
L 704.1 628.75 659.15 764.65
Q 659.05 764.75 659.2 764.75 659.3 764.85 659.3 764.7
L 722.65 636.3
Q 724.5 632.6 723.15 628.65 721.8 624.75 718.05 622.9 714.35 621.05 710.4 622.4 706.5 623.75 704.65 627.45
M 731.1 495.95
Q 730.95 495.95 731.05 496.05
L 763.75 652.15
Q 764.55 656.2 768.05 658.45 771.55 660.75 775.6 659.9 779.65 659.05 781.95 655.55 784.2 652.1 783.35 648
L 731.2 496
Q 731.2 495.85 731.1 495.95
M 874.35 494.95
Q 874.25 494.85 874.25 495
L 814.35 685.35
Q 813.1 689.35 815 693 816.95 696.65 820.9 697.9 824.85 699.15 828.55 697.25 832.2 695.3 833.45 691.35
L 874.4 495.05
Q 874.5 494.95 874.35 494.95
M 1316 1447.85
Q 1317.9 1444.2 1316.65 1440.2 1315.45 1436.25 1311.75 1434.35
L 1175 1385.75
Q 1174.9 1385.65 1174.9 1385.8 1174.8 1385.9 1174.95 1385.9
L 1302.5 1452.15
Q 1306.2 1454.05 1310.15 1452.8 1314.1 1451.55 1316 1447.85
M 1396.3 1174.35
Q 1393.65 1177.6 1394.05 1181.8 1394.5 1185.95 1397.75 1188.6 1399.1 1189.7 1400.7 1190.25
L 1456.6 1210.6
Q 1456.7 1210.7 1456.7 1210.55
L 1456.65 1210.45 1410.55 1172.9
Q 1407.3 1170.25 1403.15 1170.65 1398.95 1171.1 1396.3 1174.35
M 1407.9 1069.6
Q 1408.9 1069.75 1410.25 1069.55
L 1494.75 1059.1 1494.8 1059 1494.7 1058.95 1410.1 1049.6
Q 1405.95 1049.1 1402.7 1051.75 1399.45 1054.35 1399 1058.5 1398.55 1062.65 1401.15 1065.9 1403.75 1069.15 1407.9 1069.6
M 1456.7 920.9
L 1456.55 920.9 1302.7 999.6
Q 1299.05 1001.5 1297.75 1005.45 1296.5 1009.4 1298.35 1013.1 1300.25 1016.8 1304.2 1018.05 1308.15 1019.3 1311.85 1017.45
L 1456.7 921.05
Q 1456.75 920.95 1456.7 920.9 Z"/>
</g>

<g id="boomer_0_Layer7_0_FILL">
<path fill="#FFFFFF" stroke="none" d="
M 1402.05 989.15
Q 1428.65 959.35 1456.65 920.55
L 1266.4 1026.95 1456.65 920.55
Q 1372.3 932.4 1314.95 951.5 1245.5 974.8 1215.8 1008.8 1198.4 1028.65 1194.6 1052.25 1192.3 1056.25 1190.3 1060.6
L 1494.75 1058.6
Q 1427.15 1031.3 1374.1 1018.5 1387.85 1005.15 1402.05 989.15
M 1193.55 1065.75
Q 1193.6 1070.1 1194 1074.55
L 1198.2 1072.05
Q 1195.8 1068.95 1193.55 1065.75
M 1194 1074.55
Q 1199.5 1077.5 1205.05 1079.85 1201.45 1076.1 1198.2 1072.05
L 1194 1074.55
M 1456.65 1210.1
Q 1405.65 1144.8 1361.5 1105.15 1318.7 1114.6 1285.2 1112.65
L 1456.65 1210.1
M 1369.9 1197.05
Q 1409 1205.2 1456.65 1210.1
L 1285.2 1112.65
Q 1244.4 1110.25 1217.65 1090.75 1210.95 1085.8 1205.05 1079.85 1199.5 1077.5 1194 1074.55 1193.6 1070.1 1193.55 1065.75 1192.9 1064.65 1192.2 1063.65 1193.3 1082.65 1200.7 1099.4 1231.3 1168.4 1369.9 1197.05
M 1361.5 1105.15
Q 1385.8 1099.75 1413.1 1090.7 1451 1078.2 1494.75 1058.6
L 1190.3 1060.6
Q 1191.2 1062.15 1192.2 1063.65 1192.9 1064.65 1193.55 1065.75 1195.8 1068.95 1198.2 1072.05 1201.45 1076.1 1205.05 1079.85 1210.95 1085.8 1217.65 1090.75 1244.4 1110.25 1285.2 1112.65 1318.7 1114.6 1361.5 1105.15
M 1017.6 1510.15
Q 1013.1 1437 987.95 1399.5 973.25 1377.55 951.45 1367.8 973.35 1389.95 975.6 1423.3 977.5 1451.85 965.05 1488.65
L 1010.85 1655.05
Q 1021.25 1570.45 1017.6 1510.15
M 857.15 1515.3
Q 859.1 1471.5 869.65 1439.7
L 731.15 1580.05
Q 807.45 1547.7 857.15 1515.3
M 965.05 1488.65
Q 957.9 1509.9 945.95 1533.95 942.05 1541.8 937.6 1549.9 946.95 1566.65 958.7 1584.5 980.6 1617.9 1010.85 1655.05
L 965.05 1488.65
M 951.45 1367.8
Q 948.2 1364.5 944.5 1361.45
L 867.65 1656.05
Q 911.5 1597.85 937.6 1549.9 942.05 1541.8 945.95 1533.95 957.9 1509.9 965.05 1488.65 977.5 1451.85 975.6 1423.3 973.35 1389.95 951.45 1367.8
M 922.1 1370.75
Q 925.8 1365.95 930.1 1361.45 934.5 1362.2 938.7 1363.3 939.9 1362.9 941.05 1362.5 922.4 1358.65 904.35 1361.45 829.75 1373.15 766.2 1499.65 748.25 1535.3 731.15 1580.05
L 869.65 1439.7
Q 882.55 1400.9 908.3 1380.1 914.8 1374.85 922.1 1370.75
M 931.4 1366.15
Q 926.6 1368.25 922.1 1370.75 914.8 1374.85 908.3 1380.1 882.55 1400.9 869.65 1439.7 859.1 1471.5 857.15 1515.3 856.1 1540.2 857.75 1568.9 860.05 1608.75 867.65 1656.05
L 944.5 1361.45
Q 942.75 1361.95 941.05 1362.5 939.9 1362.9 938.7 1363.3 935 1364.6 931.4 1366.15
M 931.4 1366.15
L 930.1 1361.45
Q 925.8 1365.95 922.1 1370.75 926.6 1368.25 931.4 1366.15
M 930.1 1361.45
L 931.4 1366.15
Q 935 1364.6 938.7 1363.3 934.5 1362.2 930.1 1361.45
M 526.2 1141.85
Q 543.6 1122 547.4 1098.4 531.7 1125.3 500.05 1136.05 472.95 1145.3 434.2 1142.85
L 285.35 1230.1
Q 369.7 1218.25 427.05 1199.15 496.5 1175.85 526.2 1141.85
M 536.95 1070.8
Q 542.5 1073.15 548 1076.1 548.4 1080.55 548.45 1084.9 549.1 1086 549.8 1087 548.7 1068 541.3 1051.25 510.7 982.25 372.1 953.6 333 945.45 285.35 940.55
L 456.8 1038
Q 497.6 1040.4 524.35 1059.9 531.05 1064.85 536.95 1070.8
M 543.8 1078.6
Q 546.2 1081.7 548.45 1084.9 548.4 1080.55 548 1076.1
L 543.8 1078.6
M 536.95 1070.8
Q 540.55 1074.55 543.8 1078.6
L 548 1076.1
Q 542.5 1073.15 536.95 1070.8
M 380.5 1045.5
Q 423.3 1036.05 456.8 1038
L 285.35 940.55
Q 336.35 1005.85 380.5 1045.5
M 385.5 1136.1
Q 376.9 1134.35 367.9 1132.15 354.15 1145.5 339.95 1161.5 313.35 1191.3 285.35 1230.1
L 434.2 1142.85
Q 411.85 1141.4 385.5 1136.1
M 367.9 1132.15
Q 376.9 1134.35 385.5 1136.1 411.85 1141.4 434.2 1142.85 472.95 1145.3 500.05 1136.05 531.7 1125.3 547.4 1098.4 549.7 1094.4 551.7 1090.05
L 247.25 1092.05
Q 314.85 1119.35 367.9 1132.15
M 380.5 1045.5
Q 356.2 1050.9 328.9 1059.95 291 1072.45 247.25 1092.05
L 551.7 1090.05
Q 550.8 1088.5 549.8 1087 549.1 1086 548.45 1084.9 546.2 1081.7 543.8 1078.6 540.55 1074.55 536.95 1070.8 531.05 1064.85 524.35 1059.9 497.6 1040.4 456.8 1038 423.3 1036.05 380.5 1045.5
M 884.85 635.35
Q 882.9 679.15 872.35 710.95
L 1010.85 570.6
Q 934.55 602.95 884.85 635.35
M 811.9 789.2
L 810.6 784.5
Q 807 786.05 803.3 787.35 807.5 788.45 811.9 789.2
M 811.9 789.2
Q 816.2 784.7 819.9 779.9 815.4 782.4 810.6 784.5
L 811.9 789.2
M 790.55 782.85
Q 768.65 760.7 766.4 727.35 764.5 698.8 776.95 662
L 731.15 495.6
Q 720.75 580.2 724.4 640.5 728.9 713.65 754.05 751.15 768.75 773.1 790.55 782.85
M 803.3 787.35
Q 802.1 787.75 800.95 788.15 819.6 792 837.65 789.2 912.25 777.5 975.8 651 993.75 615.35 1010.85 570.6
L 872.35 710.95
Q 859.45 749.75 833.7 770.55 827.2 775.8 819.9 779.9 816.2 784.7 811.9 789.2 807.5 788.45 803.3 787.35
M 804.4 600.75
Q 799.95 608.85 796.05 616.7 784.1 640.75 776.95 662 764.5 698.8 766.4 727.35 768.65 760.7 790.55 782.85 793.8 786.15 797.5 789.2
L 874.35 494.6
Q 830.5 552.8 804.4 600.75
M 783.3 566.15
Q 761.4 532.75 731.15 495.6
L 776.95 662
Q 784.1 640.75 796.05 616.7 799.95 608.85 804.4 600.75 795.05 584 783.3 566.15
M 884.25 581.75
Q 881.95 541.9 874.35 494.6
L 797.5 789.2
Q 799.25 788.7 800.95 788.15 802.1 787.75 803.3 787.35 807 786.05 810.6 784.5 815.4 782.4 819.9 779.9 827.2 775.8 833.7 770.55 859.45 749.75 872.35 710.95 882.9 679.15 884.85 635.35 885.9 610.45 884.25 581.75 Z"/>
</g>

<g id="boomer_0_Layer7_0_STROKES_1_FILL">
<path fill="#000000" stroke="none" d="
M 962 1486.75
Q 961.25 1488 961.6 1489.4
L 1010.75 1655.05
Q 1010.75 1655.2 1010.85 1655.1 1011 1655.1 1010.9 1655
L 968.4 1487.7
Q 968.05 1486.3 966.8 1485.55 965.55 1484.8 964.15 1485.15 962.75 1485.5 962 1486.75
M 731.05 1580.1
Q 731.15 1580.2 731.2 1580.1
L 872.1 1442.15
Q 873.15 1441.15 873.15 1439.7 873.15 1438.2 872.15 1437.2 871.15 1436.15 869.7 1436.15 868.25 1436.15 867.2 1437.15
L 731.05 1579.95
Q 731 1580.05 731.05 1580.1
M 941.1 1360.45
L 941.1 1360.55 867.55 1656
Q 867.45 1656.1 867.6 1656.1 867.7 1656.2 867.7 1656.05
L 947.85 1362.3
Q 948.25 1360.9 947.5 1359.65 946.8 1358.4 945.4 1358 944 1357.65 942.75 1358.35 941.5 1359.05 941.1 1360.45
M 925.3 1360.25
Q 925.7 1361.5 926.7 1362.35
L 931.3 1366.15
Q 931.4 1366.25 931.45 1366.15
L 931.45 1366.1 933.45 1360.5
Q 934.05 1358.85 933.3 1357.25 932.5 1355.65 930.85 1355.05 929.2 1354.45 927.6 1355.25 926 1356 925.4 1357.65 924.95 1358.95 925.3 1360.25
M 1191.6 1080
Q 1192.95 1080.1 1194.1 1079.4 1195.2 1078.75 1195.75 1077.55
L 1198.25 1072.1
Q 1198.25 1072 1198.15 1071.95
L 1192.2 1071.5
Q 1190.45 1071.4 1189.1 1072.55 1187.75 1073.7 1187.65 1075.45 1187.5 1077.2 1188.65 1078.55 1189.85 1079.9 1191.6 1080
M 554.2 1087.55
Q 553.2 1086.55 551.75 1086.5
L 551.65 1086.55 247.2 1091.95 247.15 1092.05 247.25 1092.1 551.7 1093.5
Q 553.15 1093.55 554.2 1092.5 555.2 1091.5 555.2 1090.05 555.2 1088.6 554.2 1087.55
M 546.2 1073.05
L 543.7 1078.5
Q 543.7 1078.6 543.8 1078.65
L 549.75 1079.1
Q 551.5 1079.2 552.85 1078.05 554.2 1076.9 554.3 1075.15 554.45 1073.4 553.3 1072.05 552.1 1070.7 550.35 1070.6 549 1070.5 547.85 1071.2 546.75 1071.85 546.2 1073.05
M 432.5 1139.75
L 432.4 1139.8 285.25 1230 285.25 1230.15
Q 285.35 1230.2 285.4 1230.15
L 435.95 1145.85
Q 437.2 1145.15 437.6 1143.75 438 1142.35 437.3 1141.1 436.6 1139.85 435.2 1139.45 433.8 1139.05 432.5 1139.75
M 460.2 1037.15
Q 459.85 1035.75 458.6 1035
L 285.35 940.45
Q 285.25 940.45 285.25 940.5 285.15 940.6 285.3 940.6
L 455.05 1041
Q 456.3 1041.75 457.7 1041.4 459.1 1041.05 459.85 1039.8 460.55 1038.55 460.2 1037.15
M 816.65 790.35
Q 816.25 789.1 815.25 788.25
L 810.65 784.45
Q 810.6 784.4 810.5 784.45
L 810.5 784.5 808.5 790.1
Q 807.9 791.8 808.7 793.35 809.45 794.95 811.1 795.55 812.8 796.15 814.35 795.4 815.95 794.6 816.55 792.95 817 791.65 816.65 790.35
M 872.25 714.45
Q 873.7 714.45 874.75 713.45
L 1010.9 570.65
Q 1011 570.6 1010.9 570.5 1010.85 570.45 1010.75 570.5
L 869.85 708.45
Q 868.8 709.45 868.8 710.95 868.8 712.4 869.8 713.4 870.8 714.45 872.25 714.45
M 731.1 495.5
Q 730.95 495.5 731.05 495.6
L 773.55 662.9
Q 773.9 664.3 775.15 665.05 776.4 665.8 777.8 665.45 779.2 665.1 779.95 663.85 780.7 662.6 780.35 661.2
L 731.2 495.55
Q 731.2 495.4 731.1 495.5
M 874.35 494.5
Q 874.25 494.4 874.25 494.55
L 794.1 788.3
Q 793.75 789.7 794.45 790.95 795.15 792.25 796.55 792.6 797.95 793 799.2 792.25 800.5 791.55 800.85 790.15
L 800.85 790.05 874.4 494.6
Q 874.5 494.5 874.35 494.5
M 1456.7 1210.1
Q 1456.8 1210 1456.65 1210
L 1286.9 1109.6
Q 1285.65 1108.85 1284.25 1109.2 1282.85 1109.55 1282.1 1110.8 1281.4 1112.1 1281.75 1113.45 1282.1 1114.85 1283.35 1115.6
L 1456.6 1210.15
Q 1456.7 1210.15 1456.7 1210.1
M 1494.8 1058.55
L 1494.7 1058.5 1190.25 1057.1
Q 1188.8 1057.05 1187.75 1058.1 1186.75 1059.1 1186.75 1060.55 1186.75 1062 1187.75 1063.05 1188.75 1064.05 1190.2 1064.1
L 1190.3 1064.05 1494.75 1058.65 1494.8 1058.55
M 1456.7 920.5
Q 1456.7 920.45 1456.6 920.45
L 1264.65 1023.85
Q 1263.4 1024.55 1263 1025.95 1262.55 1027.3 1263.25 1028.6 1263.95 1029.9 1265.35 1030.3 1266.75 1030.75 1268 1030.05
L 1268.1 1030 1456.65 920.6
Q 1456.75 920.5 1456.7 920.5 Z"/>
</g>

<g id="boomer_0_Layer6_0_FILL">
<path fill="#FFFFFF" stroke="none" d="
M 906.75 772.2
Q 889.75 772.4 876.1 775.2
L 876.1 914.3 838.7 914.3
Q 848.35 938.3 863.3 966.35
L 1117.05 966.35
Q 1113.05 957 1108.5 946.5 1103.6 935.2 1098.1 922.55 1299.5 844.4 1198.55 751.65 1097.6 658.9 983.85 640.75 870.1 622.65 906.75 772.2 Z"/>
</g>

<g id="boomer_0_Layer5_0_FILL">
<path fill="#FFFFFF" stroke="none" d="
M 1181.5 630.25
Q 1180.8 621.95 1176.6 612.95 1159 627 1145.45 643.9 1146.6 648.05 1146.9 652 1147.45 658.45 1145.9 664.45 1160 657 1176.4 652.45 1182.5 642.05 1181.5 630.25
M 1215.65 645.8
Q 1223.9 634.15 1222.75 620.55 1221.6 606.55 1210.45 590.55 1192 600.6 1176.6 612.95 1180.8 621.95 1181.5 630.25 1182.5 642.05 1176.4 652.45 1194.6 647.35 1215.65 645.8
M 1241.9 575.85
Q 1225.2 582.5 1210.45 590.55 1221.6 606.55 1222.75 620.55 1223.9 634.15 1215.65 645.8 1229.5 644.8 1244.55 645.3 1260.35 630.4 1258.75 612 1257.4 595.35 1241.9 575.85
M 1265.9 567.3
Q 1253.4 571.25 1241.9 575.85 1257.4 595.35 1258.75 612 1260.35 630.4 1244.55 645.3 1256.8 645.75 1269.8 647.15 1271.55 647.35 1273.35 647.6 1291.8 631.85 1290.1 612 1288.45 591.8 1265.9 567.3
M 1181.65 776.75
Q 1080.7 684 966.95 665.85 853.2 647.75 889.85 797.3 872.85 797.5 859.2 800.3
L 859.2 939.4 821.8 939.4
Q 831.45 963.4 846.4 991.45 847.95 994.35 849.55 997.3
L 1129.5 1067.55
Q 1134.1 1070.75 1100.15 991.45 1096.15 982.1 1091.6 971.6 1086.7 960.3 1081.2 947.65 1282.6 869.5 1181.65 776.75 Z"/>
</g>

<g id="boomer_0_Layer4_0_FILL">
<path fill="#FFFFFF" stroke="none" d="
M 863.9 867.7
Q 862.65859375 869.901953125 861.3 872.1 780.7533203125 882.8703125 703.65 852.15 701.940625 862.1646484375 697.65 872.15 695.8888671875 876.2404296875 693.8 880 757.794140625 914.122265625 799.9 972.6 794.0302734375 994.7080078125 781.95 1009.65 793.885546875 1004.15 802.95 996.05 830.4 971.5 831.65 922.9
L 758.15 891.25 831.65 922.9
Q 858.6443359375 896.1013671875 863.9 867.7
M 587.3 1057.15
Q 607.733984375 1069.7625 627.7 1071.95 666.7126953125 1076.268359375 703.95 1040.85
L 674.35 966.5 703.95 1040.85
Q 756.6248046875 1041.0533203125 781.95 1009.65 794.0302734375 994.7080078125 799.9 972.6 757.794140625 914.122265625 693.8 880 679.7150390625 905.8462890625 651.45 917.1 625.4376953125 927.4728515625 599.65 920.55 577.9939453125 987.556640625 587.3 1057.15
M 566.15 903.55
Q 554.30390625 893.791796875 546.75 879.85
L 395.15 934.5
Q 394.9310546875 1002.5349609375 447.45 1025 454.923046875 1028.1798828125 463.45 1030.45 531.18671875 981.6322265625 566.15 903.55
M 599.65 920.55
Q 593.369140625 918.86328125 587.1 916.15 575.3390625 911.104296875 566.15 903.55 531.18671875 981.6322265625 463.45 1030.45 454.923046875 1028.1798828125 447.45 1025 471.876171875 1048.5515625 516.8 1049.65
L 548.4 976.15 516.8 1049.65
Q 551.05 1084.1 587.9 1083.05 607.448046875 1082.5181640625 627.7 1071.95 607.733984375 1069.7625 587.3 1057.15 577.9939453125 987.556640625 599.65 920.55
M 546.75 879.85
Q 544.23828125 875.181640625 542.2 870.05 535.719921875 853.7744140625 535.95 837.6 459.1072265625 807.128515625 378.8 817.9 373.3599609375 826.7015625 369.85 835.4 349.3244140625 886.4537109375 395.15 934.5
L 546.75 879.85
M 535.95 837.6
Q 536.1626953125 825.891796875 539.85 814.2
L 402.85 757.1
Q 364.9505859375 794.6904296875 369.85 835.4 373.3599609375 826.7015625 378.8 817.9 459.1072265625 807.128515625 535.95 837.6
M 590.5 760.2
Q 615.7455078125 750.556640625 640.75 757.15 668.6123046875 683.05703125 658.25 605.8 651.5478515625 601.6666015625 644.9 598.65 591.6083984375 574.49765625 541.6 622.15
L 590.5 760.2
M 445.7 690.5
Q 448.669921875 679.34453125 453.2 670 404.442578125 692.0560546875 402.85 757.1
L 539.85 814.2
Q 541.2421875 809.9146484375 543.1 805.6 548.073046875 794.0263671875 555.45 784.95 489.0314453125 750.637890625 445.7 690.5
M 453.2 670
Q 448.669921875 679.34453125 445.7 690.5 489.0314453125 750.637890625 555.45 784.95 568.550390625 768.934375 589.2 760.7 589.8490234375 760.4416015625 590.5 760.2
L 541.6 622.15
Q 476.586328125 621.9826171875 453.2 670
M 653.65 761.6
Q 656.5087890625 762.8328125 659.2 764.2
L 713.4 632.1
Q 680.378515625 598.8671875 644.9 598.65 651.5478515625 601.6666015625 658.25 605.8 668.6123046875 683.05703125 640.75 757.15 647.2224609375 758.832421875 653.65 761.6
M 678.2 777.4
Q 669.8943359375 769.6642578125 659.2 764.2 656.5087890625 762.8328125 653.65 761.6 647.2224609375 758.832421875 640.75 757.15 615.7455078125 750.556640625 590.5 760.2 589.8490234375 760.4416015625 589.2 760.7 568.550390625 768.934375 555.45 784.95 548.073046875 794.0263671875 543.1 805.6 541.2421875 809.9146484375 539.85 814.2 536.1626953125 825.891796875 535.95 837.6 535.719921875 853.7744140625 542.2 870.05 544.23828125 875.181640625 546.75 879.85 554.30390625 893.791796875 566.15 903.55 575.3390625 911.104296875 587.1 916.15 593.369140625 918.86328125 599.65 920.55 625.4376953125 927.4728515625 651.45 917.1 679.7150390625 905.8462890625 693.8 880 695.8888671875 876.2404296875 697.65 872.15 701.940625 862.1646484375 703.65 852.15 707.390234375 830.05546875 698.55 807.8 691.3498046875 789.7158203125 678.2 777.4
M 788.95 663.4
Q 783.153125 661.205859375 776.75 659.5 712.982421875 705.483984375 678.2 777.4 691.3498046875 789.7158203125 698.55 807.8 707.390234375 830.05546875 703.65 852.15 780.7533203125 882.8703125 861.3 872.1 862.65859375 869.901953125 863.9 867.7 896.649609375 809.6994140625 845.05 755.45
L 770.7 785.05 845.05 755.45
Q 845.23125 685.0130859375 788.95 663.4
M 776.75 659.5
Q 783.153125 661.205859375 788.95 663.4 764.3736328125 633.312890625 713.4 632.1
L 659.2 764.2
Q 669.8943359375 769.6642578125 678.2 777.4 712.982421875 705.483984375 776.75 659.5
M 1256.8 1529.3
Q 1268.8802734375 1514.3580078125 1274.75 1492.25 1232.644140625 1433.772265625 1168.65 1399.65 1156.1484375 1422.598828125 1132.45 1434.05
L 1178.8 1560.5
Q 1231.4748046875 1560.7033203125 1256.8 1529.3
M 1172.5 1391.8
Q 1170.7388671875 1395.8904296875 1168.65 1399.65 1232.644140625 1433.772265625 1274.75 1492.25 1268.8802734375 1514.3580078125 1256.8 1529.3 1268.735546875 1523.8 1277.8 1515.7 1305.25 1491.15 1306.5 1442.55
L 1174.95 1385.4
Q 1173.875390625 1388.59921875 1172.5 1391.8
M 1126.3 1436.75
Q 1100.2876953125 1447.1228515625 1074.5 1440.2 1052.8439453125 1507.206640625 1062.15 1576.8 1082.583984375 1589.4125 1102.55 1591.6 1141.5626953125 1595.918359375 1178.8 1560.5
L 1132.45 1434.05
Q 1129.4716796875 1435.487109375 1126.3 1436.75
M 1074.5 1440.2
Q 1068.219140625 1438.51328125 1061.95 1435.8 1058.633984375 1434.37734375 1055.5 1432.75
L 991.65 1569.3
Q 1025.9 1603.75 1062.75 1602.7 1082.298046875 1602.1681640625 1102.55 1591.6 1082.583984375 1589.4125 1062.15 1576.8 1052.8439453125 1507.206640625 1074.5 1440.2
M 1173.4 1327.45
Q 1166.1998046875 1309.3658203125 1153.05 1297.05 1142.6392578125 1287.3474609375 1128.5 1281.25 1122.0724609375 1278.482421875 1115.6 1276.8 1105.92890625 1274.245703125 1096.2 1274.1 1080.1693359375 1273.9322265625 1064.05 1280.35 1043.400390625 1288.584375 1030.3 1304.6 1029.7599609375 1305.29296875 1029.2 1306 1022.543359375 1314.5599609375 1017.95 1325.25 1011.0822265625 1341.2001953125 1010.8 1357.25 1010.569921875 1373.4244140625 1017.05 1389.7 1025.1845703125 1410.17890625 1041 1423.2 1047.6052734375 1428.6244140625 1055.5 1432.75 1058.633984375 1434.37734375 1061.95 1435.8 1068.219140625 1438.51328125 1074.5 1440.2 1100.2876953125 1447.1228515625 1126.3 1436.75 1129.4716796875 1435.487109375 1132.45 1434.05 1156.1484375 1422.598828125 1168.65 1399.65 1170.7388671875 1395.8904296875 1172.5 1391.8 1173.875390625 1388.59921875 1174.95 1385.4 1177.338671875 1378.604296875 1178.5 1371.8 1182.240234375 1349.70546875 1173.4 1327.45
M 938.3 1550.1
Q 929.773046875 1547.8298828125 922.3 1544.65 946.726171875 1568.2015625 991.65 1569.3
L 1055.5 1432.75
Q 1047.6052734375 1428.6244140625 1041 1423.2 1006.03671875 1501.2822265625 938.3 1550.1
M 853.65 1337.55
Q 848.2099609375 1346.3515625 844.7 1355.05 824.1744140625 1406.1037109375 870 1454.15
L 944.35 1424.6 870 1454.15
Q 869.7810546875 1522.1849609375 922.3 1544.65 929.773046875 1547.8298828125 938.3 1550.1 1006.03671875 1501.2822265625 1041 1423.2 1025.1845703125 1410.17890625 1017.05 1389.7 1010.569921875 1373.4244140625 1010.8 1357.25 933.9572265625 1326.778515625 853.65 1337.55
M 920.55 1210.15
Q 923.519921875 1198.99453125 928.05 1189.65 879.292578125 1211.7060546875 877.7 1276.75
L 951.15 1308.4 877.7 1276.75
Q 874.71015625 1279.7154296875 871.95 1282.7 861.4900390625 1294.205078125 854.95 1306 841.6767578125 1329.9390625 844.7 1355.05 848.2099609375 1346.3515625 853.65 1337.55 933.9572265625 1326.778515625 1010.8 1357.25 1011.0822265625 1341.2001953125 1017.95 1325.25 1022.543359375 1314.5599609375 1029.2 1306 1029.7599609375 1305.29296875 1030.3 1304.6 1011.1947265625 1294.7208984375 993.95 1282.7 951.40546875 1252.973046875 920.55 1210.15
M 1119.75 1118.3
Q 1126.3978515625 1121.3166015625 1133.1 1125.45 1143.4623046875 1202.70703125 1115.6 1276.8 1122.0724609375 1278.482421875 1128.5 1281.25 1142.6392578125 1287.3474609375 1153.05 1297.05 1187.832421875 1225.133984375 1251.6 1179.15 1258.003125 1180.855859375 1263.8 1183.05 1239.2236328125 1152.962890625 1188.25 1151.75
L 1156.65 1225.2 1188.25 1151.75
Q 1155.228515625 1118.5171875 1119.75 1118.3
M 1016.45 1141.8
Q 1015.469921875 1141.7974609375 1014.5 1141.8 951.0841796875 1142.3564453125 928.05 1189.65 923.519921875 1198.99453125 920.55 1210.15 951.40546875 1252.973046875 993.95 1282.7 1011.1947265625 1294.7208984375 1030.3 1304.6 1043.400390625 1288.584375 1064.05 1280.35 1080.1693359375 1273.9322265625 1096.2 1274.1 1105.92890625 1274.245703125 1115.6 1276.8 1143.4623046875 1202.70703125 1133.1 1125.45 1126.3978515625 1121.3166015625 1119.75 1118.3 1107.894140625 1112.9267578125 1096.2 1111.1 1055.3328125 1104.7490234375 1016.45 1141.8
L 1046.05 1216.1 1016.45 1141.8
M 1336.15 1391.75
Q 1337.50859375 1389.551953125 1338.75 1387.35 1371.499609375 1329.3494140625 1319.9 1275.1
L 1245.55 1304.7 1319.9 1275.1
Q 1320.08125 1204.6630859375 1263.8 1183.05 1258.003125 1180.855859375 1251.6 1179.15 1187.832421875 1225.133984375 1153.05 1297.05 1166.1998046875 1309.3658203125 1173.4 1327.45 1182.240234375 1349.70546875 1178.5 1371.8 1255.6033203125 1402.5203125 1336.15 1391.75
M 1306.5 1442.55
Q 1333.4943359375 1415.7513671875 1338.75 1387.35 1337.50859375 1389.551953125 1336.15 1391.75 1255.6033203125 1402.5203125 1178.5 1371.8 1177.338671875 1378.604296875 1174.95 1385.4
L 1306.5 1442.55 Z"/>
</g>

<g id="boomer_0_Layer4_0_STROKES_1_FILL">
<path fill="#000000" stroke="none" d="
M 1055.55 1432.65
Q 1055.45 1432.55 1055.45 1432.7
L 988.45 1567.8
Q 987.8 1569.1 988.3 1570.45 988.75 1571.85 990.05 1572.5 991.35 1573.15 992.7 1572.7 994.1 1572.2 994.75 1570.9
L 994.8 1570.75 1055.6 1432.75
Q 1055.7 1432.65 1055.55 1432.65
M 1132.45 1433.95
Q 1132.3 1433.95 1132.4 1434.05
L 1175.5 1561.7
Q 1175.95 1563.05 1177.25 1563.7 1178.55 1564.35 1179.95 1563.85 1181.3 1563.4 1181.95 1562.1 1182.6 1560.8 1182.1 1559.45
L 1182.05 1559.25 1132.55 1434
Q 1132.55 1433.85 1132.45 1433.95
M 944.4 1424.55
Q 944.4 1424.4 944.3 1424.5
L 868.7 1450.85
Q 867.3 1451.35 866.7 1452.65 866.05 1453.95 866.55 1455.35 867 1456.7 868.3 1457.35 869.6 1457.95 871 1457.5
L 944.35 1424.65
Q 944.5 1424.65 944.4 1424.55
M 876 1279.8
L 876.3 1279.95 951.1 1308.45
Q 951.2 1308.55 951.2 1308.4 951.3 1308.3 951.15 1308.3
L 879.05 1273.5
Q 877.75 1272.85 876.35 1273.35 875 1273.85 874.4 1275.15 873.75 1276.45 874.25 1277.85 874.7 1279.2 876 1279.8
M 674.3 966.4
Q 674.15 966.4 674.25 966.5
L 700.65 1042.1
Q 701.15 1043.5 702.45 1044.1 703.75 1044.75 705.15 1044.25 706.5 1043.8 707.15 1042.5 707.8 1041.2 707.3 1039.8
L 674.4 966.45
Q 674.4 966.3 674.3 966.4
M 833.3 919.8
L 833 919.65 758.15 891.15
Q 758.05 891.05 758.05 891.2 757.95 891.3 758.1 891.3
L 830.25 926.1
Q 831.55 926.75 832.95 926.25 834.3 925.75 834.9 924.45 835.55 923.15 835.1 921.75 834.6 920.4 833.3 919.8
M 1185.15 1150.05
L 1185 1150.35 1156.55 1225.15
Q 1156.45 1225.25 1156.6 1225.25 1156.7 1225.35 1156.7 1225.2
L 1191.45 1153.1
Q 1192.1 1151.8 1191.6 1150.4 1191.1 1149.05 1189.8 1148.45 1188.5 1147.8 1187.1 1148.3 1185.75 1148.75 1185.15 1150.05
M 1013.2 1140.1
Q 1012.55 1141.4 1013.05 1142.8
L 1045.95 1216.1
Q 1045.95 1216.25 1046.05 1216.15 1046.2 1216.15 1046.1 1216.05
L 1019.7 1140.5
Q 1019.2 1139.1 1017.9 1138.5 1016.6 1137.85 1015.2 1138.35 1013.85 1138.8 1013.2 1140.1
M 548.4 976.05
Q 548.3 975.95 548.3 976.1
L 513.55 1048.25
Q 512.9 1049.55 513.4 1050.95 513.9 1052.3 515.2 1052.9 516.5 1053.55 517.9 1053.05 519.25 1052.6 519.85 1051.3
L 520 1051 548.45 976.15
Q 548.55 976.05 548.4 976.05
M 546.8 879.8
Q 546.8 879.65 546.7 879.75
L 393.95 931.2
Q 392.55 931.65 391.9 932.95 391.25 934.25 391.75 935.6 392.2 937 393.5 937.65 394.8 938.3 396.15 937.8
L 546.75 879.9
Q 546.9 879.9 546.8 879.8
M 538.2 623.15
L 538.3 623.3 590.4 760.2
Q 590.4 760.35 590.5 760.25 590.65 760.25 590.55 760.15
L 544.85 620.95
Q 544.4 619.55 543.1 618.9 541.85 618.25 540.45 618.7 539.05 619.2 538.4 620.5 537.75 621.75 538.2 623.15
M 399.5 758.3
Q 400 759.65 401.35 760.25
L 539.85 814.3
Q 539.95 814.4 539.95 814.25 540.05 814.15 539.9 814.15
L 404.15 753.85
Q 402.85 753.25 401.5 753.75 400.15 754.3 399.55 755.6 398.95 756.95 399.5 758.3
M 770.6 785.05
Q 770.6 785.2 770.7 785.1
L 846.3 758.7
Q 847.7 758.2 848.3 756.9 848.95 755.6 848.45 754.2 848 752.85 846.7 752.2 845.4 751.55 844 752.05
L 770.65 784.95
Q 770.5 784.95 770.6 785.05
M 712.15 628.75
Q 710.8 629.25 710.2 630.6
L 659.15 764.2
Q 659.05 764.3 659.2 764.3 659.3 764.4 659.3 764.25
L 716.6 633.4
Q 717.2 632.1 716.7 630.75 716.15 629.35 714.8 628.8 713.5 628.2 712.15 628.75
M 1308 1439.4
L 1307.85 1439.3 1175 1385.3
Q 1174.9 1385.2 1174.9 1385.35 1174.8 1385.45 1174.95 1385.45
L 1305.1 1445.75
Q 1306.4 1446.35 1307.75 1445.85 1309.1 1445.35 1309.75 1444.05 1310.35 1442.7 1309.85 1441.35 1309.35 1440 1308 1439.4
M 1321.55 1271.85
Q 1320.25 1271.2 1318.85 1271.7
L 1245.5 1304.6
Q 1245.35 1304.6 1245.45 1304.7 1245.45 1304.85 1245.55 1304.75
L 1321.15 1278.35
Q 1322.55 1277.85 1323.15 1276.55 1323.8 1275.25 1323.3 1273.85 1322.85 1272.5 1321.55 1271.85 Z"/>
</g>

<g id="boomer_0_Layer2_0_FILL">
<path fill="#FFFFFF" stroke="none" d="
M 1096.2 759.15
Q 1003.636328125 697.05 885.35 697.05 726.05 697.05 613.4 809.7 500.75 922.35 500.75 1081.65 500.75 1208.6505859375 572.35 1306 590.5591796875 1330.7591796875 613.4 1353.6 726.05 1466.25 885.35 1466.25 1044.65 1466.25 1157.3 1353.6 1269.95 1240.95 1269.95 1081.65 1269.95 922.35 1157.3 809.7 1128.296875 780.696875 1096.2 759.15 Z"/>
</g>

<g id="boomer_0_Layer1_0_FILL">
<path fill="#FFFFFF" stroke="none" d="
M 1378.9 1230.65
Q 1458.9 1108.15 1386.9 1021.95 1342.7705078125 1087.9818359375 1275.5 1117.9 1342.7705078125 1087.9818359375 1386.9 1021.95 1353.2986328125 996.504296875 1271.25 1034.5 1269.4162109375 1035.3646484375 1267.55 1036.25 1269.4162109375 1035.3646484375 1271.25 1034.5 1271.1794921875 1034.50390625 1271.1 1034.5 1270.15 1034.5 1269.2 1034.8 1268.35 1035.1 1267.7 1035.65 1266.85 1036.35 1266.35 1037.3 1265.85 1038.35 1265.85 1039.5 1265.9 1039.95 1265.95 1040.4 1266.3 1043.15 1267.1 1045.8 1267.9 1048.5 1268.55 1051.25 1269.2 1054.05 1269.8 1056.95 1270.35 1059.75 1270.9 1062.65 1271.4544921875 1065.6994140625 1272 1068.75 1271.85 1075.0693359375 1271.85 1081.35 1271.85 1088.25 1271.85 1095.15 1271.75 1095.3 1271.65 1095.5 1271.55 1095.65 1271.5 1095.85 1271.4 1096 1271.35 1096.2 1271.25 1096.4 1271.2 1096.55 1271.15 1096.75 1271.1 1096.95 1271.05 1097.15 1271 1097.35 1271 1097.55 1270.95 1097.75 1270.95 1097.95 1270.9 1098.15 1270.9 1098.35 1270.9 1098.55 1270.85 1098.75 1270.85 1098.95 1270.85 1099.05 1270.85 1099.1 1270.75 1099.25 1270.65 1099.45 1270.6 1099.6 1270.5 1099.8 1270.4 1099.95 1270.35 1100.15 1270.3 1100.35 1270.25 1100.5 1270.15 1100.7 1270.15 1100.9 1270.1 1101.05 1270.05 1101.25 1270 1101.45 1270 1101.65 1269.95 1101.85 1269.95 1102.05 1269.95 1102.2 1269.9 1102.4 1269.9 1102.55 1269.9 1102.75 1269.9 1102.9 1269.9 1103.05 1269.8 1103.25 1269.7 1103.4 1269.6 1103.6 1269.5 1103.75 1269.4 1103.95 1269.35 1104.15 1269.3 1104.3 1269.2 1104.5 1269.2 1104.65 1269.15 1104.75 1269.1 1104.95 1269.05 1105.15 1269.05 1105.35 1269 1105.55 1269 1105.75 1268.95 1105.95 1268.6 1106.4 1268.35 1106.95 1268 1107.65 1267.65 1108.35 1267.25 1109.1 1267.1 1109.95 1266.9 1110.8 1266.9 1111.65 1266.85 1112.4 1266.85 1113.1 1266.85 1113.85 1266.85 1114.55 1266.85 1115.1 1266.95 1115.55 1267.25 1116.85 1268.1 1117.85 1269.1 1118.95 1270.55 1119.35 1271.18203125 1119.5396484375 1271.8 1119.55 1205.652734375 1147.7857421875 1117.55 1141.75 1040.1 1136.45 945.75 1104.7 945.15 1104.45 944.55 1104.3 867.6 1078.3 840.85 1068.75 498.15 945.5 371.5 1134.95 291.5 1257.45 363.5 1343.65 422.931640625 1254.7212890625 524.3 1231.2 422.931640625 1254.7212890625 363.5 1343.65 412.0005859375 1380.41484375 545.55 1281.95 546.586328125 1282.083984375 547.6 1281.85 549.15 1281.5 550.25 1280.45 551.05 1279.65 551.4 1278.6 551.61171875 1278.0228515625 551.65 1277.45 551.79609375 1276.503515625 551.55 1275.55 551.35 1275.15 551.2 1274.75 551 1274.35 550.85 1273.95 550.65 1273.6 550.45 1273.2 550.25 1272.8 550.1 1272.4 549.9 1272 549.7 1271.6 549.5 1270.65 549.15 1269.7 548.85 1268.9 548.5 1268.1 548.15 1267.3 547.75 1266.5 547.3 1265.8 546.85 1265.1 546.25 1264.3 545.7 1263.45 545.65 1263.25 545.55 1263.05 545.45 1262.85 545.4 1262.65 545.3 1262.45 545.2 1262.25 545.1 1262.05 545 1261.85 544.95 1261.75 544.85 1261.65 544.8 1261.5 544.7 1261.4 544.65 1260.7 544.5 1260.05 544.35 1259.3 544.15 1258.7 543.95 1258.05 543.7 1257.45 543.45 1256.85 543.2 1256.25 542.95 1255.75 542.7 1255.35 542.65 1255.15 542.6 1254.95 542.55 1254.8 542.5 1254.6 542.45 1254.45 542.4 1254.25 542.3 1254.1 542.25 1253.95 542.15 1253.75 542.05 1253.6 542 1253.45 541.9 1253.3 541.85 1253.2 541.75 1253.05 541.75 1252.45 541.75 1251.9 541.75 1250.85 541.35 1249.95 540.95 1249.05 540.25 1248.35 539.45 1247.55 538.4 1247.15 537.4 1246.8 536.35 1246.9 534.9 1247.05 533.75 1247.9 533.75 1247.75 533.75 1247.55 533.75 1246.95 533.75 1246.4 533.7 1245.7 533.65 1245.1 533.55 1244.4 533.45 1243.75 533.35 1243.1 533.2 1242.5 533.034375 1241.8787109375 532.8 1241.3 532.8 1241.2880859375 532.8 1241.25
L 532.75 1241.25 532.75 1241.2
Q 532.72265625 1241.148828125 532.7 1241.1 532.75 1237.95 532.7 1234.75 532.65 1231.95 530.2 1230.55 529.7447265625 1230.2837890625 529.3 1230.1 576.58984375 1219.995703125 632.85 1223.85 710.3 1229.15 767.55 1246.95 824.8 1264.7 872.9 1280.05 920.95 1295.35 1089.5 1337.5 1258.05 1379.6 1378.9 1230.65
M 404.65 1237.75
Q 526.7189453125 1151.12734375 697.05 1189.7 526.7189453125 1151.12734375 404.65 1237.75
M 1374.1 1101.55
Q 1252.7291015625 1219.7640625 1109.65 1181.7 1252.7291015625 1219.7640625 1374.1 1101.55 Z"/>
</g>

<g id="boomer_0_Layer1_0_STROKES_1_FILL">
<path fill="#000000" stroke="none" d="
M 531.45 1185.7
Q 537.4 1184.5 545.45 1183.2
L 571.9 1180.1
Q 572.55 1180.1 573.65 1180
L 584.1 1179.4
Q 585.3 1179.3 585.85 1179.3
L 609.45 1179.1 619.1 1179.4
Q 619.4 1179.45 619.9 1179.45
L 626.9 1179.85
Q 638.05 1180.55 649.9 1181.95 658.55 1182.9 669.3 1184.6
L 697 1189.75
Q 697.1 1189.85 697.1 1189.7 697.2 1189.6 697.05 1189.6
L 676 1185 675.55 1184.95 669.4 1183.8
Q 659.45 1181.95 650.1 1180.65 637.85 1179 627.05 1178.1
L 619.25 1177.45
Q 618.65 1177.45 617.65 1177.35 617.05 1177.35 616.05 1177.25 615.5 1177.25 614.4 1177.15
L 611.15 1177
Q 610.6 1177 610.35 1176.95
L 577 1176.85
Q 576.7 1176.9 576.15 1176.9
L 544.95 1179.65
Q 536.6 1180.8 530.75 1181.85
L 502.2 1188.2 489.85 1191.85
Q 477.2 1195.85 465.35 1200.7 455 1204.9 444.1 1210.3 434.45 1215.15 426.7 1219.65 419.7 1223.65 413.65 1227.55
L 402.6 1234.85
Q 401.4 1235.7 401.15 1237.1 400.9 1238.5 401.7 1239.7 402.55 1240.9 403.95 1241.2 405.35 1241.45 406.55 1240.65
L 406.65 1240.6 417.3 1233.15
Q 423.45 1229.05 429.9 1225.1 438.9 1219.75 446.8 1215.6 457 1210.25 467.45 1205.7 479.6 1200.45 491.35 1196.45
L 514.3 1189.6 531.45 1185.7
M 1376.65 1099.1
Q 1375.65 1098.05 1374.2 1098 1372.75 1097.95 1371.7 1098.95
L 1349.05 1120
Q 1346.8 1121.9 1345.6 1122.9
L 1330.05 1135.25 1329.75 1135.45
Q 1324 1139.7 1320.6 1142.05
L 1306.85 1151.1 1291.75 1159.85 1283.05 1164.35
Q 1278.4 1166.6 1277.1 1167.2
L 1263.05 1173.25 1262.85 1173.3 1239.25 1181.25
Q 1232.55 1183.1 1226.3 1184.5 1221 1185.65 1213.3 1187
L 1209.7 1187.55 1209.5 1187.55 1209.3 1187.6 1194.3 1189.3
Q 1193.8 1189.3 1192.7 1189.4
L 1173.25 1190.05 1151.75 1188.95 1145.15 1188.25 1126.5 1185.3 1109.65 1181.6
Q 1109.55 1181.5 1109.55 1181.65 1109.45 1181.75 1109.6 1181.75
L 1128.1 1186.3 1140.5 1188.6 1152.9 1190.25
Q 1154.1 1190.4 1154.15 1190.4
L 1163.4 1191.25 1188.95 1191.75
Q 1189.25 1191.7 1189.75 1191.7
L 1194.45 1191.5
Q 1195.45 1191.4 1196 1191.4
L 1209.65 1190.15 1209.85 1190.1 1210.05 1190.1 1213.7 1189.6
Q 1219.75 1188.75 1226.9 1187.4 1233.5 1186.15 1240.1 1184.4
L 1256.15 1179.75 1264.25 1176.9 1264.45 1176.85 1264.65 1176.75 1278.8 1171.05 1288.7 1166.5 1289.1 1166.35 1313.45 1153 1323.65 1146.5
Q 1327.05 1144.3 1333.1 1140.05
L 1348.6 1128.4 1367.3 1112.55
Q 1367.45 1112.45 1371.25 1108.95
L 1372.65 1107.65 1372.85 1107.5 1376.5 1104.05
Q 1377.55 1103.05 1377.6 1101.6 1377.65 1100.15 1376.65 1099.1 Z"/>
</g>

<path id="boomer_0_Layer8_0_1_STROKES" stroke="#000000" stroke-width="20" stroke-linejoin="round" stroke-linecap="round" fill="none" d="
M 1141.7 296.95
Q 1141.95 297.95 1142.25 298.95
L 1143 301.85
Q 1146.2921875 313.8 1150.475 325.75 1158.4427734375 348.523828125 1169.65 371.3 1197.630078125 428.2408203125 1245.8 485.2 1345.4853515625 431.229296875 1411.25 371.3 1435.8037109375 348.93984375 1455.625 325.75 1460.5271484375 319.9998046875 1465.15 314.2 1471.95 305.6 1478.15 296.95
M 1465.15 314.2
Q 1460.8634765625 319.99453125 1456.725 325.75 1440.1419921875 348.840625 1426.025 371.3 1365.1201171875 468.1623046875 1350 553.3 1322.5 564.35 1606.6 605.2
L 1613 605.4
Q 1613.65 605.4 1614.35 605.4
M 1606.6 605.2
Q 1438.9 597.05 1342 677.5 1356.4 725.3 1412.45 790.85 1421.65 799.2 1430.1 809.7 1420.6 800.35 1412.45 790.85 1364.75 747.35 1297.9 761.6
M 1376.6 1016.5
Q 1389.136328125 1004.1505859375 1402.05 989.6 1428.65 959.8 1456.65 921
M 1307.8 1008.25
Q 1325.376953125 1009.3904296875 1345.425 1012.9 1363.328515625 1011.0234375 1376.6 1016.5 1381.9048828125 1018.7044921875 1386.475 1022.075 1434.9099609375 1034.8837890625 1494.75 1059.05 1454.4072265625 1077.1236328125 1419.05 1089.15 1424.76875 1122.0248046875 1413.825 1158.875 1434.5966796875 1182.3130859375 1456.65 1210.55 1424.262109375 1207.21953125 1395.825 1202.375 1388.44453125 1216.48515625 1378.9 1231.1 1354.1734375 1261.5759765625 1327.45 1284.05 1368.9404296875 1334.3330078125 1338.75 1387.8 1333.5 1416.2 1306.5 1443 1305.25 1491.6 1277.8 1516.15 1268.75 1524.25 1256.85 1529.75 1231.45 1561.15 1178.8 1560.95 1141.55 1596.35 1102.55 1592.1 1082.3 1602.6 1062.75 1603.15 1039.3611328125 1603.81640625 1017.025 1590.175 1015.1162109375 1620.7955078125 1010.85 1655.5 980.6 1618.35 958.7 1584.95 950.02421875 1571.7703125 942.65 1559.2 938.6951171875 1557.26953125 935.05 1555 909.38359375 1601.108984375 867.65 1656.5 860.05 1609.2 857.75 1569.35 856.1 1540.65 857.15 1515.75 807.45 1548.15 731.15 1580.5 748.25 1535.75 766.2 1500.1 778.37265625 1475.8697265625 790.95 1455.85 691.0890625 1431.7390625 613.4 1354.05 590.55 1331.2 572.35 1306.45 561.7828125 1292.0822265625 552.775 1277.075 552.2396484375 1277.4583984375 551.7 1277.9
M 545.6 1282.45
Q 412 1380.85 363.5 1344.1 318.7537109375 1290.52890625 332.725 1222.925 310.2046875 1227.058203125 285.35 1230.55 313.35 1191.75 339.95 1161.95 354.15 1145.95 367.9 1132.6 314.85 1119.8 247.25 1092.5 291 1072.9 328.9 1060.4 356.2 1051.35 380.5 1045.95 336.35 1006.3 285.35 941 333 945.9 372.1 954.05 385.0609375 956.7291015625 397.075 959.75 395.1109375 948.2234375 395.15 934.95 349.3 886.9 369.85 835.9 364.95 795.15 402.85 757.55 404.45 692.5 453.25 670.45 476.6 622.45 541.6 622.6 591.6 574.95 644.9 599.1 680.4 599.3 713.4 632.55 718.845703125 632.6783203125 724 633.125 721.415234375 575.238671875 731.15 496.05 761.4 533.2 783.3 566.6 795.05 584.45 804.4 601.2 830.5 553.25 874.35 495.05 881.95 542.35 884.25 582.2 885.9 610.9 884.85 635.8 934.55 603.4 1010.85 571.05 996.2625 609.225 981.05 640.775 982.4423828125 640.9759765625 983.85 641.2 1097.6 659.35 1198.55 752.1 1258.8326171875 807.4859375 1211.3 857.675 1209.136328125 862.99921875 1205.825 868.275 1240.5146484375 918.926171875 1256.425 977.35 1280.922265625 963.366015625 1314.95 951.95 1372.3 932.85 1456.65 921
M 1275.55 1118.4
Q 1280.798046875 1116.0611328125 1285.9 1113.5 1286.224609375 1113.3375 1286.55 1113.175 1326.135546875 1093.1982421875 1357.25 1059.95 1373.185546875 1042.9171875 1386.9 1022.4 1386.6865234375 1022.2384765625 1386.475 1022.075
M 1419.05 1089.15
Q 1416.398046875 1073.95234375 1410.175 1059.6 1401.790625 1040.22734375 1386.9 1022.4
M 1395.825 1202.375
Q 1401.3486328125 1191.826953125 1405.65 1181.575 1410.5080078125 1170.0388671875 1413.825 1158.875
M 1338.75 1387.8
Q 1337.5 1390 1336.15 1392.2 1255.6 1402.95 1178.5 1372.25 1177.35 1379.05 1175 1385.85
M 1113.9 159.8
Q 1114 163.2 1114.35 166.75
M 1143 301.85
Q 1146.01171875 313.7201171875 1148.375 325.75 1152.8125 348.2451171875 1155.025 371.3 1162.96953125 454.6416015625 1141.7 545.3 1085.9 570.6 1017.5 545.3 1086.55 581.35 1085.6 617.4
M 804.4 601.2
Q 799.95 609.3 796.05 617.15 786.3205078125 636.7310546875 779.775 654.45 784.749609375 658.751953125 788.95 663.9 810.72734375 672.2357421875 824.05 687.9
M 659.25 764.7
Q 661.5328125 765.8576171875 663.7 767.125 679.2513671875 755.89453125 695.55 746.475 711.7673828125 720.60703125 732.425 698.725 752.3283203125 677.6357421875 776.35 660.25 776.545703125 660.0974609375 776.75 659.95 777.233984375 660.078515625 777.725 660.2 783.588671875 661.8201171875 788.95 663.9
M 779.775 654.45
Q 776.72265625 651.8048828125 773.375 649.475 753.7111328125 635.7873046875 724 633.125
M 644.9 599.1
Q 651.55 602.1 658.25 606.25 668.6 683.5 640.8 757.6 647.2 759.3 653.65 762.05 656.5 763.3 659.25 764.7
M 981.05 640.775
Q 958.18359375 637.5001953125 941.6 641.225 912.171484375 647.844140625 902.525 676.5 924.0298828125 659.4705078125 966.95 666.3 1080.7 684.45 1181.65 777.2 1227.045703125 818.908203125 1211.3 857.675
M 886.075 697.5
Q 886.61640625 697.50078125 887.15 697.5 887.566015625 696.51171875 888 695.55
M 886.075 697.5
Q 885.712890625 697.5 885.35 697.5 880.8478515625 697.5 876.375 697.6 854.1703125 698.035546875 832.875 700.7 758.6060546875 710.0419921875 695.55 746.475
M 876.375 697.6
Q 883.307421875 670.4498046875 884.85 635.8
M 824.05 687.9
Q 829.064453125 693.7876953125 832.875 700.7
M 888 695.55
Q 893.2859375 683.8212890625 902.525 676.5
M 1244.55 645.75
Q 1256.8 646.2 1269.8 647.6 1271.55 647.8 1273.35 648.05 1291.8 632.3 1290.1 612.45 1288.45 592.25 1265.9 567.75 1253.4 571.7 1241.9 576.3 1257.4 595.8 1258.75 612.45 1260.35 630.85 1244.55 645.75 1229.5 645.25 1215.65 646.25 1194.6 647.8 1176.4 652.9 1160 657.45 1145.9 664.9 1133.4 671.5 1122.7 680.35 1132.15 660.95 1145.45 644.35 1159 627.45 1176.6 613.4 1192 601.05 1210.45 591 1225.2 582.95 1241.9 576.3
M 1215.65 646.25
Q 1223.9 634.6 1222.75 621 1221.6 607 1210.45 591
M 1176.4 652.9
Q 1182.5 642.5 1181.5 630.7 1180.8 622.4 1176.6 613.4
M 1145.9 664.9
Q 1147.45 658.9 1146.9 652.45 1146.6 648.5 1145.45 644.35
M 887.15 697.5
Q 1004.3576171875 697.9748046875 1096.2 759.6 1128.3 781.15 1157.3 810.15 1184.9537109375 837.8037109375 1205.825 868.275
M 453.25 670.45
Q 448.65 679.8 445.7 690.95 489.05 751.1 555.5 785.4 568.55 769.4 589.2 761.15 589.85 760.9 590.5 760.65 615.75 751 640.8 757.6
M 539.9 814.7
Q 541.25 810.35 543.1 806.05 548.05 794.5 555.5 785.4
M 369.85 835.9
Q 373.35 827.15 378.8 818.35 459.1 807.6 536 838.05 536.15 826.35 539.9 814.7
M 546.75 880.3
Q 544.25 875.65 542.2 870.5 535.7 854.2 536 838.05
M 397.075 959.75
Q 405.190234375 1007.37890625 447.45 1025.45 454.9 1028.65 463.45 1030.9 482.016796875 1017.5265625 498.125 1001.95 505.0326171875 995.2712890625 511.5 988.2 524.1857421875 935.2857421875 551.9 888.6 549.108984375 884.6587890625 546.75 880.3
M 551.9 888.6
Q 576.6533203125 846.8966796875 613.4 810.15 637.4869140625 786.0630859375 663.7 767.125
M 447.45 1025.45
Q 456.1796875 1033.8583984375 467.525 1039.4 473.0650390625 1042.112890625 479.225 1044.15 490.903125 1039.092578125 503.325 1035.125 505.9998046875 1011.0814453125 511.5 988.2
M 467.525 1039.4
Q 462.2853515625 1038.77265625 456.8 1038.45 423.3 1036.5 380.5 1045.95
M 339.4 1198.875
Q 349.908984375 1168.4611328125 371.5 1135.4 372.0603515625 1134.56171875 372.625 1133.725 370.2763671875 1133.180859375 367.9 1132.6
M 479.225 1044.15
Q 439.2556640625 1061.441796875 408.075 1091.45 388.6431640625 1110.1181640625 372.625 1133.725
M 536.775 1247.325
Q 534.689453125 1242.975390625 532.725 1238.575
M 552.775 1277.075
Q 551.177734375 1274.39296875 549.625 1271.7
M 529.3 1230.6
Q 576.6 1220.45 632.85 1224.3 710.3 1229.6 767.55 1247.4 824.8 1265.15 872.9 1280.5 920.95 1295.8 1089.5 1337.95 1127.9888671875 1347.563671875 1164 1347.225 1171.3640625 1347.152734375 1178.625 1346.675 1259.490234375 1341.2158203125 1327.45 1284.05
M 332.725 1222.925
Q 335.1625 1211.11328125 339.4 1198.875
M 363.5 1344.1
Q 422.95 1255.15 524.3 1231.7
M 1307.8 1008.25
Q 1283.4625 1006.711328125 1263.725 1009.8 1266.0556640625 1022.849609375 1267.525 1036.25
M 1269.05 1053.875
Q 1269.26015625 1057.191015625 1269.425 1060.525 1269.95 1071.205859375 1269.95 1082.1 1269.95 1093.4119140625 1269.375 1104.475
M 1268.425 1118.625
Q 1268.3009765625 1120.0740234375 1268.175 1121.525 1269.9912109375 1120.7724609375 1271.8 1120
M 503.325 1035.125
Q 631.9365234375 994.0654296875 840.85 1069.2 867.6 1078.75 944.55 1104.75 945.15 1104.9 945.75 1105.15 1040.1 1136.9 1117.55 1142.2 1203.241015625 1148.0845703125 1268.175 1121.525
M 1256.425 977.35
Q 1260.7708984375 993.280078125 1263.725 1009.8
M 900.2 1531.75
Q 873.42890625 1509.362109375 870.4 1466.45 866.6060546875 1466.3189453125 862.85 1466.125 858.35703125 1488.63828125 857.15 1515.75
M 900.2 1531.75
Q 909.7380859375 1539.7283203125 922.3 1545.1 929.44140625 1548.1673828125 937.6 1550.35 937.945703125 1550.4568359375 938.3 1550.55 957.333203125 1536.8404296875 973.775 1520.825 996.0482421875 1499.1283203125 1013.575 1473.2 1024.8732421875 1456.4935546875 1034.2 1438.025 965.712109375 1466.7 885.35 1466.7 877.818359375 1466.7 870.4 1466.45
M 862.85 1466.125
Q 853.9943359375 1465.66875 845.275 1464.85
M 922.3 1545.1
Q 928.094921875 1550.681640625 935.05 1555
M 845.275 1464.85
Q 817.3404296875 1462.219921875 790.95 1455.85
M 1164 1347.225
Q 1160.696484375 1350.653515625 1157.3 1354.05 1108.4546875 1402.8953125 1050.825 1430.55 1053.128515625 1431.9359375 1055.55 1433.2 1058.65 1434.85 1061.95 1436.25 1068.2 1438.95 1074.5 1440.65 1100.3 1447.55 1126.3 1437.2 1129.45 1435.95 1132.5 1434.5 1156.15 1423.05 1168.7 1400.15 1170.75 1396.35 1172.5 1392.25 1173.9 1389.05 1175 1385.85
M 1178.625 1346.675
Q 1180.6666015625 1359.4822265625 1178.5 1372.25
M 1050.825 1430.55
Q 1042.6078125 1434.506640625 1034.2 1438.025
M 942.65 1559.2
Q 961.3859375 1568.275 987.2 1569.575 989.4005859375 1569.694921875 991.65 1569.75
M 1102.55 1592.1
Q 1082.6 1589.85 1062.15 1577.25 1052.85 1507.65 1074.5 1440.65
M 1168.7 1400.15
Q 1232.65 1434.2 1274.75 1492.7 1268.9 1514.8 1256.85 1529.75
M 1345.425 1012.9
Q 1316.5291015625 1015.954296875 1275.55 1038.2
M 991.65 1569.75
Q 1004.161328125 1582.334375 1017.025 1590.175"/>

<path id="boomer_0_Layer7_0_1_STROKES" stroke="#000000" stroke-width="7" stroke-linejoin="round" stroke-linecap="round" fill="none" d="
M 1494.75 1058.6
Q 1427.15 1031.3 1374.1 1018.5 1387.85 1005.15 1402.05 989.15 1428.65 959.35 1456.65 920.55 1372.3 932.4 1314.95 951.5 1245.5 974.8 1215.8 1008.8 1198.4 1028.65 1194.6 1052.25 1192.3 1056.25 1190.3 1060.6
M 1494.75 1058.6
Q 1451 1078.2 1413.1 1090.7 1385.8 1099.75 1361.5 1105.15 1405.65 1144.8 1456.65 1210.1 1409 1205.2 1369.9 1197.05 1231.3 1168.4 1200.7 1099.4 1193.3 1082.65 1192.2 1063.65 1191.2 1062.15 1190.3 1060.6
M 884.85 635.35
Q 885.9 610.45 884.25 581.75 881.95 541.9 874.35 494.6
M 797.5 789.2
Q 799.25 788.7 800.95 788.15 802.1 787.75 803.3 787.35 807 786.05 810.6 784.5 815.4 782.4 819.9 779.9 827.2 775.8 833.7 770.55 859.45 749.75 872.35 710.95 882.9 679.15 884.85 635.35 934.55 602.95 1010.85 570.6 993.75 615.35 975.8 651 912.25 777.5 837.65 789.2 819.6 792 800.95 788.15
M 804.4 600.75
Q 795.05 584 783.3 566.15 761.4 532.75 731.15 495.6
M 776.95 662
Q 784.1 640.75 796.05 616.7 799.95 608.85 804.4 600.75 830.5 552.8 874.35 494.6
M 790.55 782.85
Q 793.8 786.15 797.5 789.2
M 776.95 662
Q 764.5 698.8 766.4 727.35 768.65 760.7 790.55 782.85 768.75 773.1 754.05 751.15 728.9 713.65 724.4 640.5 720.75 580.2 731.15 495.6
M 819.9 779.9
Q 816.2 784.7 811.9 789.2 807.5 788.45 803.3 787.35
M 380.5 1045.5
Q 356.2 1050.9 328.9 1059.95 291 1072.45 247.25 1092.05
M 551.7 1090.05
Q 550.8 1088.5 549.8 1087 549.1 1086 548.45 1084.9 546.2 1081.7 543.8 1078.6 540.55 1074.55 536.95 1070.8 531.05 1064.85 524.35 1059.9 497.6 1040.4 456.8 1038 423.3 1036.05 380.5 1045.5 336.35 1005.85 285.35 940.55 333 945.45 372.1 953.6 510.7 982.25 541.3 1051.25 548.7 1068 549.8 1087
M 367.9 1132.15
Q 376.9 1134.35 385.5 1136.1 411.85 1141.4 434.2 1142.85 472.95 1145.3 500.05 1136.05 531.7 1125.3 547.4 1098.4 549.7 1094.4 551.7 1090.05
M 367.9 1132.15
Q 354.15 1145.5 339.95 1161.5 313.35 1191.3 285.35 1230.1
M 536.95 1070.8
Q 542.5 1073.15 548 1076.1 548.4 1080.55 548.45 1084.9
M 285.35 1230.1
Q 369.7 1218.25 427.05 1199.15 496.5 1175.85 526.2 1141.85 543.6 1122 547.4 1098.4
M 247.25 1092.05
Q 314.85 1119.35 367.9 1132.15
M 1194 1074.55
Q 1199.5 1077.5 1205.05 1079.85 1201.45 1076.1 1198.2 1072.05
M 1194 1074.55
Q 1193.6 1070.1 1193.55 1065.75 1192.9 1064.65 1192.2 1063.65
M 1193.55 1065.75
Q 1195.8 1068.95 1198.2 1072.05
M 1205.05 1079.85
Q 1210.95 1085.8 1217.65 1090.75 1244.4 1110.25 1285.2 1112.65 1318.7 1114.6 1361.5 1105.15
M 931.4 1366.15
Q 935 1364.6 938.7 1363.3 934.5 1362.2 930.1 1361.45 925.8 1365.95 922.1 1370.75 926.6 1368.25 931.4 1366.15 Z
M 922.1 1370.75
Q 914.8 1374.85 908.3 1380.1 882.55 1400.9 869.65 1439.7 859.1 1471.5 857.15 1515.3 856.1 1540.2 857.75 1568.9 860.05 1608.75 867.65 1656.05
M 944.5 1361.45
Q 942.75 1361.95 941.05 1362.5 939.9 1362.9 938.7 1363.3
M 951.45 1367.8
Q 948.2 1364.5 944.5 1361.45
M 941.05 1362.5
Q 922.4 1358.65 904.35 1361.45 829.75 1373.15 766.2 1499.65 748.25 1535.3 731.15 1580.05
M 937.6 1549.9
Q 942.05 1541.8 945.95 1533.95 957.9 1509.9 965.05 1488.65 977.5 1451.85 975.6 1423.3 973.35 1389.95 951.45 1367.8 973.25 1377.55 987.95 1399.5 1013.1 1437 1017.6 1510.15 1021.25 1570.45 1010.85 1655.05 980.6 1617.9 958.7 1584.5 946.95 1566.65 937.6 1549.9 911.5 1597.85 867.65 1656.05
M 731.15 1580.05
Q 807.45 1547.7 857.15 1515.3"/>

<path id="boomer_0_Layer6_0_1_STROKES" stroke="#000000" stroke-width="7" stroke-linejoin="round" stroke-linecap="round" fill="none" d="
M 876.1 775.2
Q 889.75 772.4 906.75 772.2 870.1 622.65 983.85 640.75 1097.6 658.9 1198.55 751.65 1299.5 844.4 1098.1 922.55 1103.6 935.2 1108.5 946.5 1113.05 957 1117.05 966.35"/>

<path id="boomer_0_Layer5_0_1_STROKES" stroke="#000000" stroke-width="7" stroke-linejoin="round" stroke-linecap="round" fill="none" d="
M 1141.7 296.5
Q 1141.95 297.5 1142.25 298.5
L 1143 301.4
Q 1168.25 393.05 1245.8 484.75 1391.9 405.65 1465.15 313.75 1471.95 305.15 1478.15 296.5
M 1614.35 604.95
Q 1613.65 604.95 1613 604.95
L 1606.6 604.75
Q 1438.9 596.6 1342 677.05 1356.4 724.85 1412.45 790.4 1421.65 798.75 1430.1 809.25 1420.6 799.9 1412.45 790.4 1364.75 746.9 1297.9 761.15
M 1465.15 313.75
Q 1369.5 443.05 1350 552.85 1322.5 563.9 1606.6 604.75
M 1113.9 159.35
Q 1114 162.75 1114.35 166.3
M 1244.55 645.3
Q 1256.8 645.75 1269.8 647.15 1271.55 647.35 1273.35 647.6 1291.8 631.85 1290.1 612 1288.45 591.8 1265.9 567.3 1253.4 571.25 1241.9 575.85 1257.4 595.35 1258.75 612 1260.35 630.4 1244.55 645.3 1229.5 644.8 1215.65 645.8 1194.6 647.35 1176.4 652.45 1160 657 1145.9 664.45 1133.4 671.05 1122.7 679.9 1132.15 660.5 1145.45 643.9 1159 627 1176.6 612.95 1192 600.6 1210.45 590.55 1225.2 582.5 1241.9 575.85
M 1215.65 645.8
Q 1223.9 634.15 1222.75 620.55 1221.6 606.55 1210.45 590.55
M 1176.4 652.45
Q 1182.5 642.05 1181.5 630.25 1180.8 621.95 1176.6 612.95
M 1145.9 664.45
Q 1147.45 658.45 1146.9 652 1146.6 648.05 1145.45 643.9
M 1143 301.4
Q 1172 415.7 1141.7 544.85 1085.9 570.15 1017.5 544.85 1086.55 580.9 1085.6 616.95
M 859.2 800.3
Q 872.85 797.5 889.85 797.3 853.2 647.75 966.95 665.85 1080.7 684 1181.65 776.75 1282.6 869.5 1081.2 947.65 1086.7 960.3 1091.6 971.6 1096.15 982.1 1100.15 991.45 1134.1 1070.75 1129.5 1067.55"/>

<path id="boomer_0_Layer4_0_1_STROKES" stroke="#000000" stroke-width="7" stroke-linejoin="round" stroke-linecap="round" fill="none" d="
M 1338.75 1387.35
Q 1333.4943359375 1415.7513671875 1306.5 1442.55 1305.25 1491.15 1277.8 1515.7 1268.735546875 1523.8 1256.825 1529.3 1231.4748046875 1560.7033203125 1178.8 1560.5 1141.5626953125 1595.918359375 1102.55 1591.625 1082.298046875 1602.1681640625 1062.75 1602.7 1025.9 1603.75 991.65 1569.3 946.726171875 1568.2015625 922.3 1544.65 869.7810546875 1522.1849609375 870 1454.15 824.1744140625 1406.1037109375 844.7 1355.075 841.6767578125 1329.9390625 854.95 1306 861.4900390625 1294.205078125 871.975 1282.7 874.71015625 1279.7154296875 877.7 1276.75 879.292578125 1211.7060546875 928.075 1189.65 951.0841796875 1142.3564453125 1014.5 1141.8 1015.469921875 1141.7974609375 1016.45 1141.8 1055.3328125 1104.7490234375 1096.2 1111.1 1107.894140625 1112.9267578125 1119.75 1118.3 1155.228515625 1118.5171875 1188.25 1151.75 1239.2236328125 1152.962890625 1263.8 1183.075 1320.08125 1204.6630859375 1319.9 1275.1 1371.499609375 1329.3494140625 1338.75 1387.35 1337.50859375 1389.551953125 1336.15 1391.75 1255.6033203125 1402.5203125 1178.5 1371.8 1177.338671875 1378.604296875 1174.975 1385.4
M 659.225 764.225
Q 669.8943359375 769.6642578125 678.2 777.425 712.982421875 705.483984375 776.75 659.5 783.153125 661.205859375 788.95 663.425 764.3736328125 633.312890625 713.4 632.1
M 659.225 764.225
Q 656.5087890625 762.8328125 653.65 761.6 647.2224609375 758.832421875 640.775 757.15 615.7455078125 750.556640625 590.5 760.2 589.8490234375 760.4416015625 589.2 760.7 568.550390625 768.934375 555.475 784.95 548.073046875 794.0263671875 543.1 805.6 541.2421875 809.9146484375 539.875 814.225 536.1626953125 825.891796875 535.975 837.6 535.719921875 853.7744140625 542.2 870.05 544.23828125 875.181640625 546.75 879.85 554.30390625 893.791796875 566.175 903.55 575.3390625 911.104296875 587.1 916.15 593.369140625 918.86328125 599.65 920.55 625.4376953125 927.4728515625 651.45 917.1 679.7150390625 905.8462890625 693.825 880.025 695.8888671875 876.2404296875 697.65 872.15 701.940625 862.1646484375 703.65 852.15 707.390234375 830.05546875 698.55 807.8 691.3498046875 789.7158203125 678.2 777.425
M 788.95 663.425
Q 845.23125 685.0130859375 845.05 755.45 896.649609375 809.6994140625 863.9 867.7 858.6443359375 896.1013671875 831.65 922.9 830.4 971.5 802.95 996.05 793.885546875 1004.15 781.975 1009.65 756.6248046875 1041.0533203125 703.95 1040.85 666.7126953125 1076.268359375 627.7 1071.975 607.448046875 1082.5181640625 587.9 1083.05 551.05 1084.1 516.8 1049.65 471.876171875 1048.5515625 447.45 1025 394.9310546875 1002.5349609375 395.15 934.5 349.3244140625 886.4537109375 369.85 835.425 364.9505859375 794.6904296875 402.85 757.1 404.442578125 692.0560546875 453.225 670 476.586328125 621.9826171875 541.6 622.15 591.6083984375 574.49765625 644.9 598.65 680.378515625 598.8671875 713.4 632.1
M 453.225 670
Q 448.669921875 679.34453125 445.7 690.5 489.0314453125 750.637890625 555.475 784.95
M 535.975 837.6
Q 459.1072265625 807.128515625 378.8 817.9 373.3599609375 826.7015625 369.85 835.425
M 447.45 1025
Q 454.923046875 1028.1798828125 463.45 1030.45 531.18671875 981.6322265625 566.175 903.55
M 627.7 1071.975
Q 607.733984375 1069.7625 587.3 1057.15 577.9939453125 987.556640625 599.65 920.55
M 928.075 1189.65
Q 923.519921875 1198.99453125 920.55 1210.15 951.40546875 1252.973046875 993.975 1282.7 1011.1947265625 1294.7208984375 1030.325 1304.6 1043.400390625 1288.584375 1064.05 1280.35 1080.1693359375 1273.9322265625 1096.2 1274.125 1105.92890625 1274.245703125 1115.625 1276.8 1143.4623046875 1202.70703125 1133.1 1125.45 1126.3978515625 1121.3166015625 1119.75 1118.3
M 1115.625 1276.8
Q 1122.0724609375 1278.482421875 1128.5 1281.25 1142.6392578125 1287.3474609375 1153.05 1297.075 1187.832421875 1225.133984375 1251.6 1179.15 1258.003125 1180.855859375 1263.8 1183.075
M 863.9 867.7
Q 862.65859375 869.901953125 861.3 872.1 780.7533203125 882.8703125 703.65 852.15
M 693.825 880.025
Q 757.794140625 914.122265625 799.9 972.6 794.0302734375 994.7080078125 781.975 1009.65
M 922.3 1544.65
Q 929.773046875 1547.8298828125 938.3 1550.1 1006.03671875 1501.2822265625 1041.025 1423.2 1025.1845703125 1410.17890625 1017.05 1389.7 1010.569921875 1373.4244140625 1010.825 1357.25 933.9572265625 1326.778515625 853.65 1337.55 848.2099609375 1346.3515625 844.7 1355.075
M 1153.05 1297.075
Q 1166.1998046875 1309.3658203125 1173.4 1327.45 1182.240234375 1349.70546875 1178.5 1371.8
M 1010.825 1357.25
Q 1011.0822265625 1341.2001953125 1017.95 1325.25 1022.543359375 1314.5599609375 1029.2 1306 1029.7599609375 1305.29296875 1030.325 1304.6
M 1102.55 1591.625
Q 1082.583984375 1589.4125 1062.15 1576.8 1052.8439453125 1507.206640625 1074.5 1440.2 1068.219140625 1438.51328125 1061.95 1435.8 1058.633984375 1434.37734375 1055.525 1432.75
M 1132.475 1434.05
Q 1129.4716796875 1435.487109375 1126.3 1436.75 1100.2876953125 1447.1228515625 1074.5 1440.2
M 1055.525 1432.75
Q 1047.6052734375 1428.6244140625 1041.025 1423.2
M 1174.975 1385.4
Q 1173.875390625 1388.59921875 1172.5 1391.8 1170.7388671875 1395.8904296875 1168.675 1399.675 1232.644140625 1433.772265625 1274.75 1492.25 1268.8802734375 1514.3580078125 1256.825 1529.3
M 1168.675 1399.675
Q 1156.1484375 1422.598828125 1132.475 1434.05
M 640.775 757.15
Q 668.6123046875 683.05703125 658.25 605.8 651.5478515625 601.6666015625 644.9 598.65"/>

<path id="boomer_0_Layer2_0_1_STROKES" stroke="#000000" stroke-width="7" stroke-linejoin="round" stroke-linecap="round" fill="none" d="
M 1269.95 1081.65
Q 1269.95 1240.95 1157.3 1353.6 1044.65 1466.25 885.35 1466.25 726.05 1466.25 613.4 1353.6 590.5591796875 1330.7591796875 572.35 1306 500.75 1208.6505859375 500.75 1081.65 500.75 922.35 613.4 809.7 726.05 697.05 885.35 697.05 1003.636328125 697.05 1096.2 759.15 1128.296875 780.696875 1157.3 809.7 1269.95 922.35 1269.95 1081.65 Z"/>

<path id="boomer_0_Layer1_0_1_STROKES" stroke="#000000" stroke-width="7" stroke-linejoin="round" stroke-linecap="round" fill="none" d="
M 529.3 1230.125
Q 576.58984375 1219.995703125 632.85 1223.85 710.3 1229.15 767.55 1246.95 824.8 1264.7 872.9 1280.05 920.95 1295.35 1089.5 1337.5 1258.05 1379.6 1378.9 1230.65 1458.9 1108.15 1386.9 1021.95 1342.7705078125 1087.9818359375 1275.525 1117.925
M 551.675 1277.45
Q 552.240234375 1277.0205078125 552.8 1276.6
M 545.575 1281.975
Q 412.0005859375 1380.41484375 363.5 1343.65 291.5 1257.45 371.5 1134.95 498.15 945.5 840.85 1068.75 867.6 1078.3 944.55 1104.3 945.15 1104.45 945.75 1104.7 1040.1 1136.45 1117.55 1141.75 1205.652734375 1147.7857421875 1271.8 1119.55
M 1386.9 1021.95
Q 1353.2986328125 996.504296875 1271.25 1034.5
M 363.5 1343.65
Q 422.931640625 1254.7212890625 524.3 1231.225
M 1271.25 1034.5
Q 1269.4162109375 1035.3646484375 1267.55 1036.25"/>

<path id="boomer_0_Layer0_0_1_STROKES" stroke="#000000" stroke-width="7" stroke-linejoin="round" stroke-linecap="round" fill="none" d="
M 1267.55 1036.25
Q 1273.1462890625 1081.023046875 1268.2 1121.55"/>
</defs>

<g transform="matrix( 0.6910858154296875, 0, 0, 0.6910858154296875, 104.9,126.75) ">
<g transform="matrix( 1, 0, 0, 1, 0,0) ">
<use xlink:href="#boomer_0_Layer8_0_FILL"/>

<use xlink:href="#boomer_0_Layer8_0_1_STROKES"/>

<use xlink:href="#boomer_0_Layer8_0_STROKES_1_FILL"/>
</g>

<g transform="matrix( 1, 0, 0, 1, 0,0) ">
<use xlink:href="#boomer_0_Layer7_0_FILL"/>

<use xlink:href="#boomer_0_Layer7_0_1_STROKES"/>

<use xlink:href="#boomer_0_Layer7_0_STROKES_1_FILL"/>
</g>

<g transform="matrix( 1, 0, 0, 1, 0,0) ">
<use xlink:href="#boomer_0_Layer6_0_FILL"/>

<use xlink:href="#boomer_0_Layer6_0_1_STROKES"/>
</g>

<g transform="matrix( 1, 0, 0, 1, 0,0) ">
<use xlink:href="#boomer_0_Layer5_0_FILL"/>

<use xlink:href="#boomer_0_Layer5_0_1_STROKES"/>
</g>

<g transform="matrix( 1, 0, 0, 1, 0,0) ">
<use xlink:href="#boomer_0_Layer4_0_FILL"/>

<use xlink:href="#boomer_0_Layer4_0_1_STROKES"/>

<use xlink:href="#boomer_0_Layer4_0_STROKES_1_FILL"/>
</g>

<g transform="matrix( 1, 0, 0, 1, 0,0) ">
<use xlink:href="#boomer_0_Layer2_0_FILL"/>

<use xlink:href="#boomer_0_Layer2_0_1_STROKES"/>
</g>

<g transform="matrix( 1, 0, 0, 1, 0,0) ">
<use xlink:href="#boomer_0_Layer1_0_FILL"/>

<use xlink:href="#boomer_0_Layer1_0_1_STROKES"/>

<use xlink:href="#boomer_0_Layer1_0_STROKES_1_FILL"/>
</g>

<g transform="matrix( 1, 0, 0, 1, 0,0) ">
<use xlink:href="#boomer_0_Layer0_0_1_STROKES"/>
</g>
</g>
</svg>
