
<svg xmlns="http://www.w3.org/2000/svg" version="1.1" xmlns:xlink="http://www.w3.org/1999/xlink" preserveAspectRatio="none" x="0px" y="0px" width="1500px" height="1500px" viewBox="0 0 1500 1500">
<defs>
<g id="floppy_0_Layer7_0_FILL">
<path fill="#FFFFFF" stroke="none" d="
M 54.1 136.85
L 61.45 176.15 27.25 197.15 67 202.3 76.25 241.2 93.5 205.05 133.35 208.2 104.35 180.7 119.7 143.75 84.55 162.85 54.1 136.85
M 243.55 91.9
L 272 63.75 232.2 67.75 214.2 32.05 205.8 71.1 166.1 77.3 200.8 97.4 194.3 136.85 224.15 110.15 259.7 128.45 243.55 91.9
M 385.3 7.05
L 367 42.6 327.1 38.3 355.4 66.65 338.95 103.1 374.7 85.1 404.25 111.9 398.1 72.45 432.9 52.7 393.45 46.25 385.3 7.05
M 718.75 830.2
Q 715.5947265625 832.96484375 712.1 835.55 686.25 854.65 655.75 854.55 651.15 935.15 681.9 1009.55 708.3 1017.65 731.05 1014.3 775.55 1007.6 806.5 957.45
L 718.75 830.2
M 879.75 908
Q 863.293359375 936.6896484375 826.1 951.15 870.3794921875 992.0853515625 947.9 1028.3 993.3 1049.7 1050.35 1069.45
L 879.75 908
M 883.15 901.5
Q 881.6060546875 904.840234375 879.75 908
L 1050.35 1069.45
Q 1007.15 972.45 964.7 909.85 918.8423828125 909.7255859375 883.15 901.5
M 1032.15 906.3
Q 1082.25 901.2 1141.65 888.8
L 917.5 838.55
Q 914.9810546875 861.1271484375 903.25 878.9 895.5 890.5 883.85 900.05 883.521484375 900.782421875 883.15 901.5 918.8423828125 909.7255859375 964.7 909.85 996.05 909.95 1032.15 906.3
M 1141.65 888.8
Q 1071.4759765625 838.46796875 1013.25 807.95 966.2751953125 820.1984375 917.6 812.85 918.906640625 826.41796875 917.5 838.55
L 1141.65 888.8
M 316.15 897.1
Q 305.2 898 293.5 898.6 281.95 920.25 270.95 945.25 250.2 991.95 231.05 1050.55
L 377.3 887.5
Q 349.8 893.95 316.15 897.1
M 386.85 885.1
Q 382.178515625 886.3587890625 377.3 887.5
L 231.05 1050.55
Q 328.15 1004.8 389.8 959.95 412.0828125 943.759375 429.75 927.65 400.456640625 908.848046875 386.85 885.1
M 377.3 887.5
Q 382.178515625 886.3587890625 386.85 885.1 374.77734375 863.994140625 375.1 839
L 323.45 839
Q 321.39609375 836.98203125 319.4 834.95
L 133.35 893.15
Q 224.95 902.2 293.5 898.6 305.2 898 316.15 897.1 349.8 893.95 377.3 887.5
M 372.9 818.2
Q 371.176953125 811.94765625 370.35 805.5 352.865234375 816.9275390625 335.3 829.95
L 372.9 818.2
M 375.1 839
Q 375.201171875 833.2046875 375.95 827.2 374.1876953125 822.75625 372.9 818.2
L 335.3 829.95
Q 329.3875 834.4 323.45 839
L 375.1 839
M 613.6 845.5
Q 592.65078125 835.8537109375 577.85 816.3
L 432.9 929.65
Q 452.55 1005.2 517.3 1014.8 526.55 1016.1 536.65 1016.15 597.55 942.25 613.6 845.5
M 640.45 853.35
Q 638.095703125 852.9939453125 635.8 852.55
L 601.5 1021.9
Q 649.55 1050.05 690.05 1038.2 711.6 1031.85 731.05 1014.3 708.3 1017.65 681.9 1009.55 651.15 935.15 655.75 854.55 648.15 854.55 640.45 853.35
M 635.8 852.55
Q 623.909765625 850.2357421875 613.6 845.5 597.55 942.25 536.65 1016.15 526.55 1016.1 517.3 1014.8 551.3 1033.8 601.5 1021.9
L 635.8 852.55
M 560.85 781.15
Q 529.31875 777.3529296875 498.7 778.75 437.8623046875 781.6095703125 380.7 805.1 378.9125 811.0064453125 377.7 816.7 376.5763671875 822.04375 375.95 827.2 375.201171875 833.2046875 375.1 839 374.77734375 863.994140625 386.85 885.1 400.456640625 908.848046875 429.75 927.65 431.3125 928.671875 432.9 929.65
L 577.85 816.3
Q 577.484375 815.8201171875 577.1 815.3 565.2 799.1 560.85 781.15
M 560.85 781.15
Q 556.4 763.2 559.35 743.6 560.534375 735.694921875 562.75 728.45 466.886328125 742.50859375 370.35 805.5 371.176953125 811.94765625 372.9 818.2 374.1876953125 822.75625 375.95 827.2 376.5763671875 822.04375 377.7 816.7 378.9125 811.0064453125 380.7 805.1 437.8623046875 781.6095703125 498.7 778.75 529.31875 777.3529296875 560.85 781.15
M 385.4 547.5
L 397.3 577.8
Q 413.51796875 570.225390625 429.5 563.65
L 414.45 525.35 391.05 534.55
Q 381.75 538.2 385.4 547.5
M 560.5 505.55
Q 559.1759765625 502.1748046875 556.75 501.25 554.5748046875 500.3740234375 551.45 501.6
L 530 510.05
Q 523.5 512.6 526.05 519.1
L 531.25 532.35
Q 550.1078125 528.5728515625 568.65 526.35
L 560.5 505.55
M 556.75 501.25
Q 559.1759765625 502.1748046875 560.5 505.55
L 568.65 526.35
Q 584.391796875 524.4681640625 599.9 523.7
L 579.3 471.3
Q 575.65 462 566.3 465.65
L 414.45 525.35 429.5 563.65
Q 481.350390625 542.4669921875 531.25 532.35
L 526.05 519.1
Q 523.5 512.6 530 510.05
L 551.45 501.6
Q 554.5748046875 500.3740234375 556.75 501.25
M 263.7 673.35
Q 248.034375 674.0072265625 231.35 675.45 181.35 679.65 122.1 691.05
L 261.65 724.35
Q 258.7380859375 699.4765625 263.7 673.35
M 276.1 786.45
Q 278.4775390625 785.0849609375 280.85 783.75 265.28828125 755.003125 261.65 724.35
L 122.1 691.05
Q 208.05 753.45 276.1 786.45
M 280.85 783.75
Q 278.4775390625 785.0849609375 276.1 786.45 248.85 802 219.5 823.25 178.6 852.75 133.35 893.15
L 319.4 834.95
Q 295.102734375 810.13984375 280.85 783.75
M 517.8 224.35
Q 524.3 221.8 521.75 215.3
L 503.05 167.7 245.8 268.8 264.5 316.4
Q 267.05 322.9 273.55 320.35
L 517.8 224.35
M 565.85 176.05
Q 564.85 176.05 564.85 177.05
L 565.45 205.2 568.15 212.05 581.65 211.8
Q 582.65 211.75 582.6 210.75
L 581.85 176.7
Q 581.8 175.7 580.85 175.75
L 565.85 176.05
M 967.9 569.15
L 954.25 610.45
Q 974.110546875 610.5474609375 994.2 607.75
L 1003.1 580.8
Q 1005.3 574.15 998.65 572.05
L 976.75 564.75
Q 970.1 562.55 967.9 569.15
M 780.3 791.2
Q 779.233203125 790.8546875 778.15 790.5 763.5275390625 785.7068359375 748.3 782.1 741.1654296875 810.7259765625 718.75 830.2
L 806.5 957.45
Q 816.9431640625 954.7408203125 826.1 951.15 863.293359375 936.6896484375 879.75 908 881.6060546875 904.840234375 883.15 901.5 883.521484375 900.782421875 883.85 900.05 892.9 880.05 892.95 853.75 872.4595703125 836.888671875 850.2 823.45 817.2021484375 803.5556640625 780.3 791.2
M 751.3 748.3
Q 751.213671875 748.3138671875 751.1 748.3 752 759.95 750.2 772.25 749.5 777.3 748.3 782.1 763.5275390625 785.7068359375 778.15 790.5 779.233203125 790.8546875 780.3 791.2 817.2021484375 803.5556640625 850.2 823.45 872.4595703125 836.888671875 892.95 853.75 892.9 880.05 883.85 900.05 895.5 890.5 903.25 878.9 914.9810546875 861.1271484375 917.5 838.55 918.906640625 826.41796875 917.6 812.85 868.3828125 805.462890625 817.45 778 784.4244140625 760.209765625 751.3 748.3
M 751.3 748.3
Q 751.209765625 748.28359375 751.1 748.25
L 751.1 748.3
Q 751.213671875 748.3138671875 751.3 748.3
M 717.4 788.2
Q 728.1892578125 763.3015625 718.75 738.05 659.2498046875 721.9404296875 599.45 724.85 596.61171875 729.414453125 594.35 734.6 583.2 760.05 593.4 785.95 603.55 811.8 629.05 822.9 654.55 834.05 680.4 823.85 706.3 813.7 717.4 788.2
M 718.75 738.05
Q 728.1892578125 763.3015625 717.4 788.2 706.3 813.7 680.4 823.85 654.55 834.05 629.05 822.9 603.55 811.8 593.4 785.95 583.2 760.05 594.35 734.6 596.61171875 729.414453125 599.45 724.85 581.1314453125 725.748828125 562.75 728.45 560.534375 735.694921875 559.35 743.6 556.4 763.2 560.85 781.15 565.2 799.1 577.1 815.3 577.484375 815.8201171875 577.85 816.3 592.65078125 835.8537109375 613.6 845.5 623.909765625 850.2357421875 635.8 852.55 638.095703125 852.9939453125 640.45 853.35 648.15 854.55 655.75 854.55 686.25 854.65 712.1 835.55 715.5947265625 832.96484375 718.75 830.2 741.1654296875 810.7259765625 748.3 782.1 749.5 777.3 750.2 772.25 752 759.95 751.1 748.3
L 751.1 748.25
Q 734.9447265625 742.4564453125 718.75 738.05
M 693.05 529.75
L 667.35 464.35 568.15 212.05 565.45 205.2 549.4 164.35 544 150.55
Q 541.45 144 535.3 146.45
L 500.15 160.25 503.05 167.7 521.75 215.3
Q 524.3 221.8 517.8 224.35
L 273.55 320.35
Q 267.05 322.9 264.5 316.4
L 245.8 268.8 242.9 261.35 204.1 276.6
Q 198 279 200.55 285.55
L 329.55 613.85
Q 363.8421875 593.5734375 397.3 577.8
L 385.4 547.5
Q 381.75 538.2 391.05 534.55
L 414.45 525.35 566.3 465.65
Q 575.65 462 579.3 471.3
L 599.9 523.7
Q 647.40625 521.4357421875 693.05 529.75
M 409.4 325.1
Q 440.05 313.05 470.3 326.2 500.5 339.4 512.55 370.1 524.6 400.75 511.45 430.95 498.3 461.2 467.65 473.25 436.95 485.3 406.7 472.15 376.45 458.95 364.4 428.3 352.35 397.6 365.55 367.4 378.7 337.15 409.4 325.1
M 219.1 291.05
Q 218.75 290.15 219.65 289.8
L 233.65 284.3
Q 234.55 283.95 234.9 284.85
L 247.4 316.55
Q 247.75 317.5 246.85 317.85
L 232.85 323.35
Q 231.95 323.7 231.6 322.75
L 219.1 291.05
M 219.65 289.8
Q 218.75 290.15 219.1 291.05
L 231.6 322.75
Q 231.95 323.7 232.85 323.35
L 246.85 317.85
Q 247.75 317.5 247.4 316.55
L 234.9 284.85
Q 234.55 283.95 233.65 284.3
L 219.65 289.8
M 470.3 326.2
Q 440.05 313.05 409.4 325.1 378.7 337.15 365.55 367.4 352.35 397.6 364.4 428.3 376.45 458.95 406.7 472.15 436.95 485.3 467.65 473.25 498.3 461.2 511.45 430.95 524.6 400.75 512.55 370.1 500.5 339.4 470.3 326.2
M 440.55 345.75
Q 441.2 345 441.95 345.6 479.75 359.05 489.75 383.7 490.5 384.3 489.9 385.1
L 473.65 405.45
Q 473.1 406.2 472.25 405.55 466.15 370.6 424.5 367.5 423.7 366.9 424.3 366.1
L 440.55 345.75
M 430 383.2
Q 430.4 382.25 431.3 382.7
L 454.3 392.7
Q 455.2 393.1 454.8 394.05
L 444.85 417
Q 444.4 417.9 443.5 417.5
L 420.5 407.5
Q 419.6 407.1 420 406.2
L 430 383.2
M 431.3 382.7
Q 430.4 382.25 430 383.2
L 420 406.2
Q 419.6 407.1 420.5 407.5
L 443.5 417.5
Q 444.4 417.9 444.85 417
L 454.8 394.05
Q 455.2 393.1 454.3 392.7
L 431.3 382.7
M 441.95 345.6
Q 441.2 345 440.55 345.75
L 424.3 366.1
Q 423.7 366.9 424.5 367.5 466.15 370.6 472.25 405.55 473.1 406.2 473.65 405.45
L 489.9 385.1
Q 490.5 384.3 489.75 383.7 479.75 359.05 441.95 345.6
M 926.2 518.55
L 927.65 582.6 905.4 605.75
Q 929.6654296875 610.3333984375 954.25 610.45
L 967.9 569.15
Q 970.1 562.55 976.75 564.75
L 998.65 572.05
Q 1005.3 574.15 1003.1 580.8
L 994.2 607.75
Q 1011.0068359375 605.4142578125 1027.95 601.05
L 1039.4 566.45
Q 1042.55 556.95 1033.1 553.85
L 926.2 518.55
M 812.9 571.6
L 811.3 496.2
Q 811.15 489.25 804.1 489.4
L 781.1 489.9
Q 774.05 490.05 774.2 497.05
L 775.45 554.05
Q 794.360546875 561.8607421875 812.9 571.6
M 843.25 586.5
Q 830.2966796875 580.926953125 817.45 574 815.188671875 572.7818359375 812.9 571.6 794.360546875 561.8607421875 775.45 554.05 735.0275390625 537.4412109375 693.05 529.75 647.40625 521.4357421875 599.9 523.7 584.391796875 524.4681640625 568.65 526.35 550.1078125 528.5728515625 531.25 532.35 481.350390625 542.4669921875 429.5 563.65 413.51796875 570.225390625 397.3 577.8 363.8421875 593.5734375 329.55 613.85 299.4416015625 631.698828125 268.7 653.05 265.6166015625 663.294140625 263.7 673.35 258.7380859375 699.4765625 261.65 724.35 265.28828125 755.003125 280.85 783.75 295.102734375 810.13984375 319.4 834.95 321.39609375 836.98203125 323.45 839 329.3875 834.4 335.3 829.95 352.865234375 816.9275390625 370.35 805.5 466.886328125 742.50859375 562.75 728.45 581.1314453125 725.748828125 599.45 724.85 659.2498046875 721.9404296875 718.75 738.05 734.9447265625 742.4564453125 751.1 748.25 751.209765625 748.28359375 751.3 748.3 784.4244140625 760.209765625 817.45 778 868.3828125 805.462890625 917.6 812.85 966.2751953125 820.1984375 1013.25 807.95 1065.24609375 794.3875 1115.2 756.9 1201.35 635.1 1146.8 546.9 1139.2287109375 551.8041015625 1131.65 556.3 1079.10390625 587.8806640625 1027.95 601.05 1011.0068359375 605.4142578125 994.2 607.75 974.110546875 610.5474609375 954.25 610.45 929.6654296875 610.3333984375 905.4 605.75 874.0462890625 599.8701171875 843.25 586.5
M 840.7 470.6
Q 840.45 460.6 830.45 460.8
L 667.35 464.35 693.05 529.75
Q 735.0275390625 537.4412109375 775.45 554.05
L 774.2 497.05
Q 774.05 490.05 781.1 489.9
L 804.1 489.4
Q 811.15 489.25 811.3 496.2
L 812.9 571.6
Q 815.188671875 572.7818359375 817.45 574 830.2966796875 580.926953125 843.25 586.5
L 840.7 470.6
M 868.25 217.55
Q 869.891015625 217.5265625 871.15 217.1 875.21484375 215.808984375 875.1 210.45
L 873.95 159.3 597.6 165.35 598.7 216.5
Q 598.9 223.5 605.9 223.3
L 868.25 217.55
M 873.75 151.35
L 873.95 159.3 875.1 210.45
Q 875.21484375 215.808984375 871.15 217.1 869.891015625 217.5265625 868.25 217.55
L 605.9 223.3
Q 598.9 223.5 598.7 216.5
L 597.6 165.35 597.4 157.4 555.75 158.3
Q 549.78671875 158.4376953125 549.4 164.35
L 565.45 205.2 564.85 177.05
Q 564.85 176.05 565.85 176.05
L 580.85 175.75
Q 581.8 175.7 581.85 176.7
L 582.6 210.75
Q 582.65 211.75 581.65 211.8
L 568.15 212.05 667.35 464.35 830.45 460.8
Q 840.45 460.6 840.7 470.6
L 843.25 586.5
Q 874.0462890625 599.8701171875 905.4 605.75
L 927.65 582.6 926.2 518.55 925.4 481.75 922.8 362.6 920.55 261.45 919.2 199.8 918.3 157.35
Q 918.15 150.3 911.5 150.5
L 873.75 151.35
M 731.65 274.7
Q 764.65 273.95 788.45 296.75 809.8654296875 317.1796875 812.65 345.8 812.9771484375 349.1193359375 813.05 352.55 813.7794921875 384.5529296875 792.1 407.95 791.5244140625 408.6009765625 790.9 409.25 768.2 433.15 735.15 433.85 702.25 434.6 678.4 411.7 654.6 388.95 653.85 356.05 653.15 323.1 675.95 299.2 698.75 275.4 731.65 274.7
M 788.45 296.75
Q 764.65 273.95 731.65 274.7 698.75 275.4 675.95 299.2 653.15 323.1 653.85 356.05 654.6 388.95 678.4 411.7 702.25 434.6 735.15 433.85 768.2 433.15 790.9 409.25 791.5244140625 408.6009765625 792.1 407.95 813.7794921875 384.5529296875 813.05 352.55 812.9771484375 349.1193359375 812.65 345.8 809.8654296875 317.1796875 788.45 296.75
M 713.75 355.8
Q 712.95 355.15 713.65 354.45
L 731 336.4
Q 731.65 335.65 732.4 336.3
L 750.45 353.65
Q 751.2 354.35 750.5 355.1
L 733.2 373.2
Q 732.5 373.85 731.8 373.15
L 713.75 355.8
M 731.25 319.7
Q 730.75 318.85 731.65 318.35
L 753.8 304.85
Q 754.7 304.3 755.15 305.15 786 330.85 786.9 357.4 787.45 358.25 786.55 358.8
L 764.3 372.3
Q 763.5 372.85 762.95 371.9 769.2 337.05 731.25 319.7
M 731.65 318.35
Q 730.75 318.85 731.25 319.7 769.2 337.05 762.95 371.9 763.5 372.85 764.3 372.3
L 786.55 358.8
Q 787.45 358.25 786.9 357.4 786 330.85 755.15 305.15 754.7 304.3 753.8 304.85
L 731.65 318.35
M 713.65 354.45
Q 712.95 355.15 713.75 355.8
L 731.8 373.15
Q 732.5 373.85 733.2 373.2
L 750.5 355.1
Q 751.2 354.35 750.45 353.65
L 732.4 336.3
Q 731.65 335.65 731 336.4
L 713.65 354.45
M 1150 337.25
Q 1156.6 339.45 1158.8 332.75
L 1174.8 284.25 919.2 199.8 920.55 261.45 1150 337.25
M 1048.3 385.2
Q 1033.5 355.7 1002.2 345.4 970.9 335.05 941.45 349.9 930.898046875 355.21171875 922.8 362.6
L 925.4 481.75
Q 936.86640625 491.4958984375 952.3 496.55 983.6 506.9 1013.05 492.05 1042.5 477.25 1052.85 445.95 1063.15 414.65 1048.3 385.2
M 986.75 387.6
Q 986.5 386.7 987.45 386.55
L 1012.95 381.25
Q 1013.95 381 1014.15 381.95 1034.55 416.5 1026.55 441.8 1026.75 442.85 1025.75 442.95
L 1000.3 448.25
Q 999.3 448.5 999.15 447.5 1016.75 416.75 986.75 387.6
M 958.1 415.9
Q 957.65 415.05 958.55 414.55
L 980.9 403.3
Q 981.8 402.8 982.2 403.7
L 993.5 426.1
Q 993.95 427 993.05 427.5
L 970.7 438.75
Q 969.8 439.2 969.35 438.3
L 958.1 415.9
M 958.55 414.55
Q 957.65 415.05 958.1 415.9
L 969.35 438.3
Q 969.8 439.2 970.7 438.75
L 993.05 427.5
Q 993.95 427 993.5 426.1
L 982.2 403.7
Q 981.8 402.8 980.9 403.3
L 958.55 414.55
M 987.45 386.55
Q 986.5 386.7 986.75 387.6 1016.75 416.75 999.15 447.5 999.3 448.5 1000.3 448.25
L 1025.75 442.95
Q 1026.75 442.85 1026.55 441.8 1034.55 416.5 1014.15 381.95 1013.95 381 1012.95 381.25
L 987.45 386.55
M 1002.2 345.4
Q 1033.5 355.7 1048.3 385.2 1063.15 414.65 1052.85 445.95 1042.5 477.25 1013.05 492.05 983.6 506.9 952.3 496.55 936.86640625 491.4958984375 925.4 481.75
L 926.2 518.55 1033.1 553.85
Q 1042.55 556.95 1039.4 566.45
L 1027.95 601.05
Q 1079.10390625 587.8806640625 1131.65 556.3
L 1134.8 546.9 1120.2 546.9 1134.8 546.9 1217.25 297.2
Q 1219.5 290.55 1213.2 288.5
L 1177.3 276.6 1174.8 284.25 1158.8 332.75
Q 1156.6 339.45 1150 337.25
L 920.55 261.45 922.8 362.6
Q 930.898046875 355.21171875 941.45 349.9 970.9 335.05 1002.2 345.4 Z"/>
</g>

<g id="floppy_0_Layer7_0_STROKES_1_FILL">
<path fill="#000000" stroke="none" d="
M 816.6 960.4
Q 817.6 956.35 815.45 952.8
L 718.85 830.1
Q 718.8 830.05 718.7 830.1
L 718.7 830.25 798.25 963.1
Q 800.4 966.65 804.4 967.7 808.45 968.7 812 966.55 815.55 964.4 816.6 960.4
M 1050.4 1069.5
Q 1050.5 1069.45 1050.4 1069.35
L 886.65 900.7
Q 883.75 897.75 879.6 897.7 875.45 897.6 872.5 900.5 869.55 903.4 869.5 907.55 869.4 911.7 872.3 914.65
L 872.9 915.25 1050.25 1069.5
Q 1050.35 1069.6 1050.4 1069.5
M 1141.7 888.8
Q 1141.8 888.7 1141.65 888.7
L 919.7 828.8
Q 915.7 827.75 912.1 829.8 908.55 831.85 907.45 835.85 906.35 839.85 908.45 843.45 910.5 847.05 914.5 848.15
L 1141.6 888.85
Q 1141.7 888.95 1141.7 888.8
M 370.45 880.1
Q 370.25 880.35 369.85 880.8
L 230.95 1050.45
Q 230.9 1050.55 230.95 1050.6 231.05 1050.7 231.1 1050.6
L 384.7 894.15
Q 387.65 891.2 387.6 887.05 387.55 882.9 384.6 880 381.65 877.1 377.5 877.15 373.35 877.15 370.45 880.1
M 329.55 832.25
Q 328.5 828.25 324.95 826.15 321.35 824.05 317.35 825.1 316.85 825.2 316.4 825.4
L 133.3 893.05
Q 133.15 893.05 133.25 893.15 133.25 893.3 133.35 893.2
L 322.35 844.45
Q 326.35 843.45 328.5 839.85 330.6 836.3 329.55 832.25
M 374.75 807.2
Q 372.2 807.35 369.95 808.7
L 335.3 829.9 335.25 830 335.35 830.05 375.9 827.75
Q 380.2 827.55 383 824.35 385.85 821.15 385.6 816.9 385.4 812.6 382.2 809.8 379 806.95 374.75 807.2
M 635.8 852.45
Q 635.7 852.35 635.7 852.5
L 591.65 1019.9
Q 590.6 1023.9 592.7 1027.5 594.8 1031.05 598.8 1032.1 602.8 1033.2 606.4 1031.1 610 1029 611.05 1025
L 611.3 1023.85 635.85 852.55
Q 635.95 852.45 635.8 852.45
M 577.95 816.25
Q 577.9 816.2 577.8 816.25
L 426.7 921.75
Q 423.3 924.1 422.6 928.2 421.85 932.3 424.25 935.7 426.6 939.1 430.7 939.8 434.8 940.55 438.2 938.15
L 439.05 937.5 577.95 816.4
Q 578.05 816.35 577.95 816.25
M 122 691
Q 121.9 691.1 122.05 691.1
L 259.35 734.1
Q 263.3 735.35 267 733.4 270.65 731.5 271.9 727.55 273.15 723.6 271.2 719.9 269.3 716.2 265.35 714.95
L 122.1 690.95
Q 122 690.85 122 691 Z"/>
</g>

<g id="floppy_0_Layer6_0_FILL">
<path fill="#FFFFFF" stroke="none" d="
M 316.15 897.1
Q 305.2 898 293.5 898.6 281.95 920.25 270.95 945.25 250.2 991.95 231.05 1050.55
L 377.3 887.5
Q 349.8 893.95 316.15 897.1
M 453.9 855
Q 424.75 876.4 377.3 887.5
L 231.05 1050.55
Q 328.15 1004.8 389.8 959.95 464.6 905.6 487.6 852.5 501 821.45 496.65 790.8 487.85 829.9 453.9 855
M 496.65 790.8
Q 497.95 784.9 498.8 778.85
L 133.35 893.15
Q 224.95 902.2 293.5 898.6 305.2 898 316.15 897.1 349.8 893.95 377.3 887.5 424.75 876.4 453.9 855 487.85 829.9 496.65 790.8
M 492.85 773.6
Q 491.2 768.25 489.1 762.9
L 484.95 767.5
Q 489 770.45 492.85 773.6
M 473.7 760.35
Q 479.45 763.65 484.95 767.5
L 489.1 762.9
Q 481.4 761.25 473.7 760.35
M 484.95 767.5
Q 479.45 763.65 473.7 760.35 464.35 755.1 454.5 751.4 415 737.15 365 749.05 324 758.95 276.1 786.45 248.85 802 219.5 823.25 178.6 852.75 133.35 893.15
L 498.8 778.85
Q 497.05 777.2 495.35 775.7 494.15 774.75 492.85 773.6 489 770.45 484.95 767.5
M 231.35 675.45
Q 181.35 679.65 122.1 691.05
L 365 749.05
Q 415 737.15 454.5 751.4 464.35 755.1 473.7 760.35 481.4 761.25 489.1 762.9 491.2 768.25 492.85 773.6 494.15 774.75 495.35 775.7 486.75 752.55 471.65 734.45 408.85 660.1 231.35 675.45
M 122.1 691.05
Q 208.05 753.45 276.1 786.45 324 758.95 365 749.05
L 122.1 691.05
M 770.55 812.6
Q 770 810.95 769.45 809.55 765.3 833.9 769.3 857.1 786.5 952.9 947.9 1028.3 993.3 1049.7 1050.35 1069.45
L 869 897.8
Q 819.75 883.1 792.7 851 785.95 842.85 780.45 833.65 774.3 829 768.5 823.75 769.35 818.05 770.55 812.6
M 774.35 821.8
Q 772.35 817.25 770.55 812.6 769.35 818.05 768.5 823.75
L 774.35 821.8
M 780.45 833.65
Q 777.2 827.9 774.35 821.8
L 768.5 823.75
Q 774.3 829 780.45 833.65
M 964.7 909.85
Q 909.45 909.7 869 897.8
L 1050.35 1069.45
Q 1007.15 972.45 964.7 909.85
M 1032.15 906.3
Q 1082.25 901.2 1141.65 888.8
L 768.05 805.05
Q 768.7 807.35 769.45 809.55 770 810.95 770.55 812.6 772.35 817.25 774.35 821.8 777.2 827.9 780.45 833.65 785.95 842.85 792.7 851 819.75 883.1 869 897.8 909.45 909.7 964.7 909.85 996.05 909.95 1032.15 906.3
M 1048.55 774.9
Q 1089.85 744.8 1135.75 703.65
L 927.55 771.8
Q 954.65 779.9 985.3 794 995.25 798.7 1005.65 804 1026.5 791.1 1048.55 774.9
M 844.95 761.6
Q 880.9 757.65 927.55 771.8
L 1135.75 703.65
Q 1028.8 694.75 952.95 702.7 861.05 712.4 814.55 746.9 787.4 767.1 775.85 795.8 803 766.3 844.95 761.6
M 927.55 771.8
Q 880.9 757.65 844.95 761.6 803 766.3 775.85 795.8 771.8 800.25 768.05 805.05
L 1141.65 888.8
Q 1066.85 835.15 1005.65 804 995.25 798.7 985.3 794 954.65 779.9 927.55 771.8 Z"/>
</g>

<g id="floppy_0_Layer6_0_STROKES_1_FILL">
<path fill="#000000" stroke="none" d="
M 774.35 821.7
L 774.3 821.7 767.35 820.4
Q 765.75 820.1 764.35 821.05 763 822 762.7 823.6 762.4 825.25 763.35 826.6 764.3 827.95 765.9 828.25 768.1 828.65 769.6 827.05
L 774.35 821.85
Q 774.45 821.8 774.35 821.7
M 1050.4 1069.5
Q 1050.5 1069.45 1050.4 1069.35
L 871.4 895.25
Q 870.35 894.25 868.9 894.25 867.45 894.25 866.45 895.3 865.45 896.35 865.45 897.8 865.45 899.25 866.5 900.25
L 1050.25 1069.5
Q 1050.35 1069.6 1050.4 1069.5
M 1141.7 888.8
Q 1141.8 888.7 1141.65 888.7
L 768.8 801.6
Q 767.4 801.25 766.15 802.05 764.95 802.8 764.6 804.2 764.25 805.65 765 806.85 765.8 808.1 767.2 808.45
L 767.25 808.45 1141.6 888.85
Q 1141.7 888.95 1141.7 888.8
M 374.75 885.05
L 374.65 885.15 230.95 1050.45
Q 230.9 1050.55 230.95 1050.6 231.05 1050.7 231.1 1050.6
L 379.9 889.8
Q 380.85 888.75 380.8 887.3 380.75 885.85 379.7 884.85 378.6 883.9 377.15 883.95 375.75 884 374.75 885.05
M 501.9 780.45
Q 502.55 779.2 502.15 777.8 501.75 776.4 500.45 775.75 499.2 775.05 497.8 775.45
L 497.75 775.5 133.3 893.05
Q 133.15 893.05 133.25 893.15 133.25 893.3 133.35 893.2
L 499.8 782.15
Q 501.2 781.75 501.9 780.45
M 484.95 767.55
L 485 767.55 491.65 765.2
Q 493.2 764.7 493.95 763.2 494.7 761.7 494.15 760.15 493.6 758.55 492.1 757.85 490.6 757.15 489.05 757.7 487 758.4 486.5 760.55
L 484.85 767.4
Q 484.85 767.55 484.95 767.55
M 122 691
Q 121.9 691.1 122.05 691.1
L 364.15 752.45
Q 365.55 752.8 366.8 752.05 368.05 751.3 368.4 749.9 368.75 748.5 368.05 747.25 367.3 746 365.9 745.65
L 365.8 745.6 122.1 690.95
Q 122 690.85 122 691
M 928.5 775.15
L 928.6 775.1 1135.75 703.7
Q 1135.9 703.7 1135.8 703.6 1135.8 703.45 1135.7 703.55
L 926.45 768.45
Q 925.05 768.85 924.4 770.15 923.7 771.45 924.15 772.85 924.55 774.25 925.85 774.9 927.1 775.55 928.5 775.15 Z"/>
</g>

<g id="floppy_0_Layer5_0_FILL">
<path fill="#FFFFFF" stroke="none" d="
M 718.75 830.2
Q 715.5947265625 832.96484375 712.1 835.55 686.25 854.65 655.75 854.55 651.15 935.15 681.9 1009.55 708.3 1017.65 731.05 1014.3 775.55 1007.6 806.5 957.45
L 718.75 830.2
M 883.85 900.05
Q 892.9 880.05 892.95 853.75 829.15 801.25 748.3 782.1 741.1654296875 810.7259765625 718.75 830.2
L 806.5 957.45
Q 864.9 942.3 883.85 900.05
M 613.6 845.5
Q 592.65078125 835.8537109375 577.85 816.3
L 432.9 929.65
Q 452.55 1005.2 517.3 1014.8 526.55 1016.1 536.65 1016.15 597.55 942.25 613.6 845.5
M 640.45 853.35
Q 638.095703125 852.9939453125 635.8 852.55
L 601.5 1021.9
Q 649.55 1050.05 690.05 1038.2 711.6 1031.85 731.05 1014.3 708.3 1017.65 681.9 1009.55 651.15 935.15 655.75 854.55 648.15 854.55 640.45 853.35
M 635.8 852.55
Q 623.909765625 850.2357421875 613.6 845.5 597.55 942.25 536.65 1016.15 526.55 1016.1 517.3 1014.8 551.3 1033.8 601.5 1021.9
L 635.8 852.55
M 577.85 816.3
Q 577.484375 815.8201171875 577.1 815.3 565.2 799.1 560.85 781.15 466.6 769.8 380.7 805.1 377.25 816.5 375.95 827.2 368.15 889.75 432.9 929.65
L 577.85 816.3
M 417.65 644.35
Q 417.65 631.1 420 619.45 372.45 658.15 389.6 730.7
L 480.4 744.35 389.6 730.7
Q 358.6 783.45 375.95 827.2 377.25 816.5 380.7 805.1 466.6 769.8 560.85 781.15 556.4 763.2 559.35 743.6 561.5 729.25 567.1 717.05 483.35 698.35 417.65 644.35
M 628.7 488.3
Q 620.05 485.65 611.8 484.3 545.7 473.15 504.1 540.5
L 558.6 614.35 504.1 540.5
Q 431.9 559.3 420 619.45 417.65 631.1 417.65 644.35 483.35 698.35 567.1 717.05 576.9 695.45 597.45 680.25 623.1 661.3 653.55 661.3 662.75 571 628.7 488.3
M 750.2 772.25
Q 749.5 777.3 748.3 782.1 829.15 801.25 892.95 853.75 892.9 880.05 883.85 900.05 895.5 890.5 903.25 878.9 926.55 843.6 913.65 789.4
L 822.9 775.75 913.65 789.4
Q 935.75 751.7 933.3 718.7 932.5 721.5 931.7 724.35 845.55 759.9 751.1 748.3 752 759.95 750.2 772.25
M 669.15 662.5
Q 661.2 661.25 653.55 661.3 623.1 661.3 597.45 680.25 576.9 695.45 567.1 717.05 561.5 729.25 559.35 743.6 556.4 763.2 560.85 781.15 565.2 799.1 577.1 815.3 577.484375 815.8201171875 577.85 816.3 592.65078125 835.8537109375 613.6 845.5 623.909765625 850.2357421875 635.8 852.55 638.095703125 852.9939453125 640.45 853.35 648.15 854.55 655.75 854.55 686.25 854.65 712.1 835.55 715.5947265625 832.96484375 718.75 830.2 741.1654296875 810.7259765625 748.3 782.1 749.5 777.3 750.2 772.25 752 759.95 751.1 748.3 748.8 722.75 732.4 700.55 719.15 682.55 701 672.8 686.6 665.05 669.15 662.5
M 682.7 699.9
Q 708.1 710.95 718.3 736.85 728.45 762.7 717.4 788.2 706.3 813.7 680.4 823.85 654.55 834.05 629.05 822.9 603.55 811.8 593.4 785.95 583.2 760.05 594.35 734.6 605.45 709.15 631.3 698.95 657.2 688.8 682.7 699.9
M 718.3 736.85
Q 708.1 710.95 682.7 699.9 657.2 688.8 631.3 698.95 605.45 709.15 594.35 734.6 583.2 760.05 593.4 785.95 603.55 811.8 629.05 822.9 654.55 834.05 680.4 823.85 706.3 813.7 717.4 788.2 728.45 762.7 718.3 736.85
M 790.5 514.05
Q 783.4 513.3 775.85 513.25 718.55 582.85 701 672.8 719.15 682.55 732.4 700.55 748.8 722.75 751.1 748.3 845.55 759.9 931.7 724.35 932.5 721.5 933.3 718.7 952.65 644.8 879.55 599.7
L 805.75 654.25 879.55 599.7
Q 859.3 521.5 790.5 514.05
M 697.6 501.35
L 684 592.1 697.6 501.35
Q 651.15 474.05 611.8 484.3 620.05 485.65 628.7 488.3 662.75 571 653.55 661.3 661.2 661.25 669.15 662.5 686.6 665.05 701 672.8 718.55 582.85 775.85 513.25 783.4 513.3 790.5 514.05 754.4 487.85 697.6 501.35 Z"/>
</g>

<g id="floppy_0_Layer5_0_STROKES_1_FILL">
<path fill="#000000" stroke="none" d="
M 718.7 830.1
Q 718.65 830.2 718.7 830.25
L 803.6 959.4
Q 804.4 960.65 805.8 960.95 807.25 961.25 808.45 960.4 809.65 959.6 809.95 958.2 810.25 956.8 809.45 955.55
L 809.35 955.45 718.85 830.1
Q 718.8 830.05 718.7 830.1
M 635.8 852.45
Q 635.7 852.35 635.7 852.5
L 598.05 1021.2
Q 597.7 1022.6 598.5 1023.8 599.3 1025.05 600.7 1025.35 602.1 1025.7 603.35 1024.9 604.55 1024.15 604.9 1022.7
L 604.9 1022.55 635.85 852.55
Q 635.95 852.45 635.8 852.45
M 577.95 816.25
Q 577.9 816.2 577.8 816.25
L 430.7 926.85
Q 429.55 927.75 429.35 929.15 429.15 930.6 430.05 931.75 430.9 932.9 432.35 933.1 433.8 933.3 434.95 932.45
L 435.05 932.4 577.95 816.4
Q 578.05 816.35 577.95 816.25
M 388.8 734.1
L 389.05 734.15 480.35 744.4
Q 480.45 744.5 480.45 744.35 480.55 744.25 480.4 744.25
L 390.1 727.2
Q 388.65 726.95 387.45 727.75 386.25 728.6 386 730 385.75 731.45 386.55 732.65 387.4 733.85 388.8 734.1
M 500.55 539.7
Q 500.3 541.15 501.1 542.35
L 558.5 614.4
Q 558.6 614.5 558.65 614.4 558.75 614.35 558.65 614.25
L 506.9 538.4
Q 506.1 537.2 504.65 536.95 503.2 536.7 502 537.5 500.85 538.3 500.55 539.7
M 822.8 775.7
Q 822.7 775.8 822.85 775.8
L 913.1 792.85
Q 914.55 793.1 915.75 792.3 916.95 791.45 917.2 790.05 917.45 788.6 916.65 787.4 915.8 786.2 914.4 785.95
L 914.15 785.9 822.9 775.65
Q 822.8 775.55 822.8 775.7
M 805.65 654.3
Q 805.75 654.4 805.8 654.3
L 881.6 602.5
Q 882.8 601.7 883.05 600.25 883.35 598.8 882.5 597.6 881.7 596.4 880.3 596.15 878.85 595.9 877.65 596.7
L 805.65 654.15
Q 805.6 654.25 805.65 654.3
M 694.15 500.55
L 694.1 500.8 683.9 592.05
Q 683.8 592.15 683.95 592.15 684.05 592.25 684.05 592.1
L 701.05 501.85
Q 701.3 500.4 700.5 499.2 699.65 498 698.25 497.75 696.8 497.5 695.6 498.3 694.4 499.15 694.15 500.55 Z"/>
</g>

<g id="floppy_0_Layer4_0_FILL">
<path fill="#FFFFFF" stroke="none" d="
M 878.1 502.7
L 822.8 670.05 987.3 724.3 1039.4 566.45
Q 1042.55 556.95 1033.1 553.85
L 878.1 502.7
M 944.75 661.75
Q 938.05 659.5 940.25 652.85
L 967.9 569.15
Q 970.1 562.55 976.75 564.75
L 998.65 572.05
Q 1005.3 574.15 1003.1 580.8
L 975.45 664.5
Q 973.25 671.2 966.6 669
L 944.75 661.75
M 940.25 652.85
Q 938.05 659.5 944.75 661.75
L 966.6 669
Q 973.25 671.2 975.45 664.5
L 1003.1 580.8
Q 1005.3 574.15 998.65 572.05
L 976.75 564.75
Q 970.1 562.55 967.9 569.15
L 940.25 652.85
M 878.1 502.7
L 854.25 494.8
Q 844.7 491.65 841.6 501.2
L 789.5 659.05 822.8 670.05 878.1 502.7
M 1150 337.25
Q 1156.6 339.45 1158.8 332.75
L 1174.8 284.25 912.35 197.55 896.3 246.1
Q 894.2 252.7 900.8 254.95
L 1150 337.25
M 1213.2 288.5
L 1177.3 276.6 1174.8 284.25 1158.8 332.75
Q 1156.6 339.45 1150 337.25
L 900.8 254.95
Q 894.2 252.7 896.3 246.1
L 912.35 197.55 914.9 189.95 875.25 176.9
Q 869.05 174.85 866.9 181.5
L 719.35 628.4
Q 717.1 635.1 723.3 637.2
L 789.5 659.05 841.6 501.2
Q 844.7 491.65 854.25 494.8
L 878.1 502.7 1033.1 553.85
Q 1042.55 556.95 1039.4 566.45
L 987.3 724.3 1017.75 734.4 1083.9 701.1 1217.25 297.2
Q 1219.5 290.55 1213.2 288.5
M 1002.2 345.4
Q 1033.5 355.7 1048.3 385.2 1063.15 414.65 1052.85 445.95 1042.5 477.25 1013.05 492.05 983.6 506.9 952.3 496.55 921 486.3 906.15 456.75 891.35 427.35 901.7 396.05 911.95 364.75 941.45 349.9 970.9 335.05 1002.2 345.4
M 877.55 197.65
Q 877.85 196.65 878.85 197
L 893.05 201.7
Q 894.05 202.05 893.75 203
L 883.1 235.3
Q 882.75 236.25 881.75 235.95
L 867.55 231.25
Q 866.55 230.95 866.9 230
L 877.55 197.65
M 878.85 197
Q 877.85 196.65 877.55 197.65
L 866.9 230
Q 866.55 230.95 867.55 231.25
L 881.75 235.95
Q 882.75 236.25 883.1 235.3
L 893.75 203
Q 894.05 202.05 893.05 201.7
L 878.85 197
M 1048.3 385.2
Q 1033.5 355.7 1002.2 345.4 970.9 335.05 941.45 349.9 911.95 364.75 901.7 396.05 891.35 427.35 906.15 456.75 921 486.3 952.3 496.55 983.6 506.9 1013.05 492.05 1042.5 477.25 1052.85 445.95 1063.15 414.65 1048.3 385.2
M 986.75 387.6
Q 986.5 386.7 987.45 386.55
L 1012.95 381.25
Q 1013.95 381 1014.15 381.95 1034.55 416.5 1026.55 441.8 1026.75 442.85 1025.75 442.95
L 1000.3 448.25
Q 999.3 448.5 999.15 447.5 1016.75 416.75 986.75 387.6
M 958.1 415.9
Q 957.65 415.05 958.55 414.55
L 980.9 403.3
Q 981.8 402.8 982.2 403.7
L 993.5 426.1
Q 993.95 427 993.05 427.5
L 970.7 438.75
Q 969.8 439.2 969.35 438.3
L 958.1 415.9
M 958.55 414.55
Q 957.65 415.05 958.1 415.9
L 969.35 438.3
Q 969.8 439.2 970.7 438.75
L 993.05 427.5
Q 993.95 427 993.5 426.1
L 982.2 403.7
Q 981.8 402.8 980.9 403.3
L 958.55 414.55
M 987.45 386.55
Q 986.5 386.7 986.75 387.6 1016.75 416.75 999.15 447.5 999.3 448.5 1000.3 448.25
L 1025.75 442.95
Q 1026.75 442.85 1026.55 441.8 1034.55 416.5 1014.15 381.95 1013.95 381 1012.95 381.25
L 987.45 386.55 Z"/>
</g>

<g id="floppy_0_Layer3_0_FILL">
<path fill="#FFFFFF" stroke="none" d="
M 671.2 640.6
L 667.35 464.35 642.25 464.95
Q 632.2 465.15 632.45 475.2
L 636.1 641.4 671.2 640.6
M 840.7 470.6
Q 840.45 460.6 830.45 460.8
L 667.35 464.35 671.2 640.6 844.35 636.75 840.7 470.6
M 811.3 496.2
L 813.2 584.4
Q 813.35 591.4 806.35 591.5
L 783.35 592
Q 776.35 592.15 776.15 585.2
L 774.2 497.05
Q 774.05 490.05 781.1 489.9
L 804.1 489.4
Q 811.15 489.25 811.3 496.2
M 813.2 584.4
L 811.3 496.2
Q 811.15 489.25 804.1 489.4
L 781.1 489.9
Q 774.05 490.05 774.2 497.05
L 776.15 585.2
Q 776.35 592.15 783.35 592
L 806.35 591.5
Q 813.35 591.4 813.2 584.4
M 868.25 217.55
Q 875.25 217.45 875.1 210.45
L 873.95 159.3 597.6 165.35 598.7 216.5
Q 598.9 223.5 605.9 223.3
L 868.25 217.55
M 873.75 151.35
L 873.95 159.3 875.1 210.45
Q 875.25 217.45 868.25 217.55
L 605.9 223.3
Q 598.9 223.5 598.7 216.5
L 597.6 165.35 597.4 157.4 555.75 158.3
Q 549.25 158.45 549.4 165.45
L 559.75 636.05
Q 559.9 643 566.4 642.85
L 636.1 641.4 632.45 475.2
Q 632.2 465.15 642.25 464.95
L 667.35 464.35 830.45 460.8
Q 840.45 460.6 840.7 470.6
L 844.35 636.75 876.4 636.05 927.65 582.6 918.3 157.35
Q 918.15 150.3 911.5 150.5
L 873.75 151.35
M 731.65 274.7
Q 764.65 273.95 788.45 296.75 812.35 319.55 813.05 352.55 813.8 385.45 790.9 409.25 768.2 433.15 735.15 433.85 702.25 434.6 678.4 411.7 654.6 388.95 653.85 356.05 653.15 323.1 675.95 299.2 698.75 275.4 731.65 274.7
M 564.85 177.05
Q 564.85 176.05 565.85 176.05
L 580.85 175.75
Q 581.8 175.7 581.85 176.7
L 582.6 210.75
Q 582.65 211.75 581.65 211.8
L 566.65 212.1
Q 565.65 212.1 565.6 211.1
L 564.85 177.05
M 565.85 176.05
Q 564.85 176.05 564.85 177.05
L 565.6 211.1
Q 565.65 212.1 566.65 212.1
L 581.65 211.8
Q 582.65 211.75 582.6 210.75
L 581.85 176.7
Q 581.8 175.7 580.85 175.75
L 565.85 176.05
M 788.45 296.75
Q 764.65 273.95 731.65 274.7 698.75 275.4 675.95 299.2 653.15 323.1 653.85 356.05 654.6 388.95 678.4 411.7 702.25 434.6 735.15 433.85 768.2 433.15 790.9 409.25 813.8 385.45 813.05 352.55 812.35 319.55 788.45 296.75
M 713.75 355.8
Q 712.95 355.15 713.65 354.45
L 731 336.4
Q 731.65 335.65 732.4 336.3
L 750.45 353.65
Q 751.2 354.35 750.5 355.1
L 733.2 373.2
Q 732.5 373.85 731.8 373.15
L 713.75 355.8
M 731.25 319.7
Q 730.75 318.85 731.65 318.35
L 753.8 304.85
Q 754.7 304.3 755.15 305.15 786 330.85 786.9 357.4 787.45 358.25 786.55 358.8
L 764.3 372.3
Q 763.5 372.85 762.95 371.9 769.2 337.05 731.25 319.7
M 731.65 318.35
Q 730.75 318.85 731.25 319.7 769.2 337.05 762.95 371.9 763.5 372.85 764.3 372.3
L 786.55 358.8
Q 787.45 358.25 786.9 357.4 786 330.85 755.15 305.15 754.7 304.3 753.8 304.85
L 731.65 318.35
M 713.65 354.45
Q 712.95 355.15 713.75 355.8
L 731.8 373.15
Q 732.5 373.85 733.2 373.2
L 750.5 355.1
Q 751.2 354.35 750.45 353.65
L 732.4 336.3
Q 731.65 335.65 731 336.4
L 713.65 354.45 Z"/>
</g>

<g id="floppy_0_Layer2_0_FILL">
<path fill="#FFFFFF" stroke="none" d="
M 391.05 534.55
Q 381.75 538.2 385.4 547.5
L 446.25 702.25 478.95 689.4 414.45 525.35 391.05 534.55
M 579.3 471.3
Q 575.65 462 566.3 465.65
L 414.45 525.35 478.95 689.4 640.15 626.05 579.3 471.3
M 551.45 501.6
Q 557.95 499.05 560.5 505.55
L 592.75 587.6
Q 595.3 594.15 588.8 596.7
L 567.35 605.15
Q 560.85 607.7 558.3 601.15
L 526.05 519.1
Q 523.5 512.6 530 510.05
L 551.45 501.6
M 560.5 505.55
Q 557.95 499.05 551.45 501.6
L 530 510.05
Q 523.5 512.6 526.05 519.1
L 558.3 601.15
Q 560.85 607.7 567.35 605.15
L 588.8 596.7
Q 595.3 594.15 592.75 587.6
L 560.5 505.55
M 517.8 224.35
Q 524.3 221.8 521.75 215.3
L 503.05 167.7 245.8 268.8 264.5 316.4
Q 267.05 322.9 273.55 320.35
L 517.8 224.35
M 670 614.3
L 699.6 546.4 544 150.55
Q 541.45 144 535.3 146.45
L 500.15 160.25 503.05 167.7 521.75 215.3
Q 524.3 221.8 517.8 224.35
L 273.55 320.35
Q 267.05 322.9 264.5 316.4
L 245.8 268.8 242.9 261.35 204.1 276.6
Q 198 279 200.55 285.55
L 372.7 723.6
Q 375.3 730.15 381.4 727.75
L 446.25 702.25 385.4 547.5
Q 381.75 538.2 391.05 534.55
L 414.45 525.35 566.3 465.65
Q 575.65 462 579.3 471.3
L 640.15 626.05 670 614.3
M 219.1 291.05
Q 218.75 290.15 219.65 289.8
L 233.65 284.3
Q 234.55 283.95 234.9 284.85
L 247.4 316.55
Q 247.75 317.5 246.85 317.85
L 232.85 323.35
Q 231.95 323.7 231.6 322.75
L 219.1 291.05
M 409.4 325.1
Q 440.05 313.05 470.3 326.2 500.5 339.4 512.55 370.1 524.6 400.75 511.45 430.95 498.3 461.2 467.65 473.25 436.95 485.3 406.7 472.15 376.45 458.95 364.4 428.3 352.35 397.6 365.55 367.4 378.7 337.15 409.4 325.1
M 470.3 326.2
Q 440.05 313.05 409.4 325.1 378.7 337.15 365.55 367.4 352.35 397.6 364.4 428.3 376.45 458.95 406.7 472.15 436.95 485.3 467.65 473.25 498.3 461.2 511.45 430.95 524.6 400.75 512.55 370.1 500.5 339.4 470.3 326.2
M 440.55 345.75
Q 441.2 345 441.95 345.6 479.75 359.05 489.75 383.7 490.5 384.3 489.9 385.1
L 473.65 405.45
Q 473.1 406.2 472.25 405.55 466.15 370.6 424.5 367.5 423.7 366.9 424.3 366.1
L 440.55 345.75
M 430 383.2
Q 430.4 382.25 431.3 382.7
L 454.3 392.7
Q 455.2 393.1 454.8 394.05
L 444.85 417
Q 444.4 417.9 443.5 417.5
L 420.5 407.5
Q 419.6 407.1 420 406.2
L 430 383.2
M 431.3 382.7
Q 430.4 382.25 430 383.2
L 420 406.2
Q 419.6 407.1 420.5 407.5
L 443.5 417.5
Q 444.4 417.9 444.85 417
L 454.8 394.05
Q 455.2 393.1 454.3 392.7
L 431.3 382.7
M 441.95 345.6
Q 441.2 345 440.55 345.75
L 424.3 366.1
Q 423.7 366.9 424.5 367.5 466.15 370.6 472.25 405.55 473.1 406.2 473.65 405.45
L 489.9 385.1
Q 490.5 384.3 489.75 383.7 479.75 359.05 441.95 345.6
M 219.65 289.8
Q 218.75 290.15 219.1 291.05
L 231.6 322.75
Q 231.95 323.7 232.85 323.35
L 246.85 317.85
Q 247.75 317.5 247.4 316.55
L 234.9 284.85
Q 234.55 283.95 233.65 284.3
L 219.65 289.8 Z"/>
</g>

<g id="floppy_0_Layer1_0_FILL">
<path fill="#FFFFFF" stroke="none" d="
M 1115.2 756.9
Q 1201.35 635.1 1146.8 546.9 974.35 658.6 817.45 574 572.5 442.05 268.7 653.05 238 755.05 323.45 839 572.5 646.05 817.45 778 974.35 862.6 1115.2 756.9 Z"/>
</g>

<g id="floppy_0_Layer0_0_FILL">
<path fill="#FFFFFF" stroke="none" d="
M 54.1 136.85
L 61.45 176.15 27.25 197.15 67 202.3 76.25 241.2 93.5 205.05 133.35 208.2 104.35 180.7 119.7 143.75 84.55 162.85 54.1 136.85
M 243.55 91.9
L 272 63.75 232.2 67.75 214.2 32.05 205.8 71.1 166.1 77.3 200.8 97.4 194.3 136.85 224.15 110.15 259.7 128.45 243.55 91.9
M 393.45 46.25
L 385.3 7.05 367 42.6 327.1 38.3 355.4 66.65 338.95 103.1 374.7 85.1 404.25 111.9 398.1 72.45 432.9 52.7 393.45 46.25 Z"/>
</g>

<path id="floppy_0_Layer7_0_1_STROKES" stroke="#000000" stroke-width="20" stroke-linejoin="round" stroke-linecap="round" fill="none" d="
M 987.45 386.55
L 1012.95 381.25
Q 1013.95 381 1014.15 381.95 1034.55 416.5 1026.55 441.8 1026.75 442.85 1025.75 442.95
L 1000.3 448.25
Q 999.3 448.5 999.15 447.5 1016.75 416.75 986.75 387.6 986.5 386.7 987.45 386.55 Z
M 1174.8 284.25
L 1158.8 332.75
Q 1156.6 339.45 1150 337.25
L 920.575 261.475 922.8 362.625
Q 930.898046875 355.21171875 941.45 349.9 970.9 335.05 1002.2 345.4 1033.5 355.7 1048.3 385.2 1063.15 414.65 1052.85 445.95 1042.5 477.25 1013.05 492.05 983.6 506.9 952.3 496.55 936.86640625 491.4958984375 925.425 481.75
L 926.225 518.575 1033.1 553.85
Q 1042.55 556.95 1039.4 566.45
L 1027.975 601.05
Q 1079.10390625 587.8806640625 1131.675 556.325
L 1134.8 546.9 1120.2 546.9
M 1146.8 546.9
Q 1201.35 635.1 1115.2 756.9 1065.24609375 794.3875 1013.275 807.95 1071.4759765625 838.46796875 1141.65 888.8 1082.25 901.2 1032.15 906.3 996.05 909.95 964.7 909.85 1007.15 972.45 1050.35 1069.45 993.3 1049.7 947.9 1028.3 870.3794921875 992.0853515625 826.125 951.175 816.9431640625 954.7408203125 806.5 957.45 775.55 1007.6 731.05 1014.3 711.6 1031.85 690.05 1038.2 649.55 1050.05 601.5 1021.9 551.3 1033.8 517.3 1014.8 452.55 1005.2 432.9 929.65 431.3125 928.671875 429.775 927.675 412.0828125 943.759375 389.8 959.95 328.15 1004.8 231.05 1050.55 250.2 991.95 270.95 945.25 281.95 920.25 293.5 898.6 224.95 902.2 133.35 893.15 178.6 852.75 219.5 823.25 248.85 802 276.1 786.45 208.05 753.45 122.1 691.05 181.35 679.65 231.35 675.45 248.034375 674.0072265625 263.7 673.35 265.6166015625 663.294140625 268.7 653.05 299.4416015625 631.698828125 329.575 613.85
L 200.55 285.55
Q 198 279 204.1 276.6
L 242.9 261.35 245.8 268.8 503.05 167.7 500.15 160.25 535.3 146.45
Q 541.45 144 544 150.55
L 549.425 164.35
Q 549.78671875 158.4376953125 555.75 158.3
L 597.4 157.4 597.6 165.35 873.95 159.3 873.75 151.35 911.5 150.5
Q 918.15 150.3 918.3 157.35
L 919.225 199.825 1174.8 284.25 1177.3 276.6 1213.2 288.5
Q 1219.5 290.55 1217.25 297.2
L 1134.8 546.9 1146.8 546.9
Q 1139.2287109375 551.8041015625 1131.675 556.325
M 813.05 352.55
Q 813.7794921875 384.5529296875 792.125 407.95 791.5244140625 408.6009765625 790.9 409.25 768.2 433.15 735.15 433.85 702.25 434.6 678.4 411.7 654.6 388.95 653.85 356.05 653.15 323.1 675.95 299.2 698.75 275.4 731.65 274.7 764.65 273.95 788.45 296.75 809.8654296875 317.1796875 812.65 345.8 812.9771484375 349.1193359375 813.05 352.55 Z
M 713.65 354.45
L 731 336.4
Q 731.65 335.65 732.4 336.3
L 750.45 353.65
Q 751.2 354.35 750.5 355.1
L 733.2 373.2
Q 732.5 373.85 731.8 373.15
L 713.75 355.8
Q 712.95 355.15 713.65 354.45 Z
M 731.65 318.35
L 753.8 304.85
Q 754.7 304.3 755.15 305.15 786 330.85 786.9 357.4 787.45 358.25 786.55 358.8
L 764.3 372.3
Q 763.5 372.85 762.95 371.9 769.2 337.05 731.25 319.7 730.75 318.85 731.65 318.35 Z
M 919.225 199.825
L 920.575 261.475
M 873.95 159.3
L 875.1 210.45
Q 875.21484375 215.808984375 871.15 217.125 869.891015625 217.5265625 868.25 217.55
L 605.9 223.3
Q 598.9 223.5 598.7 216.5
L 597.6 165.35
M 958.55 414.55
L 980.9 403.3
Q 981.8 402.8 982.2 403.7
L 993.5 426.1
Q 993.95 427 993.05 427.5
L 970.7 438.75
Q 969.8 439.2 969.35 438.3
L 958.1 415.9
Q 957.65 415.05 958.55 414.55 Z
M 549.425 164.35
L 565.475 205.2 564.85 177.05
Q 564.85 176.05 565.85 176.05
L 580.85 175.75
Q 581.8 175.7 581.85 176.7
L 582.6 210.75
Q 582.65 211.75 581.65 211.8
L 568.175 212.075 667.35 464.35 830.45 460.8
Q 840.45 460.6 840.7 470.6
L 843.25 586.525
Q 874.0462890625 599.8701171875 905.425 605.775
L 927.65 582.6 926.225 518.575
M 667.35 464.35
L 693.075 529.775
Q 735.0275390625 537.4412109375 775.45 554.075
L 774.2 497.05
Q 774.05 490.05 781.1 489.9
L 804.1 489.4
Q 811.15 489.25 811.3 496.2
L 812.925 571.6
Q 815.188671875 572.7818359375 817.45 574 830.2966796875 580.926953125 843.25 586.525
M 718.775 738.075
Q 728.1892578125 763.3015625 717.4 788.2 706.3 813.7 680.4 823.85 654.55 834.05 629.05 822.9 603.55 811.8 593.4 785.95 583.2 760.05 594.35 734.6 596.61171875 729.414453125 599.475 724.85 581.1314453125 725.748828125 562.775 728.45 560.534375 735.694921875 559.35 743.6 556.4 763.2 560.85 781.15 565.2 799.1 577.1 815.3 577.484375 815.8201171875 577.875 816.325 592.65078125 835.8537109375 613.6 845.5 623.909765625 850.2357421875 635.8 852.55 638.095703125 852.9939453125 640.45 853.35 648.15 854.55 655.75 854.55 686.25 854.65 712.1 835.55 715.5947265625 832.96484375 718.775 830.2 741.1654296875 810.7259765625 748.3 782.1 749.5 777.3 750.2 772.25 752 759.95 751.1 748.3
L 751.1 748.25
Q 734.9447265625 742.4564453125 718.775 738.075 659.2498046875 721.9404296875 599.475 724.85
M 751.1 748.25
Q 751.209765625 748.28359375 751.325 748.325 784.4244140625 760.209765625 817.45 778 868.3828125 805.462890625 917.625 812.875 966.2751953125 820.1984375 1013.275 807.95
M 751.325 748.325
Q 751.213671875 748.3138671875 751.1 748.3
M 748.3 782.1
Q 763.5275390625 785.7068359375 778.15 790.5 779.233203125 790.8546875 780.3 791.225 817.2021484375 803.5556640625 850.225 823.475 872.4595703125 836.888671875 892.95 853.75 892.9 880.05 883.85 900.05 895.5 890.5 903.25 878.9 914.9810546875 861.1271484375 917.525 838.575 918.906640625 826.41796875 917.625 812.875
M 905.425 605.775
Q 929.6654296875 610.3333984375 954.25 610.45
L 967.9 569.15
Q 970.1 562.55 976.75 564.75
L 998.65 572.05
Q 1005.3 574.15 1003.1 580.8
L 994.2 607.75
Q 1011.0068359375 605.4142578125 1027.975 601.05
M 775.45 554.075
Q 794.360546875 561.8607421875 812.925 571.6
M 922.8 362.625
L 925.425 481.75
M 954.25 610.45
Q 974.110546875 610.5474609375 994.2 607.75
M 424.3 366.1
L 440.55 345.75
Q 441.2 345 441.95 345.6 479.75 359.05 489.75 383.7 490.5 384.3 489.9 385.1
L 473.65 405.45
Q 473.1 406.2 472.25 405.55 466.15 370.6 424.5 367.5 423.7 366.9 424.3 366.1 Z
M 420 406.2
L 430 383.2
Q 430.4 382.25 431.3 382.7
L 454.3 392.7
Q 455.2 393.1 454.8 394.05
L 444.85 417
Q 444.4 417.9 443.5 417.5
L 420.5 407.5
Q 419.6 407.1 420 406.2 Z
M 512.55 370.1
Q 524.6 400.75 511.45 430.95 498.3 461.2 467.65 473.25 436.95 485.3 406.7 472.15 376.45 458.95 364.4 428.3 352.35 397.6 365.55 367.4 378.7 337.15 409.4 325.1 440.05 313.05 470.3 326.2 500.5 339.4 512.55 370.1 Z
M 503.05 167.7
L 521.75 215.3
Q 524.3 221.8 517.8 224.35
L 273.55 320.35
Q 267.05 322.9 264.5 316.4
L 245.8 268.8
M 565.475 205.2
L 568.175 212.075
M 219.65 289.8
L 233.65 284.3
Q 234.55 283.95 234.9 284.85
L 247.4 316.55
Q 247.75 317.5 246.85 317.85
L 232.85 323.35
Q 231.95 323.7 231.6 322.75
L 219.1 291.05
Q 218.75 290.15 219.65 289.8 Z
M 319.4 834.95
Q 295.102734375 810.13984375 280.85 783.775 278.4775390625 785.0849609375 276.1 786.45
M 280.85 783.775
Q 265.28828125 755.003125 261.675 724.375 258.7380859375 699.4765625 263.7 673.35
M 531.275 532.375
L 526.05 519.1
Q 523.5 512.6 530 510.05
L 551.45 501.6
Q 554.5748046875 500.3740234375 556.775 501.25 559.1759765625 502.1748046875 560.5 505.55
L 568.675 526.35
Q 584.391796875 524.4681640625 599.925 523.725
L 579.3 471.3
Q 575.65 462 566.3 465.65
L 414.45 525.35 429.525 563.675
Q 481.350390625 542.4669921875 531.275 532.375 550.1078125 528.5728515625 568.675 526.35
M 329.575 613.85
Q 363.8421875 593.5734375 397.325 577.825
L 385.4 547.5
Q 381.75 538.2 391.05 534.55
L 414.45 525.35
M 397.325 577.825
Q 413.51796875 570.225390625 429.525 563.675
M 560.85 781.15
Q 529.31875 777.3529296875 498.725 778.775 437.8623046875 781.6095703125 380.7 805.1 378.9125 811.0064453125 377.7 816.725 376.5763671875 822.04375 375.95 827.2 375.201171875 833.2046875 375.125 839 374.77734375 863.994140625 386.875 885.1 400.456640625 908.848046875 429.775 927.675
M 375.95 827.2
Q 374.1876953125 822.75625 372.925 818.225
M 335.325 829.975
Q 329.3875 834.4 323.45 839
L 375.125 839
M 372.925 818.225
Q 371.176953125 811.94765625 370.375 805.5 352.865234375 816.9275390625 335.325 829.975
M 293.5 898.6
Q 305.2 898 316.15 897.1 349.8 893.95 377.3 887.5 382.178515625 886.3587890625 386.875 885.1
M 517.3 1014.8
Q 526.55 1016.1 536.65 1016.15 597.55 942.25 613.6 845.5
M 323.45 839
Q 321.39609375 836.98203125 319.4 834.95
M 964.7 909.85
Q 918.8423828125 909.7255859375 883.175 901.5 881.6060546875 904.840234375 879.775 908
M 883.85 900.05
Q 883.521484375 900.782421875 883.175 901.5
M 879.775 908
Q 863.293359375 936.6896484375 826.125 951.175
M 731.05 1014.3
Q 708.3 1017.65 681.9 1009.55 651.15 935.15 655.75 854.55
M 599.925 523.725
Q 647.40625 521.4357421875 693.075 529.775
M 370.375 805.5
Q 466.886328125 742.50859375 562.775 728.45"/>

<path id="floppy_0_Layer7_0_2_STROKES" stroke="#000000" stroke-width="20" stroke-linejoin="round" stroke-linecap="butt" fill="none" d="
M 385.3 7.05
L 393.45 46.25 432.9 52.7 398.1 72.45 404.25 111.9 374.7 85.1 338.95 103.1 355.4 66.65 327.1 38.3 367 42.6 385.3 7.05 Z
M 214.2 32.05
L 232.2 67.75 272 63.75 243.55 91.9 259.7 128.45 224.15 110.15 194.3 136.85 200.8 97.4 166.1 77.3 205.8 71.1 214.2 32.05 Z
M 54.1 136.85
L 84.55 162.85 119.7 143.75 104.35 180.7 133.35 208.2 93.5 205.05 76.25 241.2 67 202.3 27.25 197.15 61.45 176.15 54.1 136.85 Z"/>

<path id="floppy_0_Layer6_0_1_STROKES" stroke="#000000" stroke-width="7" stroke-linejoin="round" stroke-linecap="round" fill="none" d="
M 1005.65 804
Q 995.25 798.7 985.3 794 954.65 779.9 927.55 771.8 880.9 757.65 844.95 761.6 803 766.3 775.85 795.8 771.8 800.25 768.05 805.05
M 1141.65 888.8
Q 1066.85 835.15 1005.65 804 1026.5 791.1 1048.55 774.9 1089.85 744.8 1135.75 703.65 1028.8 694.75 952.95 702.7 861.05 712.4 814.55 746.9 787.4 767.1 775.85 795.8
M 122.1 691.05
Q 208.05 753.45 276.1 786.45 324 758.95 365 749.05
M 122.1 691.05
Q 181.35 679.65 231.35 675.45 408.85 660.1 471.65 734.45 486.75 752.55 495.35 775.7 497.05 777.2 498.8 778.85 497.95 784.9 496.65 790.8 501 821.45 487.6 852.5 464.6 905.6 389.8 959.95 328.15 1004.8 231.05 1050.55 250.2 991.95 270.95 945.25 281.95 920.25 293.5 898.6 224.95 902.2 133.35 893.15 178.6 852.75 219.5 823.25 248.85 802 276.1 786.45
M 495.35 775.7
Q 494.15 774.75 492.85 773.6 489 770.45 484.95 767.5 479.45 763.65 473.7 760.35 464.35 755.1 454.5 751.4 415 737.15 365 749.05
M 492.85 773.6
Q 491.2 768.25 489.1 762.9 481.4 761.25 473.7 760.35
M 293.5 898.6
Q 305.2 898 316.15 897.1 349.8 893.95 377.3 887.5 424.75 876.4 453.9 855 487.85 829.9 496.65 790.8
M 964.7 909.85
Q 996.05 909.95 1032.15 906.3 1082.25 901.2 1141.65 888.8
M 769.45 809.55
Q 770 810.95 770.55 812.6 772.35 817.25 774.35 821.8 777.2 827.9 780.45 833.65 785.95 842.85 792.7 851 819.75 883.1 869 897.8 909.45 909.7 964.7 909.85 1007.15 972.45 1050.35 1069.45 993.3 1049.7 947.9 1028.3 786.5 952.9 769.3 857.1 765.3 833.9 769.45 809.55 768.7 807.35 768.05 805.05
M 780.45 833.65
Q 774.3 829 768.5 823.75 769.35 818.05 770.55 812.6"/>

<path id="floppy_0_Layer5_0_1_STROKES" stroke="#000000" stroke-width="7" stroke-linejoin="round" stroke-linecap="round" fill="none" d="
M 611.8 484.3
Q 620.05 485.65 628.7 488.3 662.75 571 653.55 661.3 661.2 661.25 669.15 662.5 686.6 665.05 701 672.8 718.55 582.85 775.85 513.25 783.4 513.3 790.5 514.05 754.4 487.85 697.6 501.35 651.15 474.05 611.8 484.3 545.7 473.15 504.1 540.5
M 718.3 736.85
Q 728.45 762.7 717.4 788.2 706.3 813.7 680.4 823.85 654.55 834.05 629.05 822.9 603.55 811.8 593.4 785.95 583.2 760.05 594.35 734.6 605.45 709.15 631.3 698.95 657.2 688.8 682.7 699.9 708.1 710.95 718.3 736.85 Z
M 933.3 718.7
Q 932.5 721.5 931.7 724.35 845.55 759.9 751.1 748.3 752 759.95 750.2 772.25 749.5 777.3 748.3 782.1 829.15 801.25 892.95 853.75 892.9 880.05 883.85 900.05 895.5 890.5 903.25 878.9 926.55 843.6 913.65 789.4
M 701 672.8
Q 719.15 682.55 732.4 700.55 748.8 722.75 751.1 748.3
M 790.5 514.05
Q 859.3 521.5 879.55 599.7 952.65 644.8 933.3 718.7 935.75 751.7 913.65 789.4
M 420 619.45
Q 417.65 631.1 417.65 644.35 483.35 698.35 567.1 717.05 576.9 695.45 597.45 680.25 623.1 661.3 653.55 661.3
M 883.85 900.05
Q 864.9 942.3 806.5 957.45 775.55 1007.6 731.05 1014.3 711.6 1031.85 690.05 1038.2 649.55 1050.05 601.5 1021.9 551.3 1033.8 517.3 1014.8 452.55 1005.2 432.9 929.65 368.15 889.75 375.95 827.2 358.6 783.45 389.6 730.7 372.45 658.15 420 619.45 431.9 559.3 504.1 540.5
M 375.95 827.2
Q 377.25 816.5 380.7 805.1 466.6 769.8 560.85 781.15 556.4 763.2 559.35 743.6 561.5 729.25 567.1 717.05
M 577.875 816.325
Q 577.484375 815.8201171875 577.1 815.3 565.2 799.1 560.85 781.15
M 635.8 852.55
Q 623.909765625 850.2357421875 613.6 845.5 597.55 942.25 536.65 1016.15 526.55 1016.1 517.3 1014.8
M 731.05 1014.3
Q 708.3 1017.65 681.9 1009.55 651.15 935.15 655.75 854.55 648.15 854.55 640.45 853.35 638.095703125 852.9939453125 635.8 852.55
M 613.6 845.5
Q 592.65078125 835.8537109375 577.875 816.325
M 718.775 830.2
Q 715.5947265625 832.96484375 712.1 835.55 686.25 854.65 655.75 854.55
M 748.3 782.1
Q 741.1654296875 810.7259765625 718.775 830.2"/>

<path id="floppy_0_Layer4_0_1_STROKES" stroke="#000000" stroke-width="1" stroke-linejoin="round" stroke-linecap="round" fill="none" d="
M 878.85 197
L 893.05 201.7
Q 894.05 202.05 893.75 203
L 883.1 235.3
Q 882.75 236.25 881.75 235.95
L 867.55 231.25
Q 866.55 230.95 866.9 230
L 877.55 197.65
Q 877.85 196.65 878.85 197 Z"/>

<path id="floppy_0_Layer4_0_2_STROKES" stroke="#000000" stroke-width="7" stroke-linejoin="round" stroke-linecap="round" fill="none" d="
M 987.45 386.55
L 1012.95 381.25
Q 1013.95 381 1014.15 381.95 1034.55 416.5 1026.55 441.8 1026.75 442.85 1025.75 442.95
L 1000.3 448.25
Q 999.3 448.5 999.15 447.5 1016.75 416.75 986.75 387.6 986.5 386.7 987.45 386.55 Z
M 1052.85 445.95
Q 1042.5 477.25 1013.05 492.05 983.6 506.9 952.3 496.55 921 486.3 906.15 456.75 891.35 427.35 901.7 396.05 911.95 364.75 941.45 349.9 970.9 335.05 1002.2 345.4 1033.5 355.7 1048.3 385.2 1063.15 414.65 1052.85 445.95 Z
M 1174.8 284.25
L 1177.3 276.6 1213.2 288.5
Q 1219.5 290.55 1217.25 297.2
L 1083.9 701.1 1017.75 734.4 987.3 724.3 822.8 670.05 789.5 659.05 723.3 637.2
Q 717.1 635.1 719.35 628.4
L 866.9 181.5
Q 869.05 174.85 875.25 176.9
L 914.9 189.95 912.35 197.55 1174.8 284.25 1158.8 332.75
Q 1156.6 339.45 1150 337.25
L 900.8 254.95
Q 894.2 252.7 896.3 246.1
L 912.35 197.55
M 958.55 414.55
L 980.9 403.3
Q 981.8 402.8 982.2 403.7
L 993.5 426.1
Q 993.95 427 993.05 427.5
L 970.7 438.75
Q 969.8 439.2 969.35 438.3
L 958.1 415.9
Q 957.65 415.05 958.55 414.55 Z
M 789.5 659.05
L 841.6 501.2
Q 844.7 491.65 854.25 494.8
L 878.1 502.7 1033.1 553.85
Q 1042.55 556.95 1039.4 566.45
L 987.3 724.3
M 976.75 564.75
L 998.65 572.05
Q 1005.3 574.15 1003.1 580.8
L 975.45 664.5
Q 973.25 671.2 966.6 669
L 944.75 661.75
Q 938.05 659.5 940.25 652.85
L 967.9 569.15
Q 970.1 562.55 976.75 564.75 Z
M 878.1 502.7
L 822.8 670.05"/>

<path id="floppy_0_Layer3_0_1_STROKES" stroke="#000000" stroke-width="7" stroke-linejoin="round" stroke-linecap="round" fill="none" d="
M 873.95 159.3
L 873.75 151.35 911.5 150.5
Q 918.15 150.3 918.3 157.35
L 927.65 582.6 876.4 636.05 844.35 636.75 671.2 640.6 636.1 641.4 566.4 642.85
Q 559.9 643 559.75 636.05
L 549.4 165.45
Q 549.25 158.45 555.75 158.3
L 597.4 157.4 597.6 165.35 873.95 159.3 875.1 210.45
Q 875.25 217.45 868.25 217.55
L 605.9 223.3
Q 598.9 223.5 598.7 216.5
L 597.6 165.35
M 813.05 352.55
Q 813.8 385.45 790.9 409.25 768.2 433.15 735.15 433.85 702.25 434.6 678.4 411.7 654.6 388.95 653.85 356.05 653.15 323.1 675.95 299.2 698.75 275.4 731.65 274.7 764.65 273.95 788.45 296.75 812.35 319.55 813.05 352.55 Z
M 713.65 354.45
L 731 336.4
Q 731.65 335.65 732.4 336.3
L 750.45 353.65
Q 751.2 354.35 750.5 355.1
L 733.2 373.2
Q 732.5 373.85 731.8 373.15
L 713.75 355.8
Q 712.95 355.15 713.65 354.45 Z
M 731.65 318.35
L 753.8 304.85
Q 754.7 304.3 755.15 305.15 786 330.85 786.9 357.4 787.45 358.25 786.55 358.8
L 764.3 372.3
Q 763.5 372.85 762.95 371.9 769.2 337.05 731.25 319.7 730.75 318.85 731.65 318.35 Z
M 636.1 641.4
L 632.45 475.2
Q 632.2 465.15 642.25 464.95
L 667.35 464.35 830.45 460.8
Q 840.45 460.6 840.7 470.6
L 844.35 636.75
M 781.1 489.9
L 804.1 489.4
Q 811.15 489.25 811.3 496.2
L 813.2 584.4
Q 813.35 591.4 806.35 591.5
L 783.35 592
Q 776.35 592.15 776.15 585.2
L 774.2 497.05
Q 774.05 490.05 781.1 489.9 Z
M 667.35 464.35
L 671.2 640.6
M 565.85 176.05
L 580.85 175.75
Q 581.8 175.7 581.85 176.7
L 582.6 210.75
Q 582.65 211.75 581.65 211.8
L 566.65 212.1
Q 565.65 212.1 565.6 211.1
L 564.85 177.05
Q 564.85 176.05 565.85 176.05 Z"/>

<path id="floppy_0_Layer2_0_1_STROKES" stroke="#000000" stroke-width="7" stroke-linejoin="round" stroke-linecap="round" fill="none" d="
M 503.05 167.7
L 500.15 160.25 535.3 146.45
Q 541.45 144 544 150.55
L 699.6 546.4 670 614.3 640.15 626.05 478.95 689.4 446.25 702.25 381.4 727.75
Q 375.3 730.15 372.7 723.6
L 200.55 285.55
Q 198 279 204.1 276.6
L 242.9 261.35 245.8 268.8 503.05 167.7 521.75 215.3
Q 524.3 221.8 517.8 224.35
L 273.55 320.35
Q 267.05 322.9 264.5 316.4
L 245.8 268.8
M 424.3 366.1
L 440.55 345.75
Q 441.2 345 441.95 345.6 479.75 359.05 489.75 383.7 490.5 384.3 489.9 385.1
L 473.65 405.45
Q 473.1 406.2 472.25 405.55 466.15 370.6 424.5 367.5 423.7 366.9 424.3 366.1 Z
M 420 406.2
L 430 383.2
Q 430.4 382.25 431.3 382.7
L 454.3 392.7
Q 455.2 393.1 454.8 394.05
L 444.85 417
Q 444.4 417.9 443.5 417.5
L 420.5 407.5
Q 419.6 407.1 420 406.2 Z
M 512.55 370.1
Q 524.6 400.75 511.45 430.95 498.3 461.2 467.65 473.25 436.95 485.3 406.7 472.15 376.45 458.95 364.4 428.3 352.35 397.6 365.55 367.4 378.7 337.15 409.4 325.1 440.05 313.05 470.3 326.2 500.5 339.4 512.55 370.1 Z
M 219.65 289.8
L 233.65 284.3
Q 234.55 283.95 234.9 284.85
L 247.4 316.55
Q 247.75 317.5 246.85 317.85
L 232.85 323.35
Q 231.95 323.7 231.6 322.75
L 219.1 291.05
Q 218.75 290.15 219.65 289.8 Z
M 530 510.05
L 551.45 501.6
Q 557.95 499.05 560.5 505.55
L 592.75 587.6
Q 595.3 594.15 588.8 596.7
L 567.35 605.15
Q 560.85 607.7 558.3 601.15
L 526.05 519.1
Q 523.5 512.6 530 510.05 Z
M 446.25 702.25
L 385.4 547.5
Q 381.75 538.2 391.05 534.55
L 414.45 525.35 566.3 465.65
Q 575.65 462 579.3 471.3
L 640.15 626.05
M 414.45 525.35
L 478.95 689.4"/>

<path id="floppy_0_Layer1_0_1_STROKES" stroke="#000000" stroke-width="7" stroke-linejoin="round" stroke-linecap="round" fill="none" d="
M 323.45 839
Q 572.5 646.05 817.45 778 974.35 862.6 1115.2 756.9 1201.35 635.1 1146.8 546.9 974.35 658.6 817.45 574 572.5 442.05 268.7 653.05 238 755.05 323.45 839
L 375.1 839"/>

<path id="floppy_0_Layer0_0_1_STROKES" stroke="#000000" stroke-width="7" stroke-linejoin="round" stroke-linecap="butt" fill="none" d="
M 385.3 7.05
L 393.45 46.25 432.9 52.7 398.1 72.45 404.25 111.9 374.7 85.1 338.95 103.1 355.4 66.65 327.1 38.3 367 42.6 385.3 7.05 Z
M 214.2 32.05
L 232.2 67.75 272 63.75 243.55 91.9 259.7 128.45 224.15 110.15 194.3 136.85 200.8 97.4 166.1 77.3 205.8 71.1 214.2 32.05 Z
M 54.1 136.85
L 84.55 162.85 119.7 143.75 104.35 180.7 133.35 208.2 93.5 205.05 76.25 241.2 67 202.3 27.25 197.15 61.45 176.15 54.1 136.85 Z"/>
</defs>

<g transform="matrix( 1, 0, 0, 1, 125.6,191.95) ">
<g transform="matrix( 1, 0, 0, 1, 0,0) ">
<use xlink:href="#floppy_0_Layer7_0_FILL"/>

<use xlink:href="#floppy_0_Layer7_0_1_STROKES"/>

<use xlink:href="#floppy_0_Layer7_0_2_STROKES"/>

<use xlink:href="#floppy_0_Layer7_0_STROKES_1_FILL"/>
</g>

<g transform="matrix( 1, 0, 0, 1, 0,0) ">
<use xlink:href="#floppy_0_Layer6_0_FILL"/>

<use xlink:href="#floppy_0_Layer6_0_1_STROKES"/>

<use xlink:href="#floppy_0_Layer6_0_STROKES_1_FILL"/>
</g>

<g transform="matrix( 1, 0, 0, 1, 0,0) ">
<use xlink:href="#floppy_0_Layer5_0_FILL"/>

<use xlink:href="#floppy_0_Layer5_0_1_STROKES"/>

<use xlink:href="#floppy_0_Layer5_0_STROKES_1_FILL"/>
</g>

<g transform="matrix( 1, 0, 0, 1, 0,0) ">
<use xlink:href="#floppy_0_Layer4_0_FILL"/>

<use xlink:href="#floppy_0_Layer4_0_1_STROKES"/>

<use xlink:href="#floppy_0_Layer4_0_2_STROKES"/>
</g>

<g transform="matrix( 1, 0, 0, 1, 0,0) ">
<use xlink:href="#floppy_0_Layer3_0_FILL"/>

<use xlink:href="#floppy_0_Layer3_0_1_STROKES"/>
</g>

<g transform="matrix( 1, 0, 0, 1, 0,0) ">
<use xlink:href="#floppy_0_Layer2_0_FILL"/>

<use xlink:href="#floppy_0_Layer2_0_1_STROKES"/>
</g>

<g transform="matrix( 1, 0, 0, 1, 0,0) ">
<use xlink:href="#floppy_0_Layer1_0_FILL"/>

<use xlink:href="#floppy_0_Layer1_0_1_STROKES"/>
</g>

<g transform="matrix( 1, 0, 0, 1, 0,0) ">
<use xlink:href="#floppy_0_Layer0_0_FILL"/>

<use xlink:href="#floppy_0_Layer0_0_1_STROKES"/>
</g>
</g>
</svg>
