
<svg xmlns="http://www.w3.org/2000/svg" version="1.1" xmlns:xlink="http://www.w3.org/1999/xlink" preserveAspectRatio="none" x="0px" y="0px" width="1500px" height="1500px" viewBox="0 0 1500 1500">
<defs>
<g id="Symbol_1_0_Layer1_0_FILL">
<path fill="#FFFFFF" stroke="none" d="
M 659.8 548.7
L 470.1 486.75 765.25 882.2 659.8 548.7
M 583.9 328.3
L 470.1 486.75 933.65 331.1 583.9 328.3
M 1.35 347.55
L 470.1 486.75 350.8 332.45 1.35 347.55
M 282.7 555.35
L 470.1 486.75 1.35 347.55 282.7 555.35
M 470.1 486.75
L 282.7 555.35 189.1 892.4 470.1 486.75
M 470.1 486.75
L 473.65 689.05 765.25 882.2 470.1 486.75
M 473.65 689.05
L 470.1 486.75 189.1 892.4 473.65 689.05
M 461.55 0.65
L 350.8 332.45 470.1 486.75 461.55 0.65
M 583.9 328.3
L 461.55 0.65 470.1 486.75 583.9 328.3
M 659.8 548.7
L 933.65 331.1 470.1 486.75 659.8 548.7 Z"/>
</g>

<g id="Symbol_1_0_Layer0_0_FILL">
<path fill="#FFFFFF" stroke="none" d="
M 658.45 548.05
L 468.75 486.1 763.9 881.55 658.45 548.05
M 468.75 486.1
L 349.45 331.8 0 346.9 468.75 486.1
M 281.35 554.7
L 468.75 486.1 0 346.9 281.35 554.7
M 468.75 486.1
L 281.35 554.7 187.75 891.75 468.75 486.1
M 582.55 327.65
L 468.75 486.1 932.3 330.45 582.55 327.65
M 468.75 486.1
L 472.3 688.4 763.9 881.55 468.75 486.1
M 472.3 688.4
L 468.75 486.1 187.75 891.75 472.3 688.4
M 582.55 327.65
L 460.2 0 468.75 486.1 582.55 327.65
M 460.2 0
L 349.45 331.8 468.75 486.1 460.2 0
M 658.45 548.05
L 932.3 330.45 468.75 486.1 658.45 548.05 Z"/>
</g>

<path id="Symbol_1_0_Layer1_0_1_STROKES" stroke="#000000" stroke-width="20" stroke-linejoin="round" stroke-linecap="round" fill="none" d="
M 933.65 331.1
L 659.8 548.7 765.25 882.2 473.65 689.05 189.1 892.4 282.7 555.35 1.35 347.55 350.8 332.45 461.55 0.65 583.9 328.3 933.65 331.1 470.1 486.75 659.8 548.7
M 473.65 689.05
L 470.1 486.75 189.1 892.4
M 282.7 555.35
L 470.1 486.75 1.35 347.55
M 350.8 332.45
L 470.1 486.75 461.55 0.65
M 583.9 328.3
L 470.1 486.75 765.25 882.2"/>

<path id="Symbol_1_0_Layer0_0_1_STROKES" stroke="#000000" stroke-width="7" stroke-linejoin="round" stroke-linecap="round" fill="none" d="
M 932.3 330.45
L 658.45 548.05 763.9 881.55 472.3 688.4 187.75 891.75 281.35 554.7 0 346.9 349.45 331.8 460.2 0 582.55 327.65 932.3 330.45 468.75 486.1 658.45 548.05
M 472.3 688.4
L 468.75 486.1 187.75 891.75
M 460.2 0
L 468.75 486.1 582.55 327.65
M 281.35 554.7
L 468.75 486.1 0 346.9
M 349.45 331.8
L 468.75 486.1 763.9 881.55"/>
</defs>

<g transform="matrix( 0.9795379638671875, 0, 0, 0.9795379638671875, 274.9,317.15) ">
<g transform="matrix( 1, 0, 0, 1, 0,0) ">
<use xlink:href="#Symbol_1_0_Layer1_0_FILL"/>

<use xlink:href="#Symbol_1_0_Layer1_0_1_STROKES"/>
</g>

<g transform="matrix( 1, 0, 0, 1, 0,0) ">
<use xlink:href="#Symbol_1_0_Layer0_0_FILL"/>

<use xlink:href="#Symbol_1_0_Layer0_0_1_STROKES"/>
</g>
</g>
</svg>
