
<svg xmlns="http://www.w3.org/2000/svg" version="1.1" xmlns:xlink="http://www.w3.org/1999/xlink" preserveAspectRatio="none" x="0px" y="0px" width="1500px" height="1500px" viewBox="0 0 1500 1500">
<defs>
<g id="lasergun_0_Layer2_0_FILL">
<path fill="#FFFFFF" stroke="none" d="
M -243.4 -374.75
Q -260.334765625 -364.465234375 -275.05 -350.5 -287.4505859375 -338.68359375 -298.3 -324.2 -306.416796875 -313.303125 -313.65 -300.9 -316.3849609375 -296.0982421875 -318.9 -291.35 -373.1884765625 -188.673046875 -319.85 -115.5 -294.79765625 -158.43125 -260.2 -184.2 -248.1677734375 -193.1640625 -235 -200.05 -232.4619140625 -201.3642578125 -229.9 -202.6 -221.0716796875 -264.0169921875 -242.65 -371.05 -243.0306640625 -372.8814453125 -243.4 -374.75
M -139.55 -269.4
L -158.65 -286.8 -158.65 -327
Q -201.45 -342.15 -236.95 -372.3 -239.11640625 -374.1486328125 -241.25 -376.05 -241.725 -375.7220703125 -242.25 -375.45 -242.81953125 -375.0712890625 -243.4 -374.75 -243.0306640625 -372.8814453125 -242.65 -371.05 -221.0716796875 -264.0169921875 -229.9 -202.6 -233.9279296875 -174.6515625 -244.25 -156.15 -250.6703125 -135.97890625 -246.8 -121.75 -242.946484375 -107.807421875 -229.25 -99.55 -207.5587890625 -90.1693359375 -161.4 -91.35 -138.3396484375 -91.954296875 -109.25 -95.2 -93.069921875 -96.9568359375 -75.05 -99.55 -62.992578125 -101.35859375 -56.35 -106.25 -44.170703125 -115.129296875 -49.85 -134.2 -61.15 -154.85 -92.35 -146.8
L -155.25 -146.8 -138 -175 -159.95 -204.95 -138 -222.15 -138 -222.2 -156.8 -245.85 -139.55 -269.4
M -246.7 -428.05
Q -257.965234375 -417.238671875 -269.2 -405.6 -258.3 -391.6 -244.25 -378.75 -243.3998046875 -377.9716796875 -242.55 -377.2 -241.889453125 -376.6072265625 -241.25 -376.05 -239.11640625 -374.1486328125 -236.95 -372.3 -201.45 -342.15 -158.65 -327 -150.25 -342.7 -141.6 -357.55 -174.3634765625 -366.507421875 -202.75 -392.95 -221.589453125 -410.5037109375 -238.5 -435.75 -242.591796875 -431.950390625 -246.7 -428.05
M -275 -396.75
Q -278.892578125 -399.190234375 -282.65 -401.65 -280.94140625 -375.7845703125 -275.05 -350.5 -260.334765625 -364.465234375 -243.4 -374.75 -243.8306640625 -376.7314453125 -244.25 -378.75 -260.65 -387.75 -275 -396.75
M -293.55 -628
Q -293.85 -627.85 -294.1 -627.6 -320.722265625 -579.7919921875 -326.15 -534.75 -332.230078125 -483.789453125 -311.25 -436.35 -306.0578125 -424.587890625 -299.2 -413.05 -291.353515625 -407.340234375 -282.65 -401.65 -278.892578125 -399.190234375 -275 -396.75 -260.65 -387.75 -244.25 -378.75 -258.3 -391.6 -269.2 -405.6 -277.0265625 -415.603515625 -283.3 -426.2 -301.1234375 -456.37578125 -306 -491.15 -307.85 -504.248046875 -307.85 -518 -307.85 -578.3107421875 -272.4 -626.25 -271.4783203125 -627.435546875 -270.55 -628.65 -258 -645.15 -241.15 -660.05 -262.2748046875 -648.6900390625 -279.95 -637.2 -280.3087890625 -636.6205078125 -280.7 -636.05 -280.91796875 -636.2298828125 -281.15 -636.4 -285.4671875 -633.622265625 -289.55 -630.8 -291.582421875 -629.4052734375 -293.55 -628
M 306.9 -631.15
L 305.9 -631.45 235.95 -651.9 67.5 -701.2
Q 16.2478515625 -716.147265625 -24.9 -721.35 -46.631640625 -724.05 -65.55 -724.05 -87.6021484375 -724.05 -108.25 -721.15 -134.5953125 -717.438671875 -158.65 -709 -179.152734375 -701.7666015625 -198 -691.1 -218.4556640625 -679.45703125 -236.95 -663.75 -239.05 -661.95 -241.15 -660.05 -258 -645.15 -270.55 -628.65 -271.4783203125 -627.435546875 -272.4 -626.25 -307.85 -578.3107421875 -307.85 -518 -307.85 -504.248046875 -306 -491.15 -301.1234375 -456.37578125 -283.3 -426.2 -277.0265625 -415.603515625 -269.2 -405.6 -257.965234375 -417.238671875 -246.7 -428.05 -242.591796875 -431.950390625 -238.5 -435.75 -186.816015625 -483.5478515625 -133.85 -513.9 -113.85 -525.33984375 -93.7 -534.3 -57.0876953125 -550.6220703125 -19.85 -558.75 -3.9919921875 -562.1853515625 11.95 -564.15 33.6611328125 -566.8220703125 55.55 -566.75 39.4498046875 -557.765625 23.85 -547.05 19.8755859375 -544.279296875 15.9 -541.4 15.4220703125 -541.05390625 14.95 -540.7 -1.060546875 -529.0431640625 -16.5 -515.4 -34.05 -499.85 -50.95 -481.8 -55.2296875 -477.213671875 -59.45 -472.5 -71.775390625 -458.6630859375 -83.65 -443.55 -93.068359375 -431.54609375 -102.25 -418.65 -107.9890625 -410.61328125 -113.65 -402.25
L -113.65 -402.2
Q -127.9 -381 -141.6 -357.55 -150.25 -342.7 -158.65 -327 -129.95 -316.95 -98.1 -313.55 -82.2 -311.9 -65.55 -311.9 -10.85 -311.9 82.1 -337.9
L 95.55 -341.7 150.25 -357 193.6 -369.15 233.2 -380.2 266.3 -389.5 287.7 -395.5
Q 286.6328125 -405.9853515625 291.4 -424.85 296.882421875 -446.809375 300.05 -473.25 302.2798828125 -491.41640625 303.4 -511.7 306.05 -561.5 303.55 -599.6 301.991015625 -622.475 306.9 -631.15
M 22.1 -661.15
Q 31.65 -661.15 38.4 -654.4 45.25 -647.55 45.25 -638 45.25 -634.593359375 44.35 -631.55 42.819140625 -626.0046875 38.4 -621.65 31.65 -614.8 22.1 -614.8 12.5 -614.8 5.65 -621.65 4.915625 -622.384375 4.25 -623.15 -1.1 -629.4443359375 -1.1 -638 -1.1 -647.55 5.65 -654.4 12.5 -661.15 22.1 -661.15
M 115.55 -641.7
Q 120.95 -636.25 120.95 -628.65 120.95 -627.898828125 120.9 -627.2 120.41640625 -620.5212890625 115.55 -615.7 110.2 -610.25 102.6 -610.25 94.95 -610.25 89.55 -615.7 84.2 -621.05 84.2 -628.65 84.2 -630.6103515625 84.55 -632.45 85.5798828125 -637.6556640625 89.55 -641.7 94.95 -647 102.6 -647 110.2 -647 115.55 -641.7
M -86.3 -607.35
Q -93.9 -615 -93.9 -625.75 -93.9 -636.5 -86.3 -644.1 -78.7 -651.75 -67.9 -651.75 -57.15 -651.75 -49.55 -644.1 -41.95 -636.5 -41.95 -625.75 -41.95 -615 -49.55 -607.35 -57.15 -599.75 -67.9 -599.75 -78.7 -599.75 -86.3 -607.35
M -37.45 -379.35
L 207.9 -433.85 -37.45 -379.35
M -88.05 -332.7
L 276.85 -415.4 -88.05 -332.7
M -219.05 -612
Q -217.444140625 -614.055859375 -215.5 -616 -203.95 -627.55 -187.6 -627.55 -180.6072265625 -627.55 -174.5 -625.45 -166.331640625 -622.61015625 -159.75 -616 -150.012890625 -606.262890625 -148.5 -593.15 -148.2 -590.6662109375 -148.2 -588.1 -148.2 -571.8 -159.75 -560.25 -171.25 -548.7 -187.6 -548.7 -203.95 -548.7 -215.5 -560.25 -215.7814453125 -560.5314453125 -216.05 -560.85 -227.05 -572.197265625 -227.05 -588.1 -227.05 -601.698046875 -219.05 -612
M -215.5 -616
Q -217.444140625 -614.055859375 -219.05 -612 -227.05 -601.698046875 -227.05 -588.1 -227.05 -572.197265625 -216.05 -560.85 -215.7814453125 -560.5314453125 -215.5 -560.25 -203.95 -548.7 -187.6 -548.7 -171.25 -548.7 -159.75 -560.25 -148.2 -571.8 -148.2 -588.1 -148.2 -590.6662109375 -148.5 -593.15 -150.012890625 -606.262890625 -159.75 -616 -166.331640625 -622.61015625 -174.5 -625.45 -180.6072265625 -627.55 -187.6 -627.55 -203.95 -627.55 -215.5 -616
M -208.2 -597.05
Q -206.95 -601.95 -204.1 -605.55 -206.95 -601.95 -208.2 -597.05 -210.8 -587.5 -205.85 -578.85 -200.9 -570.2 -191.4 -567.6 -181.8 -565.1 -173.25 -570.15 -164.7 -575.15 -162.15 -584.75 -161.55 -587 -161.3 -589.05 -161.55 -587 -162.15 -584.75 -164.7 -575.15 -173.25 -570.15 -181.8 -565.1 -191.4 -567.6 -200.9 -570.2 -205.85 -578.85 -210.8 -587.5 -208.2 -597.05
M -93.9 -625.75
Q -93.9 -615 -86.3 -607.35 -78.7 -599.75 -67.9 -599.75 -57.15 -599.75 -49.55 -607.35 -41.95 -615 -41.95 -625.75 -41.95 -636.5 -49.55 -644.1 -57.15 -651.75 -67.9 -651.75 -78.7 -651.75 -86.3 -644.1 -93.9 -636.5 -93.9 -625.75
M 120.95 -628.65
Q 120.95 -636.25 115.55 -641.7 110.2 -647 102.6 -647 94.95 -647 89.55 -641.7 85.5798828125 -637.6556640625 84.55 -632.45 84.2 -630.6103515625 84.2 -628.65 84.2 -621.05 89.55 -615.7 94.95 -610.25 102.6 -610.25 110.2 -610.25 115.55 -615.7 120.41640625 -620.5212890625 120.9 -627.2 120.95 -627.898828125 120.95 -628.65
M 38.4 -654.4
Q 31.65 -661.15 22.1 -661.15 12.5 -661.15 5.65 -654.4 -1.1 -647.55 -1.1 -638 -1.1 -629.4443359375 4.25 -623.15 4.915625 -622.384375 5.65 -621.65 12.5 -614.8 22.1 -614.8 31.65 -614.8 38.4 -621.65 42.819140625 -626.0046875 44.35 -631.55 45.25 -634.593359375 45.25 -638 45.25 -647.55 38.4 -654.4
M 384.7 -506.55
L 353.75 -499.15
Q 358.946484375 -478.289453125 360.9 -457 365.675390625 -404.7130859375 351 -349.85 343.61015625 -322.3078125 332.3 -297.8 354.0546875 -301.776171875 373.5 -309.9 378.311328125 -323.4828125 382.15 -337.8 383.1125 -341.3935546875 384 -345 383.1125 -341.3935546875 382.15 -337.8 378.311328125 -323.4828125 373.5 -309.9 378.793359375 -312.096484375 383.9 -314.6 378.793359375 -312.096484375 373.5 -309.9 354.0546875 -301.776171875 332.3 -297.8 309.7853515625 -293.643359375 284.8 -293.95 274.7912109375 -294.023828125 264.35 -294.85 252.6560546875 -295.77578125 240.45 -297.6 222.723046875 -300.23828125 203.9 -304.75 182.959765625 -309.798828125 160.7 -317.2 146.2439453125 -321.9759765625 131.25 -327.75 130.85 -328 130.3 -328.15 129.3642578125 -328.5126953125 128.45 -328.9 110.13203125 -335.9744140625 95.55 -341.7
L 82.1 -337.9
Q -10.85 -311.9 -65.55 -311.9 -82.2 -311.9 -98.1 -313.55
L -97.05 -271 -97 -270.9 -79.8 -253.7 -97.05 -231.7 -86.85 -222.3 -83.35 -219.05
Q -40.5755859375 -213.4193359375 -6.8 -201.4 37.55 -185.6 74.85 -171.95 85.9216796875 -167.9078125 105.2 -161.75 128.6744140625 -154.287890625 164.25 -143.75 187.94140625 -136.6892578125 216.95 -128.3 229.3072265625 -124.7146484375 242.6 -120.9 251.31640625 -118.40390625 259.85 -116.7 282.865234375 -111.9951171875 304.65 -112.8 396.2662109375 -116.0806640625 466.9 -215.85 528.8 -324.7 473.05 -401.3 463.11875 -384.2541015625 451.65 -369.95 434.9845703125 -348.9984375 415.05 -333.85 401.646875 -323.6056640625 386.75 -316 401.646875 -323.6056640625 415.05 -333.85 434.9845703125 -348.9984375 451.65 -369.95 463.11875 -384.2541015625 473.05 -401.3 465.31796875 -408.0166015625 454.8 -409.65 442.07890625 -411.639453125 425.25 -406.2 410.3955078125 -401.3509765625 392.3 -390.7 389.572265625 -389.0578125 386.75 -387.3 389.572265625 -389.0578125 392.3 -390.7 395.6763671875 -419.765625 393.9 -448.2 392.073046875 -477.730859375 384.7 -506.55
M 5.35 -558.5
Q 7.5416015625 -554.55078125 9.8 -550.8 12.7869140625 -545.928125 15.9 -541.4 19.8755859375 -544.279296875 23.85 -547.05 39.4498046875 -557.765625 55.55 -566.75 33.6611328125 -566.8220703125 11.95 -564.15 -3.9919921875 -562.1853515625 -19.85 -558.75 -57.0876953125 -550.6220703125 -93.7 -534.3 -82.8341796875 -514.88828125 -70 -500.2 -61.8853515625 -490.8896484375 -53 -483.5 -51.983203125 -482.6287109375 -50.95 -481.8 -34.05 -499.85 -16.5 -515.4 -18.262890625 -517.4283203125 -20 -519.55 -26.933984375 -528.06640625 -33.3 -538.05 -36.9677734375 -543.8322265625 -40.45 -550.1 -36.9677734375 -543.8322265625 -33.3 -538.05 -26.933984375 -528.06640625 -20 -519.55 -18.262890625 -517.4283203125 -16.5 -515.4 -1.060546875 -529.0431640625 14.95 -540.7 15.4220703125 -541.05390625 15.9 -541.4 12.7869140625 -545.928125 9.8 -550.8 7.5416015625 -554.55078125 5.35 -558.5
M 425.25 -406.2
Q 425.7 -415.5798828125 425.7 -425.15 425.7 -432.499609375 425.45 -439.75 424.1185546875 -478.31796875 415.7 -513.95
L 384.7 -506.55
Q 392.073046875 -477.730859375 393.9 -448.2 395.6763671875 -419.765625 392.3 -390.7 410.3955078125 -401.3509765625 425.25 -406.2
M 353.75 -499.15
L 341.1 -496.15
Q 339.2298828125 -478.93046875 336.3 -463.6 331.14453125 -436.4546875 322.7 -415.05 315.232421875 -395.88515625 308.05 -388 306.88125 -361.9734375 299.7 -335.15 293.8541015625 -313.314453125 284.8 -293.95 309.7853515625 -293.643359375 332.3 -297.8 343.61015625 -322.3078125 351 -349.85 365.675390625 -404.7130859375 360.9 -457 358.946484375 -478.289453125 353.75 -499.15
M 432 -517.85
L 415.7 -513.95
Q 424.1185546875 -478.31796875 425.45 -439.75 425.7 -432.499609375 425.7 -425.15 425.7 -415.5798828125 425.25 -406.2 442.07890625 -411.639453125 454.8 -409.65 455.05 -417.051953125 455.05 -424.55 455.05 -428.205859375 455 -431.85 454.862890625 -439.8509765625 454.45 -447.75 451.065625 -434.2 446.8 -434.2 440.6 -434.2 436.2 -462.55 432.62109375 -486.1458984375 432 -517.85
M 339.2 -596.45
Q 336.591796875 -609.9283203125 333 -618.85 328.1509765625 -630.9765625 321.5 -634.75 319.04453125 -636.105078125 316.35 -636.35 310.183984375 -636.910546875 306.9 -631.15 301.991015625 -622.475 303.55 -599.6 306.05 -561.5 303.4 -511.7 302.2798828125 -491.41640625 300.05 -473.25 296.882421875 -446.809375 291.4 -424.85 286.6328125 -405.9853515625 287.7 -395.5 288.780078125 -385.402734375 295.25 -383.05 301.5330078125 -380.804296875 308.05 -388 315.232421875 -395.88515625 322.7 -415.05 331.14453125 -436.4546875 336.3 -463.6 339.2298828125 -478.93046875 341.1 -496.15 341.5556640625 -500.3322265625 341.95 -504.65 343.226953125 -518.78984375 343.6 -531.9
L 336.8 -531.35 343.6 -531.9
Q 344.3142578125 -554.2408203125 342.45 -573.6 341.319921875 -585.5978515625 339.2 -596.45
M -229.9 -202.6
Q -232.4619140625 -201.3642578125 -235 -200.05 -248.1677734375 -193.1640625 -260.2 -184.2 -294.79765625 -158.43125 -319.85 -115.5 -296.268359375 -94.99140625 -246.8 -121.75 -250.6703125 -135.97890625 -244.25 -156.15 -233.9279296875 -174.6515625 -229.9 -202.6
M -242.55 -377.2
Q -242.384375 -376.3103515625 -242.25 -375.45 -241.725 -375.7220703125 -241.25 -376.05 -241.889453125 -376.6072265625 -242.55 -377.2
M -242.25 -375.45
Q -242.384375 -376.3103515625 -242.55 -377.2 -243.3998046875 -377.9716796875 -244.25 -378.75 -243.8306640625 -376.7314453125 -243.4 -374.75 -242.81953125 -375.0712890625 -242.25 -375.45
M -138 -222.15
L -159.95 -204.95 -138 -175 -155.25 -146.8 -92.35 -146.8 -92.35 -163.65 -92.35 -189.25 -77.25 -211.95 -76.65 -212.8 -83.35 -219.05 -86.85 -222.3 -138 -222.15
M -156.8 -245.85
L -138 -222.2 -138 -222.15 -86.85 -222.3 -97.05 -231.7 -79.8 -253.7 -97 -270.9 -139.55 -269.4 -156.8 -245.85
M -98.1 -313.55
Q -129.95 -316.95 -158.65 -327
L -158.65 -286.8 -139.55 -269.4 -97 -270.9 -97.05 -271 -98.1 -313.55
M -340 -448.65
Q -340.6 -436.72421875 -340.6 -424.55 -340.6 -353.4671875 -318.9 -291.35 -316.3849609375 -296.0982421875 -313.65 -300.9 -306.416796875 -313.303125 -298.3 -324.2 -311.048046875 -370.6763671875 -311.4 -422.3 -327.9431640625 -435.4671875 -340 -448.65
M -138.85 -505.35
Q -138.71953125 -505.11484375 -138.6 -504.9 -119.5533203125 -470.7341796875 -94.45 -451.15 -89.175 -447.0181640625 -83.65 -443.55 -71.775390625 -458.6630859375 -59.45 -472.5 -55.2296875 -477.213671875 -50.95 -481.8 -51.983203125 -482.6287109375 -53 -483.5 -61.8853515625 -490.8896484375 -70 -500.2 -82.8341796875 -514.88828125 -93.7 -534.3 -113.85 -525.33984375 -133.85 -513.9 -186.816015625 -483.5478515625 -238.5 -435.75 -221.589453125 -410.5037109375 -202.75 -392.95 -174.3634765625 -366.507421875 -141.6 -357.55 -127.9 -381 -113.65 -402.2 -113.692578125 -402.216015625 -113.75 -402.25 -140.225 -412.240625 -161.6 -434.45 -177.678125 -451.227734375 -190.85 -474.95 -177.678125 -451.227734375 -161.6 -434.45 -140.225 -412.240625 -113.75 -402.25 -113.692578125 -402.216015625 -113.65 -402.2
L -113.65 -402.25
Q -107.9890625 -410.61328125 -102.25 -418.65 -93.068359375 -431.54609375 -83.65 -443.55 -89.175 -447.0181640625 -94.45 -451.15 -119.5533203125 -470.7341796875 -138.6 -504.9 -138.71953125 -505.11484375 -138.85 -505.35
M -299.2 -413.05
Q -305.57421875 -417.6765625 -311.4 -422.3 -311.048046875 -370.6763671875 -298.3 -324.2 -287.4505859375 -338.68359375 -275.05 -350.5 -280.94140625 -375.7845703125 -282.65 -401.65 -291.353515625 -407.340234375 -299.2 -413.05
M -299.2 -413.05
Q -306.0578125 -424.587890625 -311.25 -436.35 -332.230078125 -483.789453125 -326.15 -534.75 -320.722265625 -579.7919921875 -294.1 -627.6 -421.7392578125 -538.169140625 -340 -448.65 -327.9431640625 -435.4671875 -311.4 -422.3 -305.57421875 -417.6765625 -299.2 -413.05
M -167.8 -717.5
Q -178.80859375 -725.5509765625 -196.85 -730.95 -271.6267578125 -753.4263671875 -466.8 -730.35
L -389.6 -695.95
Q -267.15 -697.7 -281.15 -636.4 -280.54765625 -636.794921875 -279.95 -637.2 -262.2748046875 -648.6900390625 -241.15 -660.05 -239.05 -661.95 -236.95 -663.75 -218.4556640625 -679.45703125 -198 -691.1 -179.152734375 -701.7666015625 -158.65 -709 -162.376171875 -713.566796875 -167.8 -717.5
M 216.95 -128.3
Q 187.94140625 -136.6892578125 164.25 -143.75 75.6708984375 -109.2861328125 -20.95 -135.2 -59.6171875 -145.5515625 -92.35 -163.65
L -92.35 -146.8
Q -61.15 -154.85 -49.85 -134.2 -44.170703125 -115.129296875 -56.35 -106.25 -44.4109375 -102.18515625 -31.95 -98.85 99.175390625 -63.69609375 216.95 -128.3
M 242.6 -120.9
Q 229.3072265625 -124.7146484375 216.95 -128.3 99.175390625 -63.69609375 -31.95 -98.85 -44.4109375 -102.18515625 -56.35 -106.25 -62.992578125 -101.35859375 -75.05 -99.55 -93.069921875 -96.9568359375 -109.25 -95.2 -33.9966796875 -56.65 57.2 -56.65 170.9537109375 -56.65 259.85 -116.7 251.31640625 -118.40390625 242.6 -120.9
M 304.65 -112.8
Q 282.865234375 -111.9951171875 259.85 -116.7 170.9537109375 -56.65 57.2 -56.65 -33.9966796875 -56.65 -109.25 -95.2 -138.3396484375 -91.954296875 -161.4 -91.35 -65.4677734375 -26.75 57.25 -26.75 198.7212890625 -26.75 304.65 -112.8
M 10.45 -168.2
Q 59.1474609375 -155.1177734375 105.2 -161.75 85.9216796875 -167.9078125 74.85 -171.95 37.55 -185.6 -6.8 -201.4 -40.5755859375 -213.4193359375 -83.35 -219.05
L -76.65 -212.8 -77.25 -211.95
Q -39.832421875 -181.6423828125 10.45 -168.2
M 105.2 -161.75
Q 59.1474609375 -155.1177734375 10.45 -168.2 -39.832421875 -181.6423828125 -77.25 -211.95
L -92.35 -189.25 -92.35 -163.65
Q -59.6171875 -145.5515625 -20.95 -135.2 75.6708984375 -109.2861328125 164.25 -143.75 128.6744140625 -154.287890625 105.2 -161.75
M 128.45 -328.9
Q 143.6751953125 -339.593359375 150.25 -357
L 95.55 -341.7
Q 110.13203125 -335.9744140625 128.45 -328.9
M 131.25 -327.75
Q 146.2439453125 -321.9759765625 160.7 -317.2 184.9755859375 -337.1435546875 193.6 -369.15
L 150.25 -357
Q 143.6751953125 -339.593359375 128.45 -328.9 129.3642578125 -328.5126953125 130.3 -328.15 130.85 -328 131.25 -327.75
M 228.7 -357.4
Q 231.791015625 -368.915234375 233.2 -380.2
L 193.6 -369.15
Q 184.9755859375 -337.1435546875 160.7 -317.2 182.959765625 -309.798828125 203.9 -304.75 220.7736328125 -327.6701171875 228.7 -357.4
M 259.65 -344.4
Q 265.780078125 -367.310546875 266.3 -389.5
L 233.2 -380.2
Q 231.791015625 -368.915234375 228.7 -357.4 220.7736328125 -327.6701171875 203.9 -304.75 222.723046875 -300.23828125 240.45 -297.6 252.823828125 -318.870703125 259.65 -344.4
M 295.25 -383.05
Q 288.780078125 -385.402734375 287.7 -395.5
L 266.3 -389.5
Q 265.780078125 -367.310546875 259.65 -344.4 252.823828125 -318.870703125 240.45 -297.6 252.6560546875 -295.77578125 264.35 -294.85 274.7912109375 -294.023828125 284.8 -293.95 293.8541015625 -313.314453125 299.7 -335.15 306.88125 -361.9734375 308.05 -388 301.5330078125 -380.804296875 295.25 -383.05
M 305.9 -631.45
L 306.9 -631.15
Q 310.183984375 -636.910546875 316.35 -636.35 319.04453125 -636.105078125 321.5 -634.75 254.35 -722.030078125 143.05 -751.85 10.699609375 -787.273828125 -108.25 -721.15 -87.6021484375 -724.05 -65.55 -724.05 -46.631640625 -724.05 -24.9 -721.35 52.66875 -743.99375 136.2 -721.65 192.326171875 -706.590625 235.95 -675.3
L 235.95 -711.1 305.9 -631.45
M 235.95 -675.3
L 235.95 -651.9 305.9 -631.45 235.95 -711.1 235.95 -675.3
M 235.95 -651.9
L 235.95 -675.3
Q 192.326171875 -706.590625 136.2 -721.65 52.66875 -743.99375 -24.9 -721.35 16.2478515625 -716.147265625 67.5 -701.2
L 235.95 -651.9
M 531.1 -554.5
Q 531.25 -549.9376953125 531.25 -545.1 531.25 -543.3033203125 531.2 -541.55
L 551.45 -546.4
Q 551.0072265625 -549.3484375 551 -552.5
L 531.1 -554.5
M 531.1 -554.5
Q 530.6056640625 -574.4181640625 527.8 -589.3 524.3 -607.6 519.45 -607.6 514.5 -607.6 511.05 -589.3 508.4115234375 -575.3041015625 507.8 -556.85 507.6 -551.1916015625 507.6 -545.1 507.6 -540.3904296875 507.7 -535.95 508.228515625 -515.916015625 511.05 -500.95 514.5 -482.65 519.45 -482.65 524.3 -482.65 527.8 -500.95 531.01015625 -517.978125 531.2 -541.55 531.25 -543.3033203125 531.25 -545.1 531.25 -549.9376953125 531.1 -554.5
M 629.7 -552.6
Q 629.7 -568.95 618.15 -580.5 606.7 -591.95 590.35 -591.95 578.35 -591.95 569 -585.75 565.55 -583.55 562.5 -580.5 551 -568.95 551 -552.6 551 -552.54765625 551 -552.5 551.0072265625 -549.3484375 551.45 -546.4 552.3693359375 -540.040625 555.25 -534.55 558 -529.3 562.5 -524.8 574.05 -513.25 590.35 -513.25 606.7 -513.25 618.15 -524.8 629.7 -536.3 629.7 -552.6
M 398.15 -567.95
L 430.85 -564.65
Q 401.9736328125 -642.4306640625 338.5 -705.85 221.95 -822.45 57.25 -822.45 -88.774609375 -822.45 -196.85 -730.95 -178.80859375 -725.5509765625 -167.8 -717.5 -71.1009765625 -793.75 57.2 -793.75 209.8 -793.75 317.7 -685.75 371.1564453125 -632.3431640625 398.15 -567.95
M 461.75 -530.95
Q 461.75 -527.9134765625 461.7 -524.95
L 507.7 -535.95
Q 507.6 -540.3904296875 507.6 -545.1 507.6 -551.1916015625 507.8 -556.85
L 461 -561.6
Q 461.75 -547.2392578125 461.75 -530.95
M 432.75 -564.45
L 430.85 -564.65 398.15 -567.95 360.45 -571.8 342.45 -573.6
Q 344.3142578125 -554.2408203125 343.6 -531.9
L 430 -538.9 343.6 -531.9
Q 343.226953125 -518.78984375 341.95 -504.65 341.5556640625 -500.3322265625 341.1 -496.15
L 353.75 -499.15 384.7 -506.55 415.7 -513.95 432 -517.85
Q 431.9 -524.2337890625 431.9 -530.95 431.9 -548.8763671875 432.75 -564.45
M 457.35 -599.35
Q 453 -627.7 446.8 -627.7 440.6 -627.7 436.2 -599.35 433.824609375 -583.689453125 432.75 -564.45 431.9 -548.8763671875 431.9 -530.95 431.9 -524.2337890625 432 -517.85 432.62109375 -486.1458984375 436.2 -462.55 440.6 -434.2 446.8 -434.2 451.065625 -434.2 454.45 -447.75 455.881640625 -453.4125 457.15 -461.45 457.25 -462 457.35 -462.55 458.45 -469.85 459.3 -477.85 461.5 -498.816796875 461.7 -524.95 461.75 -527.9134765625 461.75 -530.95 461.75 -547.2392578125 461 -561.6 459.9603515625 -582.5306640625 457.35 -599.35
M 348.4 -594.4
Q 341.062109375 -607.095703125 333 -618.85 336.591796875 -609.9283203125 339.2 -596.45 341.319921875 -585.5978515625 342.45 -573.6
L 360.45 -571.8
Q 354.8927734375 -583.153515625 348.4 -594.4
M 333 -618.85
Q 341.062109375 -607.095703125 348.4 -594.4 354.8927734375 -583.153515625 360.45 -571.8
L 398.15 -567.95
Q 371.1564453125 -632.3431640625 317.7 -685.75 209.8 -793.75 57.2 -793.75 -71.1009765625 -793.75 -167.8 -717.5 -162.376171875 -713.566796875 -158.65 -709 -134.5953125 -717.438671875 -108.25 -721.15 10.699609375 -787.273828125 143.05 -751.85 254.35 -722.030078125 321.5 -634.75 328.1509765625 -630.9765625 333 -618.85
M 773.65 -318.6
L 794.55 -396.65 887.95 -321 781.05 -456.9 764.4 -394.7 680.9 -471 773.65 -318.6
M 788.65 -583.1
L 680.9 -549 859.3 -553 802.1 -610.2 914.35 -653.25 743.2 -628.65 788.65 -583.1
M 769.75 -770.55
L 710.7 -786.4 783.2 -865.75 638.45 -777.7 712.55 -757.85 640.8 -669.15 769.75 -770.55 Z"/>
</g>

<g id="lasergun_0_Layer2_0_STROKES_1_FILL">
<path fill="#000000" stroke="none" d="
M -204.15 -605.6
L -206.8 -604.2 -207 -604.05 -207.1 -604 -207.2 -603.9 -208 -603.3 -210.25 -601.15 -212.3 -598.25 -212.35 -598.2 -212.35 -598.15 -212.4 -598.1 -213.7 -595.85 -214.95 -592.7 -215 -592.45 -215.1 -592.2 -215.75 -589.05 -215.95 -586.75
Q -216 -585.6 -215.95 -584.4
L -215.9 -583.15 -215.7 -581.95
Q -215.55 -580.65 -215.25 -579.45
L -214.45 -576.65 -214.3 -576.35 -213.8 -575.1 -213.65 -574.6 -213.6 -574.5 -213.5 -574.4 -213.5 -574.35 -213.45 -574.25 -213.35 -573.95 -212.8 -572.75 -212.45 -572.2
Q -211.55 -570.6 -211 -569.85 -210.3 -568.75 -209.35 -567.55
L -209.25 -567.4 -209.1 -567.3 -208.4 -566.45 -204.55 -562.95 -200.1 -560.2 -196 -558.55 -195.65 -558.45 -195.55 -558.4 -195.45 -558.4 -195.25 -558.3 -194.3 -558.05 -194.2 -558 -194.1 -558 -193.85 -557.9 -193.8 -557.9 -191.7 -557.5 -191.35 -557.4 -185.2 -557.05 -184.8 -557.1 -184.45 -557.1 -183.7 -557.2 -183.35 -557.2 -183.15 -557.25 -183 -557.25
Q -181.85 -557.4 -180.15 -557.8 -179.2 -558 -177.4 -558.6
L -176.75 -558.8 -174.85 -559.65
Q -174.4 -559.85 -172.5 -560.85
L -169.75 -562.7 -169.65 -562.8 -169.55 -562.85 -169.3 -563.1 -169.25 -563.1 -169.25 -563.15 -169.15 -563.2 -167.1 -564.95 -164.25 -568.2 -162.6 -570.75 -162.35 -571.25 -162.2 -571.45 -162.1 -571.7 -161.95 -571.9 -160.35 -576.25
Q -159.95 -578.2 -159.8 -579.55
L -159.75 -582.4
Q -159.75 -583 -160 -584.75
L -160.25 -586.2 -161.05 -588.75 -161.2 -589 -161.35 -589.05 -164 -585.75
Q -164.8 -584.75 -165.35 -584.25
L -166.95 -582.6
Q -167.95 -581.7 -168.8 -581.1
L -170.6 -579.9 -170.85 -579.7 -171.95 -579.1 -175.5 -577.6 -177.3 -577.05 -177.25 -577.1 -177.3 -577.1 -177.35 -577.05 -177.45 -577 -177.8 -576.9 -177.85 -576.9 -178.15 -576.85 -178.2 -576.8 -178.3 -576.8 -178.45 -576.75 -178.6 -576.75 -179.1 -576.65 -179.4 -576.55
Q -179.85 -576.5 -180.7 -576.4
L -181 -576.35 -181.3 -576.35 -181.6 -576.3 -183.1 -576.25 -185 -576.4 -185.15 -576.45 -185.45 -576.45 -187.25 -576.8 -187.55 -576.9 -187.9 -576.95 -188.65 -577.15 -188.7 -577.2 -188.85 -577.2 -189.2 -577.35 -189.25 -577.35 -189.4 -577.4 -189.5 -577.45 -190.55 -577.8 -190.8 -577.95 -191.1 -578.05 -191.35 -578.2 -191.45 -578.2 -191.5 -578.25 -191.65 -578.3 -191.9 -578.45 -192.05 -578.5 -192.15 -578.55 -192.3 -578.6 -192.45 -578.7 -193.95 -579.55 -194.15 -579.75 -194.55 -580 -194.65 -580.05 -194.8 -580.15 -194.9 -580.25 -197.25 -582.3 -197.45 -582.55 -197.95 -583.05 -198.05 -583.2 -198.1 -583.2 -198.15 -583.25 -198.6 -583.85 -198.95 -584.2 -199.35 -584.75 -199.45 -584.85 -199.85 -585.4
Q -200.3 -585.9 -200.55 -586.45
L -200.7 -586.7 -200.9 -586.95 -200.95 -587.1 -201.2 -587.5
Q -201.5 -587.95 -201.8 -588.6
L -202.8 -590.9 -203.35 -592.75 -203.4 -593.05 -203.5 -593.35 -203.6 -594 -203.7 -594.3 -204 -595.85 -204 -596.2 -204.2 -597.7 -204.2 -598.25 -204.25 -598.55 -204.25 -598.8 -204.3 -599.35 -204 -605.45 -204.15 -605.6
M 227.25 -398.65
Q 230.65 -399.65 233.15 -400.5
L 265.05 -411 276.85 -415.3 276.8 -415.45 274.4 -415.25
Q 273.85 -415.25 273.55 -415.2
L 224.9 -409.1 190.5 -403.55
Q 175.2 -400.9 159.4 -397.85 140.75 -394.3 126.25 -391.2 110.85 -388 92.15 -383.8 77.95 -380.55 58.2 -375.8 39.6 -371.25 25.4 -367.5 6.45 -362.5 -5.05 -359.2
L -38.45 -349.4
Q -41.85 -348.4 -44.35 -347.55
L -88.05 -332.75 -88 -332.6 -85.6 -332.8
Q -85.05 -332.8 -84.75 -332.85
L -1.7 -344.5
Q 13.75 -347.15 29.35 -350.2 48 -353.75 62.5 -356.85 77.9 -360.05 96.6 -364.25 110.8 -367.5 130.55 -372.25 149.15 -376.8 163.35 -380.55 182.15 -385.5 193.85 -388.85
L 227.25 -398.65
M 60.2 -411
Q 50.25 -408.55 38.25 -405.25
L -4.45 -392.15
Q -7.15 -391.25 -8.4 -390.75
L -29.65 -382.8 -37.45 -379.4 -37.4 -379.25 -26.45 -379.65
Q -22.8 -379.9 -20.7 -380 -19.6 -380.1 -19.1 -380.1
L -6.3 -381.25
Q -3.55 -381.55 -2.15 -381.7
L 11.3 -383.25 42.1 -387.9
Q 54.55 -390.05 64.45 -392 76.7 -394.45 87.35 -396.8 98.4 -399.25 110.2 -402.15 120.15 -404.6 132.15 -407.9
L 162.05 -416.75 174.9 -421
Q 176.25 -421.5 178.85 -422.4
L 200.1 -430.35 207.9 -433.75 207.85 -433.9 196.9 -433.5
Q 193.25 -433.25 191.15 -433.15 190.05 -433.05 189.55 -433.05
L 176.75 -431.9
Q 174 -431.6 172.6 -431.45
L 128.3 -425.25
Q 115.85 -423.1 105.95 -421.15 93.7 -418.7 83.05 -416.35 72 -413.9 60.2 -411
M 430.8 -528.9
L 429.15 -548.85 336.75 -531.4 336.8 -531.25 430.8 -528.9 Z"/>
</g>

<g id="lasergun_0_Layer1_0_FILL">
<path fill="#FFFFFF" stroke="none" d="
M 325.15 791.25
Q 489.85 791.25 606.4 674.65 722.95 558.15 722.95 393.45 722.95 228.6 606.4 112.15 489.85 -4.45 325.15 -4.45 160.3 -4.45 43.85 112.15 -72.7 228.6 -72.7 393.45 -72.7 558.15 43.85 674.65 160.3 791.25 325.15 791.25
M 325.1 24.25
Q 477.7 24.25 585.6 132.25 693.6 240.15 693.6 392.85 693.6 545.45 585.6 653.35 477.7 761.35 325.1 761.35 172.4 761.35 64.5 653.35 -43.5 545.45 -43.5 392.85 -43.5 240.15 64.5 132.25 172.4 24.25 325.1 24.25
M 585.6 132.25
Q 477.7 24.25 325.1 24.25 172.4 24.25 64.5 132.25 -43.5 240.15 -43.5 392.85 -43.5 545.45 64.5 653.35 172.4 761.35 325.1 761.35 477.7 761.35 585.6 653.35 693.6 545.45 693.6 392.85 693.6 240.15 585.6 132.25 Z"/>
</g>

<g id="lasergun_0_Layer1_2_FILL">
<path fill="#FFFFFF" stroke="none" d="
M 654.65 430.7
Q 654.65 430.6 654.65 430.45 654.3 429.85 653.9 429.3 653.35 428.65 652.65 428.25 651.95 427.95 651.25 427.85 650.55 427.85 649.75 428.1 649.15 428.4 648.65 428.9 647.95 429.5 647.55 430.4 647.15 431.35 647.15 432.25 647.25 432.65 647.25 433.15 647.5 435.55 648.1 437.9 648.75 440.3 649.3 442.7 649.75 445.25 650.25 447.8 650.6 450.35 651.1 452.85 651.5 455.6 651.95 458.25 651.9 463.85 651.9 469.5 651.9 475.6 651.9 481.65 651.7 481.85 651.65 482.05 651.55 482.2 651.55 482.35 651.5 482.45 651.4 482.7 651.35 482.85 651.25 483 651.25 483.15 651.25 483.3 651.25 483.55 651.15 483.7 651.15 483.85 651.15 484 651.15 484.25 651.1 484.35 651.1 484.55 651.1 484.8 651 484.95 651 485.1
L 651 485.2
Q 650.95 485.35 650.85 485.6 650.85 485.65 650.8 485.85 650.7 486 650.6 486.2 650.6 486.3 650.6 486.45 650.55 486.7 650.55 486.85 650.45 487 650.45 487.15 650.4 487.3 650.4 487.55 650.4 487.65 650.4 487.85 650.4 488.05 650.3 488.2 650.3 488.35 650.3 488.5 650.3 488.65 650.3 488.75 650.25 488.95 650.15 489.05 650.05 489.2 650 489.35 649.9 489.6 649.9 489.7 649.85 489.85 649.75 490.05 649.75 490.25 649.75 490.3 649.7 490.4 649.7 490.6 649.7 490.85 649.6 490.95 649.6 491.15 649.6 491.35 649.3 491.7 649.15 492.25 648.8 492.9 648.6 493.45 648.25 494.15 648.1 494.95 647.95 495.55 647.95 496.35 647.95 497.05 647.95 497.7 647.95 498.3 647.95 498.95 647.95 499.5 647.95 499.9 648.25 501 648.9 501.95 649.7 502.85 650.8 503.25 651.25 503.4 651.8 503.4 600.5 528.55 532.25 523.15 472.25 518.4 399.15 490.25 398.75 490 398.2 489.85 338.6 466.75 317.85 458.25 52.4 348.8 -45.75 517.1 -107.75 625.95 -51.95 702.5 -5.85 623.5 72.6 602.6 -5.85 623.5 -51.95 702.5 -14.35 735.2 89.15 647.75 89.85 647.85 90.65 647.6 91.85 647.3 92.7 646.35 93.35 645.65 93.65 644.8 93.8 644.15 93.8 643.7 93.95 642.8 93.8 642.05 93.65 641.65 93.5 641.35 93.35 640.95 93.15 640.65 93.1 640.25 92.95 639.9 92.7 639.55 92.6 639.2 92.45 638.8 92.3 638.5 92.15 637.65 91.85 636.8 91.7 636.15 91.35 635.45 91.15 634.75 90.8 634.05 90.5 633.4 90.1 632.75 89.65 632.05 89.15 631.3 89.15 631.05 89.15 630.9 89 630.75 89 630.55 88.95 630.35 88.85 630.2 88.75 630 88.6 629.85 88.6 629.7 88.55 629.65 88.55 629.45 88.45 629.45 88.45 628.85 88.3 628.2 88.15 627.5 88 627.05 87.85 626.5 87.65 625.95 87.45 625.4 87.3 624.85 87.1 624.35 86.9 624.05 86.9 623.9 86.8 623.65 86.75 623.5 86.75 623.45 86.65 623.25 86.65 623.1 86.55 622.95 86.5 622.9 86.5 622.65 86.4 622.5 86.35 622.35 86.25 622.25 86.25 622.15 86.2 622 86.2 621.55 86.2 621 86.2 620.05 85.85 619.25 85.55 618.5 85 617.85 84.35 617.15 83.6 616.85 82.8 616.45 81.95 616.6 80.85 616.65 79.9 617.45 79.9 617.3 79.9 617.15 79.9 616.6 79.9 616.1 79.9 615.5 79.9 614.95 79.8 614.3 79.75 613.75 79.65 613.15 79.5 612.65 79.45 612.1 79.2 611.65
L 79.2 611.4
Q 79.2 608.6 79.2 605.75 79.1 603.25 77.25 602.05 76.85 601.75 76.5 601.65 113.1 592.65 156.8 596.1 216.7 600.8 261.1 616.6 305.45 632.4 342.75 646.05 380 659.65 510.5 697.1 641.1 734.5 734.8 602.15 796.7 493.3 740.95 416.7 706.75 475.4 654.65 502 706.75 475.4 740.95 416.7 714.3 393.55 654.65 430.7 Z"/>
</g>

<g id="lasergun_0_Layer1_3_FILL">
<path fill="#FFFFFF" stroke="none" d="
M 568.65 248.35
L 573.35 249.6 575.95 239.95 566.45 238.9 568.65 248.35
M 579.25 251.15
L 574.5 249.9 592.35 325.85 837.2 267.35 581.8 241.5 579.25 251.15
M 503.85 106.9
L 503.85 166.35 573.95 186.75 503.85 106.9 Z"/>
</g>

<g id="lasergun_0_Layer1_4_FILL">
<path fill="#FFFFFF" stroke="none" d="
M -25.65 190
Q -25.95 190.15 -26.2 190.4 -90.35 305.6 -31.3 404.95 -20.1 413.1 -7.1 421.25
L -1.3 412.4
Q -39.95 363 -39.95 300 -39.95 238.15 -2.65 189.35
L -6.5 186.6
Q -6.9 186.3 -7.2 186.05 -10.25 183.8 -13.25 181.6 -19.7 185.75 -25.65 190
M 579.85 188.35
L 335.4 116.8
Q 257.05 93.95 202.35 93.95 152.15 93.95 109.25 109 66.45 124.1 30.95 154.25 28.85 156.05 26.75 157.95 9.9 172.85 -2.65 189.35 -39.95 238.15 -39.95 300 -39.95 363 -1.3 412.4 14 396.55 29.4 382.25 100.55 316.45 174.2 283.7 247.55 251 323.45 251.25 303.2 262.55 283.8 276.6 267.3 288.55 251.4 302.6 233.85 318.15 216.95 336.2 200.2 354.15 184.25 374.45 168.95 393.95 154.25 415.8 140 437 126.3 460.45 117.65 475.3 109.25 491 137.95 501.05 169.8 504.45 185.7 506.1 202.35 506.1 257.05 506.1 350 480.1
L 583 414.85 579.85 188.35
M 352.1 189.35
Q 352.1 181.75 357.45 176.3 362.85 171 370.5 171 378.1 171 383.45 176.3 388.85 181.75 388.85 189.35 388.85 196.95 383.45 202.3 378.1 207.75 370.5 207.75 362.85 207.75 357.45 202.3 352.1 196.95 352.1 189.35
M 181.6 173.9
Q 189.2 166.25 200 166.25 210.75 166.25 218.35 173.9 225.95 181.5 225.95 192.25 225.95 203 218.35 210.65 210.75 218.25 200 218.25 189.2 218.25 181.6 210.65 174 203 174 192.25 174 181.5 181.6 173.9
M 266.8 180
Q 266.8 170.45 273.55 163.6 280.4 156.85 290 156.85 299.55 156.85 306.3 163.6 313.15 170.45 313.15 180 313.15 189.6 306.3 196.35 299.55 203.2 290 203.2 280.4 203.2 273.55 196.35 266.8 189.6 266.8 180
M 108.15 202
Q 119.7 213.55 119.7 229.9 119.7 246.2 108.15 257.75 96.65 269.3 80.3 269.3 63.95 269.3 52.4 257.75 40.85 246.2 40.85 229.9 40.85 213.55 52.4 202 63.95 190.45 80.3 190.45 96.65 190.45 108.15 202
M 119.7 229.9
Q 119.7 213.55 108.15 202 96.65 190.45 80.3 190.45 63.95 190.45 52.4 202 40.85 213.55 40.85 229.9 40.85 246.2 52.4 257.75 63.95 269.3 80.3 269.3 96.65 269.3 108.15 257.75 119.7 246.2 119.7 229.9
M 273.55 163.6
Q 266.8 170.45 266.8 180 266.8 189.6 273.55 196.35 280.4 203.2 290 203.2 299.55 203.2 306.3 196.35 313.15 189.6 313.15 180 313.15 170.45 306.3 163.6 299.55 156.85 290 156.85 280.4 156.85 273.55 163.6
M 200 166.25
Q 189.2 166.25 181.6 173.9 174 181.5 174 192.25 174 203 181.6 210.65 189.2 218.25 200 218.25 210.75 218.25 218.35 210.65 225.95 203 225.95 192.25 225.95 181.5 218.35 173.9 210.75 166.25 200 166.25
M 357.45 176.3
Q 352.1 181.75 352.1 189.35 352.1 196.95 357.45 202.3 362.85 207.75 370.5 207.75 378.1 207.75 383.45 202.3 388.85 196.95 388.85 189.35 388.85 181.75 383.45 176.3 378.1 171 370.5 171 362.85 171 357.45 176.3
M -31.3 404.95
Q -90.35 305.6 -26.2 190.4 -179.2 297.6 -31.3 404.95
M 129.9 595.85
L 107.95 613.05 129.9 643 112.65 671.2 175.55 671.2 175.55 628.75 191.25 605.2 181.05 595.7 129.9 595.85
M 30.95 445.7
L 25.25 446.95
Q 56.65 602.7 23.65 661.85 10.95 701.75 38.65 718.45 77.15 735.1 192.85 718.45 226.85 713.35 218.05 683.8 206.75 663.15 175.55 671.2
L 112.65 671.2 129.9 643 107.95 613.05 129.9 595.85 129.9 595.8 111.1 572.15 128.35 548.6 109.25 531.2 109.25 491
Q 66.45 475.85 30.95 445.7
M 109.25 491
Q 117.65 475.3 126.3 460.45 71.8 445.55 29.4 382.25 14 396.55 -1.3 412.4 9.6 426.4 23.65 439.25 27.2 442.5 30.95 445.7 66.45 475.85 109.25 491
M 170.9 547.1
L 170.85 547 169.8 504.45
Q 137.95 501.05 109.25 491
L 109.25 531.2 128.35 548.6 170.9 547.1
M 188.1 564.3
L 170.9 547.1 128.35 548.6 111.1 572.15 129.9 595.8 129.9 595.85 181.05 595.7 170.85 586.3 188.1 564.3
M 184.25 374.45
Q 200.2 354.15 216.95 336.2 192.7 316.75 174.2 283.7 100.55 316.45 29.4 382.25 71.8 445.55 126.3 460.45 140 437 154.25 415.8 107.7 398.25 77.05 343.05 107.7 398.25 154.25 415.8 168.95 393.95 184.25 374.45 152.15 354.3 129.05 312.65 152.15 354.3 184.25 374.45
M 283.8 276.6
Q 303.2 262.55 323.45 251.25 247.55 251 174.2 283.7 192.7 316.75 216.95 336.2 233.85 318.15 251.4 302.6 238.45 287.7 227.45 267.9 238.45 287.7 251.4 302.6 267.3 288.55 283.8 276.6 278.3 268.6 273.25 259.5 278.3 268.6 283.8 276.6
M 26.75 157.95
Q 28.85 156.05 30.95 154.25 66.45 124.1 109.25 109 66.25 56.3 -198.9 87.65
L -121.7 122.05
Q 0.75 120.3 -13.25 181.6 4.9 169.7 26.75 157.95 Z"/>
</g>

<g id="lasergun_0_Layer1_5_FILL">
<path fill="#FFFFFF" stroke="none" d="
M 609.85 313.35
Q 614.65 260.2 607.1 221.55 599.65 183.05 584.25 181.65 568.85 180.25 571.45 218.4 573.95 256.5 571.3 306.3 568.55 356.1 559.3 393.15 549.95 430.15 563.15 434.95 576.3 439.65 590.6 402.95 605 366.45 609.85 313.35 Z"/>
</g>

<g id="lasergun_0_Layer1_6_FILL">
<path fill="#FFFFFF" stroke="none" d="
M 886.05 237.5
Q 874.6 226.05 858.25 226.05 846.25 226.05 836.9 232.25 833.45 234.45 830.4 237.5 818.9 249.05 818.9 265.4 818.9 275.35 823.15 283.45 825.9 288.7 830.4 293.2 841.95 304.75 858.25 304.75 874.6 304.75 886.05 293.2 897.6 281.7 897.6 265.4 897.6 249.05 886.05 237.5
M 704.1 218.65
Q 699.8 247 699.8 287.05 699.8 327.1 704.1 355.45 708.5 383.8 714.7 383.8 720.75 383.8 725.05 356.55 725.15 356 725.25 355.45 726.35 348.15 727.2 340.15 729.65 316.8 729.65 287.05 729.65 247 725.25 218.65 720.9 190.3 714.7 190.3 708.5 190.3 704.1 218.65
M 795.7 228.7
Q 792.2 210.4 787.35 210.4 782.4 210.4 778.95 228.7 775.5 247 775.5 272.9 775.5 298.75 778.95 317.05 782.4 335.35 787.35 335.35 792.2 335.35 795.7 317.05 799.15 298.75 799.15 272.9 799.15 247 795.7 228.7 Z"/>
</g>

<g id="lasergun_0_Layer1_7_FILL">
<path fill="#FFFFFF" stroke="none" d="
M 1041.55 499.4
L 1062.45 421.35 1155.85 497 1048.95 361.1 1032.3 423.3 948.8 347 1041.55 499.4
M 1127.2 265
L 1070 207.8 1182.25 164.75 1011.1 189.35 1056.55 234.9 948.8 269 1127.2 265
M 1037.65 47.45
L 978.6 31.6 1051.1 -47.75 906.35 40.3 980.45 60.15 908.7 148.85 1037.65 47.45 Z"/>
</g>

<g id="lasergun_0_Layer1_8_STROKES_1_FILL">
<path fill="#000000" stroke="none" d="
M 90.7 246.5
L 87.4 247.4
Q 87.25 247.45 85.7 247.7 84.6 247.8 84 247.8
L 80.5 247.65 78.75 247.35
Q 77.2 247.05 75.3 246.3
L 72.1 244.8 71.35 244.3 70.95 244.1
Q 70.75 243.9 70.6 243.85
L 67.95 241.6 65.65 238.95 64.9 237.85 64.8 237.65 64.75 237.6 64.7 237.5 64.4 237.1 64 236.35 63.9 236.2 63 234.5 61.85 231.45 61.45 229.95 61 226.95 60.95 224.05 61.45 219.5 62.35 216 63.85 212.5 63.7 212.35 62.05 213.95 61.8 214.25 61.7 214.4 61.55 214.55 61 215.25 59.25 218.1 57.5 222.3 56.8 225.1
Q 56.55 226.55 56.45 228.65
L 56.65 232.55 57.6 236.6 58.7 239.45 58.8 239.6 59.3 240.65 59.35 240.7 59.35 240.75 59.4 240.8 59.5 241.05 61.6 244.35 63.05 246.15
Q 63.7 246.95 64.7 247.85
L 67 249.75 68.5 250.75
Q 70.5 252 72.8 252.85
L 74.8 253.55 74.95 253.55 75.3 253.7 75.45 253.7 75.5 253.75 75.65 253.75 79.75 254.5 80.3 254.55 84.45 254.5 86.75 254.15
Q 88.25 253.85 89 253.6
L 90.05 253.3 94.05 251.5 95.45 250.65 95.5 250.65 95.55 250.6 95.65 250.55 95.85 250.4 95.95 250.35 96.05 250.25 96.3 250.1 96.7 249.8
Q 97.6 249.2 98.3 248.6 99.9 247.25 101.1 245.9
L 102.65 243.95 102.75 243.75 103.25 243.05 104.05 241.6
Q 104.4 241 104.75 240.15 105.45 238.5 105.75 237.4
L 106.25 235.55 106.7 232 106.7 229.2 106.65 228.95 106.5 228.9 104.3 234.3 103.2 236.3
Q 102.3 237.7 101.75 238.4
L 100.45 240 96.55 243.45 93.2 245.4 93.1 245.4 93 245.45 92.8 245.6 92.7 245.65 92.6 245.65 92.25 245.85 92.05 245.9 91.65 246.1 91.45 246.15 90.7 246.5
M 179.8 485.2
L 179.85 485.35 224.95 476.85 329 454.95 363.05 447.35 474.9 420.85 544.75 402.65 544.7 402.5 466.8 417.65 361.5 440.5 327.5 448.3 230.15 471.9 179.8 485.2
M 475.75 384.05
L 456.25 387.2
Q 454 387.55 452.85 387.8
L 397.45 398.35 352.35 407.95
Q 341.85 410.25 329.5 413.15 318.85 415.55 307.4 418.35 297.8 420.6 286.75 423.4
L 230.4 438.55 230.45 438.7 249.95 435.55
Q 251.05 435.35 253.35 434.95
L 278.25 430.45 330.95 419.8 353.85 414.8
Q 364.35 412.5 376.7 409.6 387.35 407.2 398.8 404.4 408.4 402.15 419.45 399.35
L 475.8 384.2 475.75 384.05
M 698.15 282.55
L 697.6 275.6 604.65 286.55 604.7 286.7 698.15 282.55 Z"/>
</g>

<path id="lasergun_0_Layer2_0_1_STROKES" stroke="#000000" stroke-width="20" stroke-linejoin="round" stroke-linecap="round" fill="none" d="
M 783.2 -865.75
L 638.45 -777.7 712.55 -757.85 640.8 -669.15 769.75 -770.55 710.7 -786.4 783.2 -865.75 Z
M 680.9 -549
L 859.3 -553 802.1 -610.2 914.35 -653.25 743.2 -628.65 788.65 -583.1 680.9 -549 Z
M 680.9 -471
L 773.65 -318.6 794.55 -396.65 887.95 -321 781.05 -456.9 764.4 -394.7 680.9 -471 Z
M 360.475 -571.775
L 398.15 -567.95
Q 371.1564453125 -632.3431640625 317.7 -685.75 209.8 -793.75 57.2 -793.75 -71.1009765625 -793.75 -167.775 -717.5 -162.376171875 -713.566796875 -158.65 -709 -134.5953125 -717.438671875 -108.25 -721.15
M 321.5 -634.725
Q 328.1509765625 -630.9765625 333 -618.85 336.591796875 -609.9283203125 339.2 -596.45 341.319921875 -585.5978515625 342.475 -573.6
L 360.475 -571.775
M 432.75 -564.45
Q 433.824609375 -583.689453125 436.2 -599.35 440.6 -627.7 446.8 -627.7 453 -627.7 457.35 -599.35 459.9603515625 -582.5306640625 461.025 -561.6
L 507.8 -556.85
Q 508.4115234375 -575.3041015625 511.05 -589.3 514.5 -607.6 519.45 -607.6 524.3 -607.6 527.8 -589.3 530.6056640625 -574.4181640625 531.125 -554.5
L 551 -552.5
Q 551 -552.54765625 551 -552.6 551 -568.95 562.5 -580.5 565.55 -583.55 569 -585.75 578.35 -591.95 590.35 -591.95 606.7 -591.95 618.15 -580.5 629.7 -568.95 629.7 -552.6 629.7 -536.3 618.15 -524.8 606.7 -513.25 590.35 -513.25 574.05 -513.25 562.5 -524.8 558 -529.3 555.25 -534.55 552.3693359375 -540.040625 551.45 -546.375
L 531.225 -541.55
Q 531.01015625 -517.978125 527.8 -500.95 524.3 -482.65 519.45 -482.65 514.5 -482.65 511.05 -500.95 508.228515625 -515.916015625 507.725 -535.925
L 461.725 -524.95
Q 461.5 -498.816796875 459.3 -477.85 458.45 -469.85 457.35 -462.55 457.25 -462 457.15 -461.45 455.881640625 -453.4125 454.45 -447.75 454.862890625 -439.8509765625 455 -431.85 455.05 -428.205859375 455.05 -424.55 455.05 -417.051953125 454.8 -409.65 465.31796875 -408.0166015625 473.05 -401.3 528.8 -324.7 466.9 -215.85 396.2662109375 -116.0806640625 304.675 -112.775 198.7212890625 -26.75 57.25 -26.75 -65.4677734375 -26.75 -161.375 -91.35 -207.5587890625 -90.1693359375 -229.25 -99.55 -242.946484375 -107.807421875 -246.775 -121.725 -296.268359375 -94.99140625 -319.85 -115.5 -373.1884765625 -188.673046875 -318.9 -291.35 -340.6 -353.4671875 -340.6 -424.55 -340.6 -436.72421875 -339.975 -448.625 -421.7392578125 -538.169140625 -294.1 -627.6 -293.85 -627.85 -293.55 -628 -291.582421875 -629.4052734375 -289.55 -630.8 -285.4671875 -633.622265625 -281.15 -636.4 -267.15 -697.7 -389.6 -695.95
L -466.8 -730.35
Q -271.6267578125 -753.4263671875 -196.825 -730.95 -88.774609375 -822.45 57.25 -822.45 221.95 -822.45 338.5 -705.85 401.9736328125 -642.4306640625 430.875 -564.65
L 432.75 -564.45
Q 431.9 -548.8763671875 431.9 -530.95 431.9 -524.2337890625 432.025 -517.85 432.62109375 -486.1458984375 436.2 -462.55 440.6 -434.2 446.8 -434.2 451.065625 -434.2 454.45 -447.75
M 432.025 -517.85
L 415.7 -513.95
Q 424.1185546875 -478.31796875 425.45 -439.75 425.7 -432.499609375 425.7 -425.15 425.7 -415.5798828125 425.275 -406.175 442.07890625 -411.639453125 454.8 -409.65
M 461.025 -561.6
Q 461.75 -547.2392578125 461.75 -530.95 461.75 -527.9134765625 461.725 -524.95
M 353.775 -499.15
L 341.1 -496.125
Q 339.2298828125 -478.93046875 336.3 -463.575 331.14453125 -436.4546875 322.7 -415.05 315.232421875 -395.88515625 308.075 -388
M 284.825 -293.925
Q 309.7853515625 -293.643359375 332.3 -297.775
M 353.775 -499.15
L 384.7 -506.55 415.7 -513.95
M 343.625 -531.9
Q 343.226953125 -518.78984375 341.95 -504.65 341.5556640625 -500.3322265625 341.1 -496.125
M 342.475 -573.6
Q 344.3142578125 -554.2408203125 343.625 -531.9
M 398.15 -567.95
L 430.875 -564.65
M 425.275 -406.175
Q 410.3955078125 -401.3509765625 392.325 -390.675
M 531.125 -554.5
Q 531.25 -549.9376953125 531.25 -545.1 531.25 -543.3033203125 531.225 -541.55
M 551.45 -546.375
Q 551.0072265625 -549.3484375 551 -552.5
M 507.725 -535.925
Q 507.6 -540.3904296875 507.6 -545.1 507.6 -551.1916015625 507.8 -556.85
M -24.875 -721.325
Q 16.2478515625 -716.147265625 67.5 -701.2
L 235.95 -651.9 235.95 -675.275
M -24.875 -721.325
Q -46.631640625 -724.05 -65.55 -724.05 -87.6021484375 -724.05 -108.25 -721.15
M 235.95 -675.275
L 235.95 -711.1 305.9 -631.425 306.9 -631.125
Q 310.183984375 -636.910546875 316.35 -636.35 319.04453125 -636.105078125 321.5 -634.725
M -158.65 -709
Q -179.152734375 -701.7666015625 -197.975 -691.075 -218.4556640625 -679.45703125 -236.95 -663.75 -239.05 -661.95 -241.15 -660.05 -258 -645.15 -270.55 -628.65 -271.4783203125 -627.435546875 -272.375 -626.225 -307.85 -578.3107421875 -307.85 -518 -307.85 -504.248046875 -306 -491.15 -301.1234375 -456.37578125 -283.275 -426.175 -277.0265625 -415.603515625 -269.2 -405.6 -257.965234375 -417.238671875 -246.675 -428.05 -242.591796875 -431.950390625 -238.5 -435.75 -186.816015625 -483.5478515625 -133.825 -513.9 -113.85 -525.33984375 -93.7 -534.3 -57.0876953125 -550.6220703125 -19.85 -558.725 -3.9919921875 -562.1853515625 11.975 -564.15 33.6611328125 -566.8220703125 55.55 -566.75 39.4498046875 -557.765625 23.875 -547.05 19.8755859375 -544.279296875 15.9 -541.4 15.4220703125 -541.05390625 14.95 -540.7 -1.060546875 -529.0431640625 -16.5 -515.4 -34.05 -499.85 -50.95 -481.8 -55.2296875 -477.213671875 -59.45 -472.475 -71.775390625 -458.6630859375 -83.65 -443.55 -93.068359375 -431.54609375 -102.25 -418.65 -107.9890625 -410.61328125 -113.625 -402.225
L -113.65 -402.2
Q -127.9 -381 -141.6 -357.55 -150.25 -342.7 -158.65 -327 -129.95 -316.95 -98.1 -313.55 -82.2 -311.9 -65.55 -311.9 -10.85 -311.9 82.1 -337.9
L 95.55 -341.675 150.25 -356.975 193.625 -369.125 233.2 -380.2 266.325 -389.5 287.725 -395.5
Q 286.6328125 -405.9853515625 291.4 -424.85 296.882421875 -446.809375 300.075 -473.25 302.2798828125 -491.41640625 303.4 -511.7 306.05 -561.5 303.55 -599.6 301.991015625 -622.475 306.9 -631.125
M 235.95 -651.9
L 305.9 -631.425
M 45.25 -638
Q 45.25 -634.593359375 44.375 -631.55 42.819140625 -626.0046875 38.4 -621.65 31.65 -614.8 22.1 -614.8 12.5 -614.8 5.65 -621.65 4.915625 -622.384375 4.25 -623.15 -1.1 -629.4443359375 -1.1 -638 -1.1 -647.55 5.65 -654.4 12.5 -661.15 22.1 -661.15 31.65 -661.15 38.4 -654.4 45.25 -647.55 45.25 -638 Z
M 120.95 -628.65
Q 120.95 -627.898828125 120.9 -627.175 120.41640625 -620.5212890625 115.55 -615.7 110.2 -610.25 102.6 -610.25 94.95 -610.25 89.55 -615.7 84.2 -621.05 84.2 -628.65 84.2 -630.6103515625 84.55 -632.425 85.5798828125 -637.6556640625 89.55 -641.7 94.95 -647 102.6 -647 110.2 -647 115.55 -641.7 120.95 -636.25 120.95 -628.65 Z
M 5.35 -558.5
Q 7.5416015625 -554.55078125 9.825 -550.8 12.7869140625 -545.928125 15.9 -541.4
M 308.075 -388
Q 301.5330078125 -380.804296875 295.25 -383.05 288.780078125 -385.402734375 287.725 -395.5
M 240.475 -297.6
Q 252.6560546875 -295.77578125 264.35 -294.85 274.7912109375 -294.023828125 284.825 -293.925
M 203.925 -304.75
Q 222.723046875 -300.23828125 240.475 -297.6
M 128.45 -328.875
Q 129.3642578125 -328.5126953125 130.3 -328.15 130.85 -328 131.25 -327.75 146.2439453125 -321.9759765625 160.7 -317.175
M 95.55 -341.675
Q 110.13203125 -335.9744140625 128.45 -328.875
M -77.225 -211.95
L -92.35 -189.25 -92.35 -163.65
M 164.275 -143.725
Q 128.6744140625 -154.287890625 105.225 -161.75 85.9216796875 -167.9078125 74.85 -171.95 37.55 -185.6 -6.8 -201.4 -40.5755859375 -213.4193359375 -83.325 -219.025
L -76.65 -212.8 -77.225 -211.95
M 164.275 -143.725
Q 187.94140625 -136.6892578125 216.975 -128.275 229.3072265625 -124.7146484375 242.6 -120.9 251.31640625 -118.40390625 259.875 -116.675 282.865234375 -111.9951171875 304.675 -112.775
M 259.875 -116.675
Q 170.9537109375 -56.65 57.2 -56.65 -33.9966796875 -56.65 -109.225 -95.175 -138.3396484375 -91.954296875 -161.375 -91.35
M 160.7 -317.175
Q 182.959765625 -309.798828125 203.925 -304.75
M 473.05 -401.3
Q 463.11875 -384.2541015625 451.675 -369.925 434.9845703125 -348.9984375 415.075 -333.825 401.646875 -323.6056640625 386.75 -316
M 392.325 -390.675
Q 389.572265625 -389.0578125 386.75 -387.3
M 383.9 -314.6
Q 378.793359375 -312.096484375 373.525 -309.9 354.0546875 -301.776171875 332.3 -297.775
M -41.95 -625.75
Q -41.95 -615 -49.55 -607.35 -57.15 -599.75 -67.9 -599.75 -78.7 -599.75 -86.3 -607.35 -93.9 -615 -93.9 -625.75 -93.9 -636.5 -86.3 -644.1 -78.7 -651.75 -67.9 -651.75 -57.15 -651.75 -49.55 -644.1 -41.95 -636.5 -41.95 -625.75 Z
M -196.825 -730.95
Q -178.80859375 -725.5509765625 -167.775 -717.5
M -281.15 -636.4
Q -280.54765625 -636.794921875 -279.95 -637.2 -262.2748046875 -648.6900390625 -241.15 -660.05
M -280.675 -636.05
Q -280.3087890625 -636.6205078125 -279.95 -637.2
M -219.05 -611.975
Q -217.444140625 -614.055859375 -215.5 -616 -203.95 -627.55 -187.6 -627.55 -180.6072265625 -627.55 -174.5 -625.45 -166.331640625 -622.61015625 -159.75 -616 -150.012890625 -606.262890625 -148.475 -593.125 -148.2 -590.6662109375 -148.2 -588.1 -148.2 -571.8 -159.75 -560.25 -171.25 -548.7 -187.6 -548.7 -203.95 -548.7 -215.5 -560.25 -215.7814453125 -560.5314453125 -216.05 -560.825 -227.05 -572.197265625 -227.05 -588.1 -227.05 -601.698046875 -219.05 -611.975 Z
M -294.1 -627.6
Q -320.722265625 -579.7919921875 -326.125 -534.725 -332.230078125 -483.789453125 -311.25 -436.35 -306.0578125 -424.587890625 -299.2 -413.05 -291.353515625 -407.340234375 -282.625 -401.625 -278.892578125 -399.190234375 -275 -396.75 -260.65 -387.75 -244.25 -378.75 -258.3 -391.6 -269.2 -405.6
M -339.975 -448.625
Q -327.9431640625 -435.4671875 -311.4 -422.3 -305.57421875 -417.6765625 -299.2 -413.05
M -40.45 -550.1
Q -36.9677734375 -543.8322265625 -33.3 -538.05 -26.933984375 -528.06640625 -20 -519.55 -18.262890625 -517.4283203125 -16.5 -515.4
M -138.85 -505.35
Q -138.71953125 -505.11484375 -138.6 -504.875 -119.5533203125 -470.7341796875 -94.425 -451.125 -89.175 -447.0181640625 -83.65 -443.55
M -190.85 -474.95
Q -177.678125 -451.227734375 -161.575 -434.45 -140.225 -412.240625 -113.725 -402.225 -113.692578125 -402.216015625 -113.65 -402.2
M -93.7 -534.3
Q -82.8341796875 -514.88828125 -69.975 -500.175 -61.8853515625 -490.8896484375 -53 -483.475 -51.983203125 -482.6287109375 -50.95 -481.8
M -158.65 -327
L -158.65 -286.8 -139.55 -269.4 -97 -270.9 -97.05 -271 -98.1 -313.55
M -109.225 -95.175
Q -93.069921875 -96.9568359375 -75.05 -99.55 -62.992578125 -101.35859375 -56.325 -106.25 -44.170703125 -115.129296875 -49.85 -134.2 -61.15 -154.85 -92.35 -146.8
L -155.25 -146.8 -138 -175 -159.95 -204.95 -138 -222.15 -138 -222.2 -156.8 -245.85 -139.55 -269.4
M -138 -222.15
L -86.85 -222.3 -97.05 -231.7 -79.8 -253.7 -97 -270.9
M -83.325 -219.025
L -86.85 -222.3
M -242.55 -377.2
Q -243.3998046875 -377.9716796875 -244.25 -378.75 -243.8306640625 -376.7314453125 -243.4 -374.725 -242.81953125 -375.0712890625 -242.225 -375.425 -241.725 -375.7220703125 -241.225 -376.025 -241.889453125 -376.6072265625 -242.55 -377.2 Z
M -158.65 -327
Q -201.45 -342.15 -236.95 -372.3 -239.11640625 -374.1486328125 -241.225 -376.025
M -275.025 -350.5
Q -260.334765625 -364.465234375 -243.4 -374.725 -243.0306640625 -372.8814453125 -242.65 -371.05 -221.0716796875 -264.0169921875 -229.9 -202.6 -233.9279296875 -174.6515625 -244.25 -156.15 -250.6703125 -135.97890625 -246.775 -121.725
M -318.9 -291.35
Q -316.3849609375 -296.0982421875 -313.65 -300.9 -306.416796875 -313.303125 -298.275 -324.2 -311.048046875 -370.6763671875 -311.4 -422.3
M -298.275 -324.2
Q -287.4505859375 -338.68359375 -275.025 -350.5
M -319.85 -115.5
Q -294.79765625 -158.43125 -260.2 -184.2 -248.1677734375 -193.1640625 -234.975 -200.05 -232.4619140625 -201.3642578125 -229.9 -202.6
M -92.35 -146.8
L -92.35 -163.65
M -238.5 -435.75
Q -221.589453125 -410.5037109375 -202.75 -392.95 -174.3634765625 -366.507421875 -141.6 -357.55"/>

<path id="lasergun_0_Layer2_0_2_STROKES" stroke="#000000" stroke-width="20" stroke-linejoin="round" stroke-linecap="butt" fill="none" d="
M 333 -618.85
Q 341.062109375 -607.095703125 348.4 -594.4 354.8927734375 -583.153515625 360.475 -571.775
M -108.25 -721.15
Q 10.699609375 -787.273828125 143.05 -751.85 254.35 -722.030078125 321.5 -634.725
M 308.075 -388
Q 306.88125 -361.9734375 299.7 -335.15 293.8541015625 -313.314453125 284.825 -293.925
M 332.3 -297.775
Q 343.61015625 -322.3078125 351 -349.85 365.675390625 -404.7130859375 360.9 -457 358.946484375 -478.289453125 353.775 -499.15
M 384.7 -506.55
Q 392.073046875 -477.730859375 393.9 -448.175 395.6763671875 -419.765625 392.325 -390.675
M 235.95 -675.275
Q 192.326171875 -706.590625 136.2 -721.65 52.66875 -743.99375 -24.875 -721.325
M 266.325 -389.5
Q 265.780078125 -367.310546875 259.65 -344.4 252.823828125 -318.870703125 240.475 -297.6
M 233.2 -380.2
Q 231.791015625 -368.915234375 228.7 -357.4 220.7736328125 -327.6701171875 203.925 -304.75
M 193.625 -369.125
Q 184.9755859375 -337.1435546875 160.7 -317.175
M 150.25 -356.975
Q 143.6751953125 -339.593359375 128.45 -328.875
M 105.225 -161.75
Q 59.1474609375 -155.1177734375 10.45 -168.2 -39.832421875 -181.6423828125 -77.225 -211.95
M -92.35 -163.65
Q -59.6171875 -145.5515625 -20.95 -135.2 75.6708984375 -109.2861328125 164.275 -143.725
M 384 -344.975
Q 383.1125 -341.3935546875 382.15 -337.8 378.311328125 -323.4828125 373.525 -309.9
M -242.225 -375.425
Q -242.384375 -376.3103515625 -242.55 -377.2
M -275.025 -350.5
Q -280.94140625 -375.7845703125 -282.625 -401.625
M 216.975 -128.275
Q 99.175390625 -63.69609375 -31.95 -98.85 -44.4109375 -102.18515625 -56.325 -106.25"/>

<path id="lasergun_0_Layer1_0_1_STROKES" stroke="#000000" stroke-width="7" stroke-linejoin="round" stroke-linecap="round" fill="none" d="
M 693.6 392.85
Q 693.6 545.45 585.6 653.35 477.7 761.35 325.1 761.35 172.4 761.35 64.5 653.35 -43.5 545.45 -43.5 392.85 -43.5 240.15 64.5 132.25 172.4 24.25 325.1 24.25 477.7 24.25 585.6 132.25 693.6 240.15 693.6 392.85 Z
M 722.95 393.45
Q 722.95 558.15 606.4 674.65 489.85 791.25 325.15 791.25 160.3 791.25 43.85 674.65 -72.7 558.15 -72.7 393.45 -72.7 228.6 43.85 112.15 160.3 -4.45 325.15 -4.45 489.85 -4.45 606.4 112.15 722.95 228.6 722.95 393.45 Z"/>

<path id="lasergun_0_Layer1_1_1_STROKES" stroke="#000000" stroke-width="7" stroke-linejoin="round" stroke-linecap="butt" fill="none" d="
M 420.25 454.5
Q 413.5 479.55 391.05 492.5 368.6 505.55 343.55 498.8 318.5 492.1 305.45 469.65 292.5 447.1 299.25 422.05 305.9 397 328.4 383.95 350.85 371.1 376 377.75 401.05 384.5 414 406.9 426.95 429.45 420.25 454.5 Z
M 496.6 460.6
Q 479.95 523.05 423.9 555.4 367.95 587.7 305.45 570.95 243 554.25 210.65 498.3 178.4 442.3 195.1 379.8 211.9 317.35 267.85 285 323.85 252.75 386.25 269.45 448.7 286.25 481 342.2 513.35 398.2 496.6 460.6 Z
M 461.65 448.45
Q 450.6 489.85 413.5 511.2 376.45 532.65 335 521.55 293.65 510.5 272.25 473.4 250.85 436.25 261.95 394.95 273 353.6 310.1 332.15 347.15 310.75 388.55 321.85 429.85 332.9 451.3 370 472.75 407.05 461.65 448.45 Z
M 650.05 480.2
Q 613.8 615.4 492.55 685.4 371.35 755.45 235.95 719.15 100.7 682.95 30.75 561.7 -39.25 440.45 -3.05 305.1 33.35 169.9 154.45 99.8 275.7 29.95 410.95 66.15 546.25 102.4 616.3 223.6 686.3 344.85 650.05 480.2 Z
M 618.9 468.15
Q 586.3 589.65 477.35 652.5 368.5 715.4 246.95 682.8 125.55 650.3 62.6 541.45 -0.2 432.5 32.3 311 65 189.5 173.75 126.6 282.6 63.85 404.1 96.35 525.6 128.95 588.5 237.75 651.4 346.65 618.9 468.15 Z
M 527.55 473.6
Q 507.75 547.65 441.4 585.95 375.05 624.3 301 604.4 227 584.55 188.65 518.25 150.35 451.9 170.2 377.85 190.1 303.8 256.35 265.45 322.75 227.3 396.7 247.1 470.7 266.95 509 333.25 547.35 399.6 527.55 473.6 Z
M 567.6 482.85
Q 542.3 577.35 457.6 626.25 372.9 675.2 278.35 649.8 183.9 624.55 134.95 539.85 86.1 455.1 111.4 360.65 136.75 266.1 221.4 217.15 306.1 168.4 400.55 193.7 495.05 219.05 543.95 303.65 592.9 388.35 567.6 482.85 Z"/>

<path id="lasergun_0_Layer1_2_1_STROKES" stroke="#000000" stroke-width="7" stroke-linejoin="round" stroke-linecap="round" fill="none" d="
M 654.65 430.7
Q 714.3 393.55 740.95 416.7 796.7 493.3 734.8 602.15 641.1 734.5 510.5 697.1 380 659.65 342.75 646.05 305.45 632.4 261.1 616.6 216.7 600.8 156.8 596.1 113.1 592.65 76.5 601.65
M 93.8 643.7
Q 94.25 643.3 94.75 642.9
M 740.95 416.7
Q 706.75 475.4 654.65 502
M 89.15 647.75
Q -14.35 735.2 -51.95 702.5 -107.75 625.95 -45.75 517.1 52.4 348.8 317.85 458.25 338.6 466.75 398.2 489.85 398.75 490 399.15 490.25 472.25 518.4 532.25 523.15 600.5 528.55 651.8 503.4
M -51.95 702.5
Q -5.85 623.5 72.6 602.6"/>

<path id="lasergun_0_Layer1_3_1_STROKES" stroke="#000000" stroke-width="7" stroke-linejoin="round" stroke-linecap="round" fill="none" d="
M 503.85 166.35
L 503.85 106.9 573.95 186.75 503.85 166.35 Z
M 574.5 249.9
L 592.35 325.85 837.2 267.35 581.8 241.5
M 568.65 248.35
L 566.45 238.9 575.95 239.95"/>

<path id="lasergun_0_Layer1_4_1_STROKES" stroke="#000000" stroke-width="7" stroke-linejoin="round" stroke-linecap="round" fill="none" d="
M 388.85 189.35
Q 388.85 196.95 383.45 202.3 378.1 207.75 370.5 207.75 362.85 207.75 357.45 202.3 352.1 196.95 352.1 189.35 352.1 181.75 357.45 176.3 362.85 171 370.5 171 378.1 171 383.45 176.3 388.85 181.75 388.85 189.35 Z
M -7.1 421.25
Q -20.1 413.1 -31.3 404.95 -179.2 297.6 -26.2 190.4 -25.95 190.15 -25.65 190 -19.7 185.75 -13.25 181.6 0.75 120.3 -121.7 122.05
L -198.9 87.65
Q 66.25 56.3 109.25 109 152.15 93.95 202.35 93.95 257.05 93.95 335.4 116.8
L 579.85 188.35 583 414.85 350 480.1
Q 257.05 506.1 202.35 506.1 185.7 506.1 169.8 504.45
L 170.85 547 170.9 547.1 188.1 564.3 170.85 586.3 181.05 595.7 191.25 605.2 175.55 628.75 175.55 671.2
Q 206.75 663.15 218.05 683.8 226.85 713.35 192.85 718.45 77.15 735.1 38.65 718.45 10.95 701.75 23.65 661.85 56.65 602.7 25.25 446.95 24.45 443.1 23.65 439.25 7.25 430.25 -7.1 421.25 Z
M -1.3 412.4
Q -39.95 363 -39.95 300 -39.95 238.15 -2.65 189.35
M -13.25 181.6
Q 4.9 169.7 26.75 157.95 28.85 156.05 30.95 154.25 66.45 124.1 109.25 109
M 225.95 192.25
Q 225.95 203 218.35 210.65 210.75 218.25 200 218.25 189.2 218.25 181.6 210.65 174 203 174 192.25 174 181.5 181.6 173.9 189.2 166.25 200 166.25 210.75 166.25 218.35 173.9 225.95 181.5 225.95 192.25 Z
M 313.15 180
Q 313.15 189.6 306.3 196.35 299.55 203.2 290 203.2 280.4 203.2 273.55 196.35 266.8 189.6 266.8 180 266.8 170.45 273.55 163.6 280.4 156.85 290 156.85 299.55 156.85 306.3 163.6 313.15 170.45 313.15 180 Z
M 119.7 229.9
Q 119.7 246.2 108.15 257.75 96.65 269.3 80.3 269.3 63.95 269.3 52.4 257.75 40.85 246.2 40.85 229.9 40.85 213.55 52.4 202 63.95 190.45 80.3 190.45 96.65 190.45 108.15 202 119.7 213.55 119.7 229.9 Z
M -1.3 412.4
Q 14 396.55 29.4 382.25 100.55 316.45 174.2 283.7 247.55 251 323.45 251.25 303.2 262.55 283.8 276.6 267.3 288.55 251.4 302.6 233.85 318.15 216.95 336.2 200.2 354.15 184.25 374.45 168.95 393.95 154.25 415.8 140 437 126.3 460.45 117.65 475.3 109.25 491 137.95 501.05 169.8 504.45
M 273.25 259.5
Q 278.3 268.6 283.8 276.6
M 174.2 283.7
Q 192.7 316.75 216.95 336.2
M 227.45 267.9
Q 238.45 287.7 251.4 302.6
M 129.05 312.65
Q 152.15 354.3 184.25 374.45
M 30.95 445.7
Q 27.2 442.5 23.65 439.25 9.6 426.4 -1.3 412.4
M 175.55 671.2
L 112.65 671.2 129.9 643 107.95 613.05 129.9 595.85 129.9 595.8 111.1 572.15 128.35 548.6 109.25 531.2 109.25 491
Q 66.45 475.85 30.95 445.7
M 129.9 595.85
L 181.05 595.7
M 128.35 548.6
L 170.9 547.1
M 29.4 382.25
Q 71.8 445.55 126.3 460.45
M 77.05 343.05
Q 107.7 398.25 154.25 415.8
M -26.2 190.4
Q -90.35 305.6 -31.3 404.95
M -2.65 189.35
Q 9.9 172.85 26.75 157.95"/>

<path id="lasergun_0_Layer1_5_1_STROKES" stroke="#000000" stroke-width="7" stroke-linejoin="round" stroke-linecap="round" fill="none" d="
M 609.85 313.35
Q 605 366.45 590.6 402.95 576.3 439.65 563.15 434.95 549.95 430.15 559.3 393.15 568.55 356.1 571.3 306.3 573.95 256.5 571.45 218.4 568.85 180.25 584.25 181.65 599.65 183.05 607.1 221.55 614.65 260.2 609.85 313.35 Z"/>

<path id="lasergun_0_Layer1_6_1_STROKES" stroke="#000000" stroke-width="7" stroke-linejoin="round" stroke-linecap="round" fill="none" d="
M 799.15 272.9
Q 799.15 298.75 795.7 317.05 792.2 335.35 787.35 335.35 782.4 335.35 778.95 317.05 775.5 298.75 775.5 272.9 775.5 247 778.95 228.7 782.4 210.4 787.35 210.4 792.2 210.4 795.7 228.7 799.15 247 799.15 272.9 Z
M 729.65 287.05
Q 729.65 316.8 727.2 340.15 726.35 348.15 725.25 355.45 725.15 356 725.05 356.55 720.75 383.8 714.7 383.8 708.5 383.8 704.1 355.45 699.8 327.1 699.8 287.05 699.8 247 704.1 218.65 708.5 190.3 714.7 190.3 720.9 190.3 725.25 218.65 729.65 247 729.65 287.05 Z
M 897.6 265.4
Q 897.6 281.7 886.05 293.2 874.6 304.75 858.25 304.75 841.95 304.75 830.4 293.2 825.9 288.7 823.15 283.45 818.9 275.35 818.9 265.4 818.9 249.05 830.4 237.5 833.45 234.45 836.9 232.25 846.25 226.05 858.25 226.05 874.6 226.05 886.05 237.5 897.6 249.05 897.6 265.4 Z"/>

<path id="lasergun_0_Layer1_7_1_STROKES" stroke="#000000" stroke-width="7" stroke-linejoin="round" stroke-linecap="round" fill="none" d="
M 1051.1 -47.75
L 906.35 40.3 980.45 60.15 908.7 148.85 1037.65 47.45 978.6 31.6 1051.1 -47.75 Z
M 948.8 269
L 1127.2 265 1070 207.8 1182.25 164.75 1011.1 189.35 1056.55 234.9 948.8 269 Z
M 948.8 347
L 1041.55 499.4 1062.45 421.35 1155.85 497 1048.95 361.1 1032.3 423.3 948.8 347 Z"/>

<path id="lasergun_0_Layer0_0_1_STROKES" stroke="#000000" stroke-width="7" stroke-linejoin="round" stroke-linecap="round" fill="none" d="
M 386.8 -387.25
Q 386.393359375 -352.550390625 373.6 -309.95"/>
</defs>

<g transform="matrix( 0.943634033203125, -0.2527923583984375, 0.2527923583984375, 0.943634033203125, 659.35,1231.9) ">
<g transform="matrix( 1, 0, 0, 1, 0,0) ">
<use xlink:href="#lasergun_0_Layer2_0_FILL"/>

<use xlink:href="#lasergun_0_Layer2_0_1_STROKES"/>

<use xlink:href="#lasergun_0_Layer2_0_2_STROKES"/>

<use xlink:href="#lasergun_0_Layer2_0_STROKES_1_FILL"/>
</g>

<g transform="matrix( 1, 0, 0, 1, -267.9,-818) ">
<use xlink:href="#lasergun_0_Layer1_0_FILL"/>

<use xlink:href="#lasergun_0_Layer1_0_1_STROKES"/>
</g>

<g transform="matrix( 1, 0, 0, 1, -267.9,-818) ">
<use xlink:href="#lasergun_0_Layer1_1_1_STROKES"/>
</g>

<g transform="matrix( 1, 0, 0, 1, -267.9,-818) ">
<use xlink:href="#lasergun_0_Layer1_2_FILL"/>

<use xlink:href="#lasergun_0_Layer1_2_1_STROKES"/>
</g>

<g transform="matrix( 1, 0, 0, 1, -267.9,-818) ">
<use xlink:href="#lasergun_0_Layer1_3_FILL"/>

<use xlink:href="#lasergun_0_Layer1_3_1_STROKES"/>
</g>

<g transform="matrix( 1, 0, 0, 1, -267.9,-818) ">
<use xlink:href="#lasergun_0_Layer1_4_FILL"/>

<use xlink:href="#lasergun_0_Layer1_4_1_STROKES"/>
</g>

<g transform="matrix( 1, 0, 0, 1, -267.9,-818) ">
<use xlink:href="#lasergun_0_Layer1_5_FILL"/>

<use xlink:href="#lasergun_0_Layer1_5_1_STROKES"/>
</g>

<g transform="matrix( 1, 0, 0, 1, -267.9,-818) ">
<use xlink:href="#lasergun_0_Layer1_6_FILL"/>

<use xlink:href="#lasergun_0_Layer1_6_1_STROKES"/>
</g>

<g transform="matrix( 1, 0, 0, 1, -267.9,-818) ">
<use xlink:href="#lasergun_0_Layer1_7_FILL"/>

<use xlink:href="#lasergun_0_Layer1_7_1_STROKES"/>
</g>

<g transform="matrix( 1, 0, 0, 1, -267.9,-818) ">
<use xlink:href="#lasergun_0_Layer1_8_STROKES_1_FILL"/>
</g>

<g transform="matrix( 1, 0, 0, 1, 0,0) ">
<use xlink:href="#lasergun_0_Layer0_0_1_STROKES"/>
</g>
</g>
</svg>
